{"asset":{"generator":"Khronos glTF Blender I/O v4.5.51","version":"2.0"},"scene":0,"scenes":[{"name":"Scene","nodes":[0]}],"nodes":[{"mesh":0,"name":"shellstone-v0-worked-lod0"}],"materials":[{"name":"Material_0.002","pbrMetallicRoughness":{"baseColorTexture":{"index":0},"metallicRoughnessTexture":{"index":1}}},{"doubleSided":true,"name":"shellstone shared weathered mineral","pbrMetallicRoughness":{"baseColorTexture":{"index":2},"metallicFactor":0,"roughnessFactor":0.8999999761581421}}],"meshes":[{"name":"Mesh_0.031","primitives":[{"attributes":{"POSITION":0,"NORMAL":1,"TEXCOORD_0":2},"indices":3,"material":0},{"attributes":{"POSITION":4,"NORMAL":5,"TEXCOORD_0":6},"indices":7,"material":1}]}],"textures":[{"sampler":0,"source":0},{"sampler":0,"source":1},{"sampler":0,"source":2}],"images":[{"name":"Image_0","uri":"../textures/8dc227c723a14c646b2e70733aceb46c9815134442d5581e62ec64a292aac7db.png"},{"name":"Image_1","uri":"../textures/62918817a8be2cee33abaf6ca3e6a782ba47fb9d9501935f8153b64c2a7ca099.png"},{"name":"shellstone seamless mineral albedo","uri":"../textures/15b66b6ae1e0272ad4a25441cdba23f12595e550c2da840b017879aadd9a9bc1.png"}],"accessors":[{"bufferView":0,"componentType":5126,"count":16720,"max":[0.23000001907348633,0.5327500700950623,0.5085519552230835],"min":[-0.9701573252677917,1.0430813157658037e-10,-0.5400419235229492],"type":"VEC3"},{"bufferView":1,"componentType":5126,"count":16720,"type":"VEC3"},{"bufferView":2,"componentType":5126,"count":16720,"type":"VEC2"},{"bufferView":3,"componentType":5123,"count":58989,"type":"SCALAR"},{"bufferView":4,"componentType":5126,"count":509,"max":[0.23000001907348633,0.48908308148384094,0.5085519552230835],"min":[-0.9383542537689209,1.0430813157658037e-10,-0.46462273597717285],"type":"VEC3"},{"bufferView":5,"componentType":5126,"count":509,"type":"VEC3"},{"bufferView":6,"componentType":5126,"count":509,"type":"VEC2"},{"bufferView":7,"componentType":5123,"count":1503,"type":"SCALAR"}],"bufferViews":[{"buffer":0,"byteLength":200640,"byteOffset":0,"target":34962},{"buffer":0,"byteLength":200640,"byteOffset":200640,"target":34962},{"buffer":0,"byteLength":133760,"byteOffset":401280,"target":34962},{"buffer":0,"byteLength":117978,"byteOffset":535040,"target":34963},{"buffer":0,"byteLength":6108,"byteOffset":653020,"target":34962},{"buffer":0,"byteLength":6108,"byteOffset":659128,"target":34962},{"buffer":0,"byteLength":4072,"byteOffset":665236,"target":34962},{"buffer":0,"byteLength":3006,"byteOffset":669308,"target":34963}],"samplers":[{"magFilter":9729,"minFilter":9987}],"buffers":[{"byteLength":672314,"uri":"shellstone-v0-worked-lod0.bin"}]}