{"asset":{"generator":"Khronos glTF Blender I/O v4.5.51","version":"2.0"},"scene":0,"scenes":[{"name":"Scene","nodes":[0]}],"nodes":[{"mesh":0,"name":"shellstone-v1-recovered-lod0"}],"materials":[{"name":"Material_0.002","pbrMetallicRoughness":{"baseColorTexture":{"index":0},"metallicRoughnessTexture":{"index":1}}},{"doubleSided":true,"name":"shellstone shared weathered mineral","pbrMetallicRoughness":{"baseColorTexture":{"index":2},"metallicFactor":0,"roughnessFactor":0.8999999761581421}}],"meshes":[{"name":"Mesh_0.105","primitives":[{"attributes":{"POSITION":0,"NORMAL":1,"TEXCOORD_0":2},"indices":3,"material":0},{"attributes":{"POSITION":4,"NORMAL":5,"TEXCOORD_0":6},"indices":7,"material":1}]}],"textures":[{"sampler":0,"source":0},{"sampler":0,"source":1},{"sampler":0,"source":2}],"images":[{"name":"Image_0","uri":"../textures/8dc227c723a14c646b2e70733aceb46c9815134442d5581e62ec64a292aac7db.png"},{"name":"Image_1","uri":"../textures/62918817a8be2cee33abaf6ca3e6a782ba47fb9d9501935f8153b64c2a7ca099.png"},{"name":"shellstone seamless mineral albedo","uri":"../textures/15b66b6ae1e0272ad4a25441cdba23f12595e550c2da840b017879aadd9a9bc1.png"}],"accessors":[{"bufferView":0,"componentType":5126,"count":2331,"max":[0.09260612726211548,0.1976192742586136,0.1884111911058426],"min":[-0.09259460121393204,-4.053383236168884e-05,-0.18846260011196136],"type":"VEC3"},{"bufferView":1,"componentType":5126,"count":2331,"type":"VEC3"},{"bufferView":2,"componentType":5126,"count":2331,"type":"VEC2"},{"bufferView":3,"componentType":5123,"count":6993,"type":"SCALAR"},{"bufferView":4,"componentType":5126,"count":179,"max":[0.09260612726211548,0.19363705813884735,0.18241840600967407],"min":[-0.09259460121393204,-4.053383236168884e-05,-0.17946453392505646],"type":"VEC3"},{"bufferView":5,"componentType":5126,"count":179,"type":"VEC3"},{"bufferView":6,"componentType":5126,"count":179,"type":"VEC2"},{"bufferView":7,"componentType":5123,"count":507,"type":"SCALAR"}],"bufferViews":[{"buffer":0,"byteLength":27972,"byteOffset":0,"target":34962},{"buffer":0,"byteLength":27972,"byteOffset":27972,"target":34962},{"buffer":0,"byteLength":18648,"byteOffset":55944,"target":34962},{"buffer":0,"byteLength":13986,"byteOffset":74592,"target":34963},{"buffer":0,"byteLength":2148,"byteOffset":88580,"target":34962},{"buffer":0,"byteLength":2148,"byteOffset":90728,"target":34962},{"buffer":0,"byteLength":1432,"byteOffset":92876,"target":34962},{"buffer":0,"byteLength":1014,"byteOffset":94308,"target":34963}],"samplers":[{"magFilter":9729,"minFilter":9987}],"buffers":[{"byteLength":95322,"uri":"shellstone-v1-recovered-lod0.bin"}]}