{"asset":{"generator":"Khronos glTF Blender I/O v4.5.51","version":"2.0"},"scene":0,"scenes":[{"name":"Scene","nodes":[0]}],"nodes":[{"mesh":0,"name":"shellstone-v0-recovered-lod0"}],"materials":[{"name":"Material_0.002","pbrMetallicRoughness":{"baseColorTexture":{"index":0},"metallicRoughnessTexture":{"index":1}}},{"doubleSided":true,"name":"shellstone shared weathered mineral","pbrMetallicRoughness":{"baseColorTexture":{"index":2},"metallicFactor":0,"roughnessFactor":0.8999999761581421}}],"meshes":[{"name":"Mesh_0.096","primitives":[{"attributes":{"POSITION":0,"NORMAL":1,"TEXCOORD_0":2},"indices":3,"material":0},{"attributes":{"POSITION":4,"NORMAL":5,"TEXCOORD_0":6},"indices":7,"material":1}]}],"textures":[{"sampler":0,"source":0},{"sampler":0,"source":1},{"sampler":0,"source":2}],"images":[{"name":"Image_0","uri":"../textures/8dc227c723a14c646b2e70733aceb46c9815134442d5581e62ec64a292aac7db.png"},{"name":"Image_1","uri":"../textures/62918817a8be2cee33abaf6ca3e6a782ba47fb9d9501935f8153b64c2a7ca099.png"},{"name":"shellstone seamless mineral albedo","uri":"../textures/15b66b6ae1e0272ad4a25441cdba23f12595e550c2da840b017879aadd9a9bc1.png"}],"accessors":[{"bufferView":0,"componentType":5126,"count":2650,"max":[0.12075641751289368,0.18204721808433533,0.18485139310359955],"min":[-0.12039679288864136,-0.0002807225100696087,-0.1862204670906067],"type":"VEC3"},{"bufferView":1,"componentType":5126,"count":2650,"type":"VEC3"},{"bufferView":2,"componentType":5126,"count":2650,"type":"VEC2"},{"bufferView":3,"componentType":5123,"count":7299,"type":"SCALAR"},{"bufferView":4,"componentType":5126,"count":75,"max":[-0.02590896748006344,0.1805400252342224,0.18222317099571228],"min":[-0.12039679288864136,-0.0002807225100696087,-0.17734630405902863],"type":"VEC3"},{"bufferView":5,"componentType":5126,"count":75,"type":"VEC3"},{"bufferView":6,"componentType":5126,"count":75,"type":"VEC2"},{"bufferView":7,"componentType":5123,"count":201,"type":"SCALAR"}],"bufferViews":[{"buffer":0,"byteLength":31800,"byteOffset":0,"target":34962},{"buffer":0,"byteLength":31800,"byteOffset":31800,"target":34962},{"buffer":0,"byteLength":21200,"byteOffset":63600,"target":34962},{"buffer":0,"byteLength":14598,"byteOffset":84800,"target":34963},{"buffer":0,"byteLength":900,"byteOffset":99400,"target":34962},{"buffer":0,"byteLength":900,"byteOffset":100300,"target":34962},{"buffer":0,"byteLength":600,"byteOffset":101200,"target":34962},{"buffer":0,"byteLength":402,"byteOffset":101800,"target":34963}],"samplers":[{"magFilter":9729,"minFilter":9987}],"buffers":[{"byteLength":102202,"uri":"shellstone-v0-recovered-lod0.bin"}]}