{"asset":{"generator":"Khronos glTF Blender I/O v4.5.51","version":"2.0"},"scene":0,"scenes":[{"name":"Scene","nodes":[0]}],"nodes":[{"mesh":0,"name":"shellstone-v1-worked-lod0"}],"materials":[{"name":"Material_0.002","pbrMetallicRoughness":{"baseColorTexture":{"index":0},"metallicRoughnessTexture":{"index":1}}},{"doubleSided":true,"name":"shellstone shared weathered mineral","pbrMetallicRoughness":{"baseColorTexture":{"index":2},"metallicFactor":0,"roughnessFactor":0.8999999761581421}}],"meshes":[{"name":"Mesh_0.099","primitives":[{"attributes":{"POSITION":0,"NORMAL":1,"TEXCOORD_0":2},"indices":3,"material":0},{"attributes":{"POSITION":4,"NORMAL":5,"TEXCOORD_0":6},"indices":7,"material":1}]}],"textures":[{"sampler":0,"source":0},{"sampler":0,"source":1},{"sampler":0,"source":2}],"images":[{"name":"Image_0","uri":"../textures/8dc227c723a14c646b2e70733aceb46c9815134442d5581e62ec64a292aac7db.png"},{"name":"Image_1","uri":"../textures/62918817a8be2cee33abaf6ca3e6a782ba47fb9d9501935f8153b64c2a7ca099.png"},{"name":"shellstone seamless mineral albedo","uri":"../textures/15b66b6ae1e0272ad4a25441cdba23f12595e550c2da840b017879aadd9a9bc1.png"}],"accessors":[{"bufferView":0,"componentType":5126,"count":17316,"max":[0.23000000417232513,0.5247124433517456,0.4995916187763214],"min":[-0.9703449606895447,1.0430813157658037e-10,-0.5401197075843811],"type":"VEC3"},{"bufferView":1,"componentType":5126,"count":17316,"type":"VEC3"},{"bufferView":2,"componentType":5126,"count":17316,"type":"VEC2"},{"bufferView":3,"componentType":5123,"count":59835,"type":"SCALAR"},{"bufferView":4,"componentType":5126,"count":469,"max":[0.23000000417232513,0.5214256048202515,0.4995916187763214],"min":[-0.5744787454605103,1.0430813157658037e-10,-0.4224969148635864],"type":"VEC3"},{"bufferView":5,"componentType":5126,"count":469,"type":"VEC3"},{"bufferView":6,"componentType":5126,"count":469,"type":"VEC2"},{"bufferView":7,"componentType":5123,"count":1383,"type":"SCALAR"}],"bufferViews":[{"buffer":0,"byteLength":207792,"byteOffset":0,"target":34962},{"buffer":0,"byteLength":207792,"byteOffset":207792,"target":34962},{"buffer":0,"byteLength":138528,"byteOffset":415584,"target":34962},{"buffer":0,"byteLength":119670,"byteOffset":554112,"target":34963},{"buffer":0,"byteLength":5628,"byteOffset":673784,"target":34962},{"buffer":0,"byteLength":5628,"byteOffset":679412,"target":34962},{"buffer":0,"byteLength":3752,"byteOffset":685040,"target":34962},{"buffer":0,"byteLength":2766,"byteOffset":688792,"target":34963}],"samplers":[{"magFilter":9729,"minFilter":9987}],"buffers":[{"byteLength":691558,"uri":"shellstone-v1-worked-lod0.bin"}]}