{"asset":{"generator":"Khronos glTF Blender I/O v4.5.51","version":"2.0"},"scene":0,"scenes":[{"name":"Scene","nodes":[0]}],"nodes":[{"mesh":0,"name":"shellstone-v1-last-lod0"}],"materials":[{"name":"Material_0.002","pbrMetallicRoughness":{"baseColorTexture":{"index":0},"metallicRoughnessTexture":{"index":1}}},{"doubleSided":true,"name":"shellstone shared weathered mineral","pbrMetallicRoughness":{"baseColorTexture":{"index":2},"metallicFactor":0,"roughnessFactor":0.8999999761581421}}],"meshes":[{"name":"Mesh_0.102","primitives":[{"attributes":{"POSITION":0,"NORMAL":1,"TEXCOORD_0":2},"indices":3,"material":0},{"attributes":{"POSITION":4,"NORMAL":5,"TEXCOORD_0":6},"indices":7,"material":1}]}],"textures":[{"sampler":0,"source":0},{"sampler":0,"source":1},{"sampler":0,"source":2}],"images":[{"name":"Image_0","uri":"../textures/8dc227c723a14c646b2e70733aceb46c9815134442d5581e62ec64a292aac7db.png"},{"name":"Image_1","uri":"../textures/62918817a8be2cee33abaf6ca3e6a782ba47fb9d9501935f8153b64c2a7ca099.png"},{"name":"shellstone seamless mineral albedo","uri":"../textures/15b66b6ae1e0272ad4a25441cdba23f12595e550c2da840b017879aadd9a9bc1.png"}],"accessors":[{"bufferView":0,"componentType":5126,"count":10391,"max":[-0.2800000011920929,0.4927573502063751,0.4623130261898041],"min":[-0.9703449606895447,1.0430813157658037e-10,-0.5401197075843811],"type":"VEC3"},{"bufferView":1,"componentType":5126,"count":10391,"type":"VEC3"},{"bufferView":2,"componentType":5126,"count":10391,"type":"VEC2"},{"bufferView":3,"componentType":5123,"count":36960,"type":"SCALAR"},{"bufferView":4,"componentType":5126,"count":462,"max":[-0.2800000011920929,0.48420003056526184,0.44874224066734314],"min":[-0.5744787454605103,1.0430813157658037e-10,-0.5200093388557434],"type":"VEC3"},{"bufferView":5,"componentType":5126,"count":462,"type":"VEC3"},{"bufferView":6,"componentType":5126,"count":462,"type":"VEC2"},{"bufferView":7,"componentType":5123,"count":1362,"type":"SCALAR"}],"bufferViews":[{"buffer":0,"byteLength":124692,"byteOffset":0,"target":34962},{"buffer":0,"byteLength":124692,"byteOffset":124692,"target":34962},{"buffer":0,"byteLength":83128,"byteOffset":249384,"target":34962},{"buffer":0,"byteLength":73920,"byteOffset":332512,"target":34963},{"buffer":0,"byteLength":5544,"byteOffset":406432,"target":34962},{"buffer":0,"byteLength":5544,"byteOffset":411976,"target":34962},{"buffer":0,"byteLength":3696,"byteOffset":417520,"target":34962},{"buffer":0,"byteLength":2724,"byteOffset":421216,"target":34963}],"samplers":[{"magFilter":9729,"minFilter":9987}],"buffers":[{"byteLength":423940,"uri":"shellstone-v1-last-lod0.bin"}]}