{"asset":{"generator":"Khronos glTF Blender I/O v4.5.51","version":"2.0"},"scene":0,"scenes":[{"name":"Scene","nodes":[0]}],"nodes":[{"mesh":0,"name":"slate-v0-last-lod0","translation":[0,0,-0.014999999664723873]}],"materials":[{"doubleSided":true,"name":"slate shared weathered mineral","pbrMetallicRoughness":{"baseColorTexture":{"index":0},"metallicFactor":0,"roughnessFactor":0.8999999761581421}}],"meshes":[{"name":"Mesh_0.042","primitives":[{"attributes":{"POSITION":0,"NORMAL":1,"TEXCOORD_0":2},"indices":3,"material":0}]}],"textures":[{"sampler":0,"source":0}],"images":[{"name":"slate seamless mineral albedo","uri":"../textures/bed057dbef3cf79bef89efce88ad45aa6b830ea2b3155dfb74102d19ae4fe4f8.png"}],"accessors":[{"bufferView":0,"componentType":5126,"count":5005,"max":[-0.2800000011920929,0.5048118233680725,0.5097270607948303],"min":[-0.9800237417221069,-2.1129846483614045e-10,-0.4817422330379486],"type":"VEC3"},{"bufferView":1,"componentType":5126,"count":5005,"type":"VEC3"},{"bufferView":2,"componentType":5126,"count":5005,"type":"VEC2"},{"bufferView":3,"componentType":5123,"count":21252,"type":"SCALAR"}],"bufferViews":[{"buffer":0,"byteLength":60060,"byteOffset":0,"target":34962},{"buffer":0,"byteLength":60060,"byteOffset":60060,"target":34962},{"buffer":0,"byteLength":40040,"byteOffset":120120,"target":34962},{"buffer":0,"byteLength":42504,"byteOffset":160160,"target":34963}],"samplers":[{"magFilter":9729,"minFilter":9987}],"buffers":[{"byteLength":202664,"uri":"slate-v0-last-lod0.bin"}]}