{"asset":{"generator":"Khronos glTF Blender I/O v4.5.51","version":"2.0"},"scene":0,"scenes":[{"name":"Scene","nodes":[0]}],"nodes":[{"mesh":0,"name":"slate-v1-recovered-lod0"}],"materials":[{"doubleSided":true,"name":"slate shared weathered mineral","pbrMetallicRoughness":{"baseColorTexture":{"index":0},"metallicFactor":0,"roughnessFactor":0.8999999761581421}}],"meshes":[{"name":"Mesh_0.057","primitives":[{"attributes":{"POSITION":0,"NORMAL":1,"TEXCOORD_0":2},"indices":3,"material":0}]}],"textures":[{"sampler":0,"source":0}],"images":[{"name":"slate seamless mineral albedo","uri":"../textures/bed057dbef3cf79bef89efce88ad45aa6b830ea2b3155dfb74102d19ae4fe4f8.png"}],"accessors":[{"bufferView":0,"componentType":5126,"count":1930,"max":[0.18523363769054413,0.032413505017757416,0.1282188594341278],"min":[-0.18429067730903625,2.9057263539744582e-11,-0.12972575426101685],"type":"VEC3"},{"bufferView":1,"componentType":5126,"count":1930,"type":"VEC3"},{"bufferView":2,"componentType":5126,"count":1930,"type":"VEC2"},{"bufferView":3,"componentType":5123,"count":8088,"type":"SCALAR"}],"bufferViews":[{"buffer":0,"byteLength":23160,"byteOffset":0,"target":34962},{"buffer":0,"byteLength":23160,"byteOffset":23160,"target":34962},{"buffer":0,"byteLength":15440,"byteOffset":46320,"target":34962},{"buffer":0,"byteLength":16176,"byteOffset":61760,"target":34963}],"samplers":[{"magFilter":9729,"minFilter":9987}],"buffers":[{"byteLength":77936,"uri":"slate-v1-recovered-lod0.bin"}]}