{"asset":{"generator":"Khronos glTF Blender I/O v4.5.51","version":"2.0"},"scene":0,"scenes":[{"name":"Scene","nodes":[0,1]}],"nodes":[{"mesh":0,"name":"corkbark pale inner deadwood"},{"mesh":1,"name":"cork sleeve 0 L0"}],"materials":[{"doubleSided":true,"name":"C3 lengthwise amber wood","pbrMetallicRoughness":{"baseColorTexture":{"index":0},"metallicFactor":0,"roughnessFactor":0.8500000238418579}},{"doubleSided":true,"name":"C3 amber cut wood","pbrMetallicRoughness":{"baseColorTexture":{"index":1},"metallicFactor":0,"roughnessFactor":0.8500000238418579}},{"doubleSided":true,"name":"C3 porous cork","pbrMetallicRoughness":{"baseColorTexture":{"index":2},"metallicFactor":0,"roughnessFactor":0.9700000286102295}}],"meshes":[{"name":"Mesh_0.014","primitives":[{"attributes":{"POSITION":0,"NORMAL":1,"TEXCOORD_0":2,"TEXCOORD_1":3},"indices":4,"material":0},{"attributes":{"POSITION":5,"NORMAL":6,"TEXCOORD_0":7,"TEXCOORD_1":8},"indices":9,"material":1}]},{"name":"Closed porous bark","primitives":[{"attributes":{"POSITION":10,"NORMAL":11,"TEXCOORD_0":12},"indices":13,"material":2}]}],"textures":[{"sampler":0,"source":0},{"sampler":0,"source":1},{"sampler":0,"source":2}],"images":[{"name":"C3 lengthwise amber grain sRGB","uri":"../textures/228bb426b981840fce14dbaca4c0b4a7c3a31d9cc784e87202bc1d324bf83c1a.png"},{"name":"C3 amber heartgrain sRGB","uri":"../textures/7d77694db618dc74c4b0652e1750b0fb8b72c47b19954887704714a2ce690005.png"},{"name":"C3 porous cork sRGB","uri":"../textures/438c2c916f24416039fe6ab76a0d31cef7f2bea99f719b2cb3d215376545d3c8.png"}],"accessors":[{"bufferView":0,"componentType":5126,"count":8007,"max":[0.699999988079071,0.44623541831970215,0.23031874001026154],"min":[-0.699999988079071,0.031864315271377563,-0.22886905074119568],"type":"VEC3"},{"bufferView":1,"componentType":5126,"count":8007,"type":"VEC3"},{"bufferView":2,"componentType":5126,"count":8007,"type":"VEC2"},{"bufferView":3,"componentType":5126,"count":8007,"type":"VEC2"},{"bufferView":4,"componentType":5123,"count":42075,"type":"SCALAR"},{"bufferView":5,"componentType":5126,"count":2848,"max":[0.699999988079071,0.44623541831970215,0.23031874001026154],"min":[-0.699999988079071,0.031864315271377563,-0.22886905074119568],"type":"VEC3"},{"bufferView":6,"componentType":5126,"count":2848,"type":"VEC3"},{"bufferView":7,"componentType":5126,"count":2848,"type":"VEC2"},{"bufferView":8,"componentType":5126,"count":2848,"type":"VEC2"},{"bufferView":9,"componentType":5123,"count":8154,"type":"SCALAR"},{"bufferView":10,"componentType":5126,"count":9546,"max":[-0.27133333683013916,0.5940662622451782,0.37567803263664246],"min":[-0.7900000214576721,0.008337090723216534,-0.3766545057296753],"type":"VEC3"},{"bufferView":11,"componentType":5126,"count":9546,"type":"VEC3"},{"bufferView":12,"componentType":5126,"count":9546,"type":"VEC2"},{"bufferView":13,"componentType":5123,"count":57264,"type":"SCALAR"}],"bufferViews":[{"buffer":0,"byteLength":96084,"byteOffset":0,"target":34962},{"buffer":0,"byteLength":96084,"byteOffset":96084,"target":34962},{"buffer":0,"byteLength":64056,"byteOffset":192168,"target":34962},{"buffer":0,"byteLength":64056,"byteOffset":256224,"target":34962},{"buffer":0,"byteLength":84150,"byteOffset":320280,"target":34963},{"buffer":0,"byteLength":34176,"byteOffset":404432,"target":34962},{"buffer":0,"byteLength":34176,"byteOffset":438608,"target":34962},{"buffer":0,"byteLength":22784,"byteOffset":472784,"target":34962},{"buffer":0,"byteLength":22784,"byteOffset":495568,"target":34962},{"buffer":0,"byteLength":16308,"byteOffset":518352,"target":34963},{"buffer":0,"byteLength":114552,"byteOffset":534660,"target":34962},{"buffer":0,"byteLength":114552,"byteOffset":649212,"target":34962},{"buffer":0,"byteLength":76368,"byteOffset":763764,"target":34962},{"buffer":0,"byteLength":114528,"byteOffset":840132,"target":34963}],"samplers":[{"magFilter":9729,"minFilter":9987}],"buffers":[{"byteLength":954660,"uri":"corkbark-6-lod0.bin"}]}