{"asset":{"generator":"Khronos glTF Blender I/O v4.5.51","version":"2.0"},"scene":0,"scenes":[{"name":"Scene","nodes":[0]}],"nodes":[{"mesh":0,"name":"resinheart matching stump"}],"materials":[{"name":"C3 resinheart bark","pbrMetallicRoughness":{"baseColorTexture":{"index":0},"metallicRoughnessTexture":{"index":1}}}],"meshes":[{"name":"Mesh_0.012","primitives":[{"attributes":{"POSITION":0,"NORMAL":1,"TEXCOORD_0":2,"TEXCOORD_1":3},"indices":4,"material":0}]}],"textures":[{"sampler":0,"source":0},{"sampler":0,"source":1}],"images":[{"name":"broadleaf runtime Image_0","uri":"../../b4/textures/b51994d07b5b3cb00ed6a55de910d77066abfa808c2d16811b5949096fe3abe1.png"},{"name":"broadleaf runtime Image_1","uri":"../../b4/textures/78ce5273206e9172785dca1f28e014d92fc0b6d0c528843dbd95d99b0df5774e.png"}],"accessors":[{"bufferView":0,"componentType":5126,"count":11246,"max":[0.39122048020362854,0.5,0.39175254106521606],"min":[-0.3888366222381592,-0.8981922268867493,-0.39139294624328613],"type":"VEC3"},{"bufferView":1,"componentType":5126,"count":11246,"type":"VEC3"},{"bufferView":2,"componentType":5126,"count":11246,"type":"VEC2"},{"bufferView":3,"componentType":5126,"count":11246,"type":"VEC2"},{"bufferView":4,"componentType":5123,"count":26712,"type":"SCALAR"}],"bufferViews":[{"buffer":0,"byteLength":134952,"byteOffset":0,"target":34962},{"buffer":0,"byteLength":134952,"byteOffset":134952,"target":34962},{"buffer":0,"byteLength":89968,"byteOffset":269904,"target":34962},{"buffer":0,"byteLength":89968,"byteOffset":359872,"target":34962},{"buffer":0,"byteLength":53424,"byteOffset":449840,"target":34963}],"samplers":[{"magFilter":9729,"minFilter":9987}],"buffers":[{"byteLength":503264,"uri":"resinheart-stump.bin"}]}