{"asset":{"generator":"Khronos glTF Blender I/O v4.5.51","version":"2.0"},"extensionsUsed":["KHR_materials_emissive_strength"],"scene":0,"scenes":[{"name":"Scene","nodes":[0,1,2]}],"nodes":[{"mesh":0,"name":"altered resinheart broadleaf branchlets 0 L0 L0"},{"mesh":1,"name":"altered resinheart broadleaf foliage 0 L0 L0"},{"mesh":2,"name":"altered resinheart broadleaf trunk L0 L0"}],"materials":[{"doubleSided":true,"name":"broadleaf twigs","pbrMetallicRoughness":{"baseColorFactor":[0.14000000059604645,0.10499999672174454,0.06499999761581421,1],"metallicFactor":0,"roughnessFactor":0.9200000166893005}},{"doubleSided":true,"name":"broadleaf foliage","pbrMetallicRoughness":{"metallicFactor":0,"roughnessFactor":0.7900000214576721}},{"emissiveFactor":[1,0.1599999964237213,0.014999999664723873],"extensions":{"KHR_materials_emissive_strength":{"emissiveStrength":2.4000000953674316}},"name":"C3 injured bark","pbrMetallicRoughness":{"baseColorTexture":{"index":0},"metallicRoughnessTexture":{"index":1}}}],"meshes":[{"name":"broadleaf branchlets 0 L0.002","primitives":[{"attributes":{"POSITION":0,"NORMAL":1,"TEXCOORD_0":2,"TEXCOORD_1":3,"COLOR_0":4,"COLOR_1":5},"indices":6,"material":0}]},{"name":"broadleaf foliage 0 L0.002","primitives":[{"attributes":{"POSITION":7,"NORMAL":8,"TEXCOORD_0":9,"TEXCOORD_1":10,"COLOR_0":11},"indices":12,"material":1}]},{"name":"Mesh_0.003","primitives":[{"attributes":{"POSITION":13,"NORMAL":14,"TEXCOORD_0":15,"TEXCOORD_1":16},"indices":17,"material":2}]}],"textures":[{"sampler":0,"source":0},{"sampler":0,"source":1}],"images":[{"name":"broadleaf runtime Image_0","uri":"../../b4/textures/b51994d07b5b3cb00ed6a55de910d77066abfa808c2d16811b5949096fe3abe1.png"},{"name":"broadleaf runtime Image_1","uri":"../../b4/textures/78ce5273206e9172785dca1f28e014d92fc0b6d0c528843dbd95d99b0df5774e.png"}],"accessors":[{"bufferView":0,"componentType":5126,"count":28247,"max":[4.214501857757568,11.101316452026367,2.018165111541748],"min":[-3.919311285018921,4.538761138916016,-4.12420654296875],"type":"VEC3"},{"bufferView":1,"componentType":5126,"count":28247,"type":"VEC3"},{"bufferView":2,"componentType":5126,"count":28247,"type":"VEC2"},{"bufferView":3,"componentType":5126,"count":28247,"type":"VEC2"},{"bufferView":4,"componentType":5126,"count":28247,"type":"VEC3"},{"bufferView":5,"componentType":5123,"count":28247,"normalized":true,"type":"VEC4"},{"bufferView":6,"componentType":5123,"count":45240,"type":"SCALAR"},{"bufferView":7,"componentType":5126,"count":216650,"max":[4.2229695320129395,11.08103084564209,2.0495433807373047],"min":[-3.957374334335327,4.55658483505249,-4.195652008056641],"type":"VEC3"},{"bufferView":8,"componentType":5126,"count":216650,"type":"VEC3"},{"bufferView":9,"componentType":5126,"count":216650,"type":"VEC2"},{"bufferView":10,"componentType":5126,"count":216650,"type":"VEC2"},{"bufferView":11,"componentType":5126,"count":216650,"type":"VEC3"},{"bufferView":12,"componentType":5125,"count":487200,"type":"SCALAR"},{"bufferView":13,"componentType":5126,"count":56396,"max":[3.50642466545105,10.290674209594727,1.4978463649749756],"min":[-3.739896297454834,-0.8981922268867493,-3.5071187019348145],"type":"VEC3"},{"bufferView":14,"componentType":5126,"count":56396,"type":"VEC3"},{"bufferView":15,"componentType":5126,"count":56396,"type":"VEC2"},{"bufferView":16,"componentType":5126,"count":56396,"type":"VEC2"},{"bufferView":17,"componentType":5123,"count":125982,"type":"SCALAR"}],"bufferViews":[{"buffer":0,"byteLength":338964,"byteOffset":0,"target":34962},{"buffer":0,"byteLength":338964,"byteOffset":338964,"target":34962},{"buffer":0,"byteLength":225976,"byteOffset":677928,"target":34962},{"buffer":0,"byteLength":225976,"byteOffset":903904,"target":34962},{"buffer":0,"byteLength":338964,"byteOffset":1129880,"target":34962},{"buffer":0,"byteLength":225976,"byteOffset":1468844,"target":34962},{"buffer":0,"byteLength":90480,"byteOffset":1694820,"target":34963},{"buffer":0,"byteLength":2599800,"byteOffset":1785300,"target":34962},{"buffer":0,"byteLength":2599800,"byteOffset":4385100,"target":34962},{"buffer":0,"byteLength":1733200,"byteOffset":6984900,"target":34962},{"buffer":0,"byteLength":1733200,"byteOffset":8718100,"target":34962},{"buffer":0,"byteLength":2599800,"byteOffset":10451300,"target":34962},{"buffer":0,"byteLength":1948800,"byteOffset":13051100,"target":34963},{"buffer":0,"byteLength":676752,"byteOffset":14999900,"target":34962},{"buffer":0,"byteLength":676752,"byteOffset":15676652,"target":34962},{"buffer":0,"byteLength":451168,"byteOffset":16353404,"target":34962},{"buffer":0,"byteLength":451168,"byteOffset":16804572,"target":34962},{"buffer":0,"byteLength":251964,"byteOffset":17255740,"target":34963}],"samplers":[{"magFilter":9729,"minFilter":9987}],"buffers":[{"byteLength":17507704,"uri":"resinheart-altered-lod0.bin"}]}