{"asset":{"generator":"Khronos glTF Blender I/O v4.5.51","version":"2.0"},"scene":0,"scenes":[{"name":"Scene","nodes":[0,1,2]}],"nodes":[{"mesh":0,"name":"stump bog-oak-0-0"},{"mesh":1,"name":"stump C1 knuckled roots L0"},{"mesh":2,"name":"C1 closed end grain L0"}],"materials":[{"name":"C1 broadleaf bark","pbrMetallicRoughness":{"baseColorTexture":{"index":0},"metallicRoughnessTexture":{"index":1}}},{"doubleSided":true,"name":"C1 root grain L0","pbrMetallicRoughness":{"metallicFactor":0,"roughnessFactor":0.8399999737739563}},{"doubleSided":true,"name":"Bog oak exposed closed end grain","pbrMetallicRoughness":{"baseColorTexture":{"index":2},"metallicFactor":0,"roughnessFactor":0.8999999761581421}}],"meshes":[{"name":"Mesh_0.006","primitives":[{"attributes":{"POSITION":0,"NORMAL":1,"TEXCOORD_0":2,"TEXCOORD_1":3},"indices":4,"material":0}]},{"name":"C1 knuckled roots L0.002","primitives":[{"attributes":{"POSITION":5,"NORMAL":6,"TEXCOORD_0":7,"COLOR_0":8},"indices":9,"material":1}]},{"name":"Closed measured end grain","primitives":[{"attributes":{"POSITION":10,"NORMAL":11,"TEXCOORD_0":12},"indices":13,"material":2}]}],"textures":[{"sampler":0,"source":0},{"sampler":0,"source":1},{"sampler":0,"source":2}],"images":[{"name":"broadleaf runtime Image_0","uri":"../../b4/textures/b51994d07b5b3cb00ed6a55de910d77066abfa808c2d16811b5949096fe3abe1.png"},{"name":"broadleaf runtime Image_1","uri":"../../b4/textures/78ce5273206e9172785dca1f28e014d92fc0b6d0c528843dbd95d99b0df5774e.png"},{"name":"broadleaf coherent cut grain","uri":"../textures/d8373511aac3511225feb942aefaa92fec1395bde24aa6539b0e8da0cd2fbae8.png"}],"accessors":[{"bufferView":0,"componentType":5126,"count":12331,"max":[0.3049992024898529,0.4300000071525574,0.3049999177455902],"min":[-0.3045436143875122,-0.6415658593177795,-0.30499616265296936],"type":"VEC3"},{"bufferView":1,"componentType":5126,"count":12331,"type":"VEC3"},{"bufferView":2,"componentType":5126,"count":12331,"type":"VEC2"},{"bufferView":3,"componentType":5126,"count":12331,"type":"VEC2"},{"bufferView":4,"componentType":5123,"count":29091,"type":"SCALAR"},{"bufferView":5,"componentType":5126,"count":144,"max":[0.3073974549770355,0.26878297328948975,0.30875134468078613],"min":[-0.3073974549770355,0.004169341176748276,-0.30875134468078613],"type":"VEC3"},{"bufferView":6,"componentType":5126,"count":144,"type":"VEC3"},{"bufferView":7,"componentType":5126,"count":144,"type":"VEC2"},{"bufferView":8,"componentType":5126,"count":144,"type":"VEC3"},{"bufferView":9,"componentType":5123,"count":792,"type":"SCALAR"},{"bufferView":10,"componentType":5126,"count":114,"max":[0.2729250490665436,0.4300000071525574,0.26735368371009827],"min":[-0.25846078991889954,0.4300000071525574,-0.2666260898113251],"type":"VEC3"},{"bufferView":11,"componentType":5126,"count":114,"type":"VEC3"},{"bufferView":12,"componentType":5126,"count":114,"type":"VEC2"},{"bufferView":13,"componentType":5123,"count":339,"type":"SCALAR"}],"bufferViews":[{"buffer":0,"byteLength":147972,"byteOffset":0,"target":34962},{"buffer":0,"byteLength":147972,"byteOffset":147972,"target":34962},{"buffer":0,"byteLength":98648,"byteOffset":295944,"target":34962},{"buffer":0,"byteLength":98648,"byteOffset":394592,"target":34962},{"buffer":0,"byteLength":58182,"byteOffset":493240,"target":34963},{"buffer":0,"byteLength":1728,"byteOffset":551424,"target":34962},{"buffer":0,"byteLength":1728,"byteOffset":553152,"target":34962},{"buffer":0,"byteLength":1152,"byteOffset":554880,"target":34962},{"buffer":0,"byteLength":1728,"byteOffset":556032,"target":34962},{"buffer":0,"byteLength":1584,"byteOffset":557760,"target":34963},{"buffer":0,"byteLength":1368,"byteOffset":559344,"target":34962},{"buffer":0,"byteLength":1368,"byteOffset":560712,"target":34962},{"buffer":0,"byteLength":912,"byteOffset":562080,"target":34962},{"buffer":0,"byteLength":678,"byteOffset":562992,"target":34963}],"samplers":[{"magFilter":9729,"minFilter":9987}],"buffers":[{"byteLength":563670,"uri":"bog-oak-stump-lod0.bin"}]}