{"asset":{"generator":"Khronos glTF Blender I/O v4.5.51","version":"2.0"},"scene":0,"scenes":[{"name":"Scene","nodes":[0,1,2,3]}],"nodes":[{"mesh":0,"name":"C1 knuckled roots L0"},{"mesh":1,"name":"bog-oak-0-0"},{"mesh":2,"name":"bog-oak-0-1"},{"mesh":3,"name":"bog-oak-0-2"}],"materials":[{"doubleSided":true,"name":"C1 root grain L0","pbrMetallicRoughness":{"metallicFactor":0,"roughnessFactor":0.8399999737739563}},{"name":"C1 broadleaf bark","pbrMetallicRoughness":{"baseColorTexture":{"index":0},"metallicRoughnessTexture":{"index":1}}},{"doubleSided":true,"name":"C1 broadleaf twigs","pbrMetallicRoughness":{"baseColorFactor":[0.14000000059604645,0.10499999672174454,0.06499999761581421,1],"metallicFactor":0,"roughnessFactor":0.8799999952316284}},{"doubleSided":true,"name":"C1 broadleaf foliage","pbrMetallicRoughness":{"metallicFactor":0,"roughnessFactor":0.8799999952316284}}],"meshes":[{"name":"C1 knuckled roots L0","primitives":[{"attributes":{"POSITION":0,"NORMAL":1,"TEXCOORD_0":2,"COLOR_0":3},"indices":4,"material":0}]},{"name":"Mesh_0.001","primitives":[{"attributes":{"POSITION":5,"NORMAL":6,"TEXCOORD_0":7,"TEXCOORD_1":8},"indices":9,"material":1}]},{"name":"broadleaf branchlets 0 L0.001","primitives":[{"attributes":{"POSITION":10,"NORMAL":11,"TEXCOORD_0":12,"TEXCOORD_1":13,"COLOR_0":14,"COLOR_1":15},"indices":16,"material":2}]},{"name":"broadleaf foliage 0 L0.001","primitives":[{"attributes":{"POSITION":17,"NORMAL":18,"TEXCOORD_0":19,"TEXCOORD_1":20,"COLOR_0":21},"indices":22,"material":3}]}],"textures":[{"sampler":0,"source":0},{"sampler":0,"source":1}],"images":[{"name":"broadleaf runtime Image_0","uri":"../../b4/textures/b51994d07b5b3cb00ed6a55de910d77066abfa808c2d16811b5949096fe3abe1.png"},{"name":"broadleaf runtime Image_1","uri":"../../b4/textures/78ce5273206e9172785dca1f28e014d92fc0b6d0c528843dbd95d99b0df5774e.png"}],"accessors":[{"bufferView":0,"componentType":5126,"count":144,"max":[0.3073974549770355,0.26878297328948975,0.30875134468078613],"min":[-0.3073974549770355,0.004169341176748276,-0.30875134468078613],"type":"VEC3"},{"bufferView":1,"componentType":5126,"count":144,"type":"VEC3"},{"bufferView":2,"componentType":5126,"count":144,"type":"VEC2"},{"bufferView":3,"componentType":5126,"count":144,"type":"VEC3"},{"bufferView":4,"componentType":5123,"count":792,"type":"SCALAR"},{"bufferView":5,"componentType":5126,"count":56396,"max":[3.29003643989563,7.3504815101623535,1.228234052658081],"min":[-2.801607847213745,-0.6415658593177795,-2.8758373260498047],"type":"VEC3"},{"bufferView":6,"componentType":5126,"count":56396,"type":"VEC3"},{"bufferView":7,"componentType":5126,"count":56396,"type":"VEC2"},{"bufferView":8,"componentType":5126,"count":56396,"type":"VEC2"},{"bufferView":9,"componentType":5123,"count":125982,"type":"SCALAR"},{"bufferView":10,"componentType":5126,"count":28458,"max":[3.9076921939849854,7.930297374725342,1.6545370817184448],"min":[-2.9203219413757324,3.2421717643737793,-3.3818490505218506],"type":"VEC3"},{"bufferView":11,"componentType":5126,"count":28458,"type":"VEC3"},{"bufferView":12,"componentType":5126,"count":28458,"type":"VEC2"},{"bufferView":13,"componentType":5126,"count":28458,"type":"VEC2"},{"bufferView":14,"componentType":5126,"count":28458,"type":"VEC3"},{"bufferView":15,"componentType":5123,"count":28458,"normalized":true,"type":"VEC4"},{"bufferView":16,"componentType":5123,"count":45240,"type":"SCALAR"},{"bufferView":17,"componentType":5126,"count":216650,"max":[3.904613494873047,7.915233135223389,1.68030846118927],"min":[-2.954432964324951,3.256413698196411,-3.438554286956787],"type":"VEC3"},{"bufferView":18,"componentType":5126,"count":216650,"type":"VEC3"},{"bufferView":19,"componentType":5126,"count":216650,"type":"VEC2"},{"bufferView":20,"componentType":5126,"count":216650,"type":"VEC2"},{"bufferView":21,"componentType":5126,"count":216650,"type":"VEC3"},{"bufferView":22,"componentType":5125,"count":487200,"type":"SCALAR"}],"bufferViews":[{"buffer":0,"byteLength":1728,"byteOffset":0,"target":34962},{"buffer":0,"byteLength":1728,"byteOffset":1728,"target":34962},{"buffer":0,"byteLength":1152,"byteOffset":3456,"target":34962},{"buffer":0,"byteLength":1728,"byteOffset":4608,"target":34962},{"buffer":0,"byteLength":1584,"byteOffset":6336,"target":34963},{"buffer":0,"byteLength":676752,"byteOffset":7920,"target":34962},{"buffer":0,"byteLength":676752,"byteOffset":684672,"target":34962},{"buffer":0,"byteLength":451168,"byteOffset":1361424,"target":34962},{"buffer":0,"byteLength":451168,"byteOffset":1812592,"target":34962},{"buffer":0,"byteLength":251964,"byteOffset":2263760,"target":34963},{"buffer":0,"byteLength":341496,"byteOffset":2515724,"target":34962},{"buffer":0,"byteLength":341496,"byteOffset":2857220,"target":34962},{"buffer":0,"byteLength":227664,"byteOffset":3198716,"target":34962},{"buffer":0,"byteLength":227664,"byteOffset":3426380,"target":34962},{"buffer":0,"byteLength":341496,"byteOffset":3654044,"target":34962},{"buffer":0,"byteLength":227664,"byteOffset":3995540,"target":34962},{"buffer":0,"byteLength":90480,"byteOffset":4223204,"target":34963},{"buffer":0,"byteLength":2599800,"byteOffset":4313684,"target":34962},{"buffer":0,"byteLength":2599800,"byteOffset":6913484,"target":34962},{"buffer":0,"byteLength":1733200,"byteOffset":9513284,"target":34962},{"buffer":0,"byteLength":1733200,"byteOffset":11246484,"target":34962},{"buffer":0,"byteLength":2599800,"byteOffset":12979684,"target":34962},{"buffer":0,"byteLength":1948800,"byteOffset":15579484,"target":34963}],"samplers":[{"magFilter":9729,"minFilter":9987}],"buffers":[{"byteLength":17528284,"uri":"bog-oak-full-lod0.bin"}]}