{"asset":{"generator":"Khronos glTF Blender I/O v4.5.51","version":"2.0"},"scene":0,"scenes":[{"name":"Scene","nodes":[0]}],"nodes":[{"mesh":0,"name":"clay stage 5 L0"}],"materials":[{"name":"Damp rustclay - retained original albedo and linear ORM","pbrMetallicRoughness":{"baseColorTexture":{"index":0},"metallicRoughnessTexture":{"index":1}}}],"meshes":[{"name":"Mesh_0.029","primitives":[{"attributes":{"POSITION":0,"NORMAL":1,"TEXCOORD_0":2},"indices":3,"material":0}]}],"textures":[{"sampler":0,"source":0},{"sampler":0,"source":1}],"images":[{"name":"Image_0","uri":"../textures/c99a970e89fc9f0824646a0e488000b6e8889f27af62be2cc2e055f426521773.png"},{"name":"Image_1","uri":"../textures/94ebb397068353a35b947231ab0b4355bb3548910114946934862474ba419948.png"}],"accessors":[{"bufferView":0,"componentType":5126,"count":18038,"max":[0.8805313110351562,0.19244976341724396,0.6048604249954224],"min":[-0.8810428380966187,0.0019522994989529252,-0.6046514511108398],"type":"VEC3"},{"bufferView":1,"componentType":5126,"count":18038,"type":"VEC3"},{"bufferView":2,"componentType":5126,"count":18038,"type":"VEC2"},{"bufferView":3,"componentType":5123,"count":47997,"type":"SCALAR"}],"bufferViews":[{"buffer":0,"byteLength":216456,"byteOffset":0,"target":34962},{"buffer":0,"byteLength":216456,"byteOffset":216456,"target":34962},{"buffer":0,"byteLength":144304,"byteOffset":432912,"target":34962},{"buffer":0,"byteLength":95994,"byteOffset":577216,"target":34963}],"samplers":[{"magFilter":9729,"minFilter":9987}],"buffers":[{"byteLength":673210,"uri":"clay-4-lod0.bin"}]}