{"asset":{"generator":"Khronos glTF Blender I/O v4.5.51","version":"2.0"},"scene":0,"scenes":[{"name":"Scene","nodes":[0]}],"nodes":[{"mesh":0,"name":"clay stage 4 L0"}],"materials":[{"name":"Damp rustclay - retained original albedo and linear ORM","pbrMetallicRoughness":{"baseColorTexture":{"index":0},"metallicRoughnessTexture":{"index":1}}}],"meshes":[{"name":"Mesh_0.026","primitives":[{"attributes":{"POSITION":0,"NORMAL":1,"TEXCOORD_0":2},"indices":3,"material":0}]}],"textures":[{"sampler":0,"source":0},{"sampler":0,"source":1}],"images":[{"name":"Image_0","uri":"../textures/c99a970e89fc9f0824646a0e488000b6e8889f27af62be2cc2e055f426521773.png"},{"name":"Image_1","uri":"../textures/94ebb397068353a35b947231ab0b4355bb3548910114946934862474ba419948.png"}],"accessors":[{"bufferView":0,"componentType":5126,"count":18119,"max":[0.8813326954841614,0.21816742420196533,0.6044257283210754],"min":[-0.8810533881187439,0.0021735636983066797,-0.6044455766677856],"type":"VEC3"},{"bufferView":1,"componentType":5126,"count":18119,"type":"VEC3"},{"bufferView":2,"componentType":5126,"count":18119,"type":"VEC2"},{"bufferView":3,"componentType":5123,"count":47997,"type":"SCALAR"}],"bufferViews":[{"buffer":0,"byteLength":217428,"byteOffset":0,"target":34962},{"buffer":0,"byteLength":217428,"byteOffset":217428,"target":34962},{"buffer":0,"byteLength":144952,"byteOffset":434856,"target":34962},{"buffer":0,"byteLength":95994,"byteOffset":579808,"target":34963}],"samplers":[{"magFilter":9729,"minFilter":9987}],"buffers":[{"byteLength":675802,"uri":"clay-8-lod0.bin"}]}