{"asset":{"generator":"Khronos glTF Blender I/O v4.5.51","version":"2.0"},"scene":0,"scenes":[{"name":"Scene","nodes":[0]}],"nodes":[{"mesh":0,"name":"Reed 12 L0"}],"materials":[{"doubleSided":true,"name":"C1 rooted reed and sedge colours","pbrMetallicRoughness":{"metallicFactor":0,"roughnessFactor":0.7599999904632568}}],"meshes":[{"name":"Reed 12 L0","primitives":[{"attributes":{"POSITION":0,"NORMAL":1,"TEXCOORD_0":2,"COLOR_0":3},"indices":4,"material":0}]}],"accessors":[{"bufferView":0,"componentType":5126,"count":1936,"max":[0.3332298994064331,1.2542366981506348,0.3710794150829315],"min":[-0.30981212854385376,-0.0005207962240092456,-0.3118876516819],"type":"VEC3"},{"bufferView":1,"componentType":5126,"count":1936,"type":"VEC3"},{"bufferView":2,"componentType":5126,"count":1936,"type":"VEC2"},{"bufferView":3,"componentType":5126,"count":1936,"type":"VEC3"},{"bufferView":4,"componentType":5123,"count":8448,"type":"SCALAR"}],"bufferViews":[{"buffer":0,"byteLength":23232,"byteOffset":0,"target":34962},{"buffer":0,"byteLength":23232,"byteOffset":23232,"target":34962},{"buffer":0,"byteLength":15488,"byteOffset":46464,"target":34962},{"buffer":0,"byteLength":23232,"byteOffset":61952,"target":34962},{"buffer":0,"byteLength":16896,"byteOffset":85184,"target":34963}],"buffers":[{"byteLength":102080,"uri":"reed-12-lod0.bin"}]}