{"asset":{"generator":"Khronos glTF Blender I/O v4.5.51","version":"2.0"},"scene":0,"scenes":[{"name":"Scene","nodes":[0]}],"nodes":[{"mesh":0,"name":"Reed 18 L0"}],"materials":[{"doubleSided":true,"name":"C1 rooted reed and sedge colours","pbrMetallicRoughness":{"metallicFactor":0,"roughnessFactor":0.7599999904632568}}],"meshes":[{"name":"Reed 18 L0","primitives":[{"attributes":{"POSITION":0,"NORMAL":1,"TEXCOORD_0":2,"COLOR_0":3},"indices":4,"material":0}]}],"accessors":[{"bufferView":0,"componentType":5126,"count":2744,"max":[0.4573433995246887,1.2542366981506348,0.3753000497817993],"min":[-0.44007518887519836,-0.0005207962240092456,-0.3118876516819],"type":"VEC3"},{"bufferView":1,"componentType":5126,"count":2744,"type":"VEC3"},{"bufferView":2,"componentType":5126,"count":2744,"type":"VEC2"},{"bufferView":3,"componentType":5126,"count":2744,"type":"VEC3"},{"bufferView":4,"componentType":5123,"count":11904,"type":"SCALAR"}],"bufferViews":[{"buffer":0,"byteLength":32928,"byteOffset":0,"target":34962},{"buffer":0,"byteLength":32928,"byteOffset":32928,"target":34962},{"buffer":0,"byteLength":21952,"byteOffset":65856,"target":34962},{"buffer":0,"byteLength":32928,"byteOffset":87808,"target":34962},{"buffer":0,"byteLength":23808,"byteOffset":120736,"target":34963}],"buffers":[{"byteLength":144544,"uri":"reed-18-lod0.bin"}]}