{"asset":{"generator":"Khronos glTF Blender I/O v4.5.51","version":"2.0"},"scene":0,"scenes":[{"name":"Scene","nodes":[0]}],"nodes":[{"mesh":0,"name":"Reed 24 L0"}],"materials":[{"doubleSided":true,"name":"C1 rooted reed and sedge colours","pbrMetallicRoughness":{"metallicFactor":0,"roughnessFactor":0.7599999904632568}}],"meshes":[{"name":"Reed 24 L0","primitives":[{"attributes":{"POSITION":0,"NORMAL":1,"TEXCOORD_0":2,"COLOR_0":3},"indices":4,"material":0}]}],"accessors":[{"bufferView":0,"componentType":5126,"count":3552,"max":[0.4573433995246887,1.2542366981506348,0.4066427946090698],"min":[-0.44007518887519836,-0.0005207962240092456,-0.44107750058174133],"type":"VEC3"},{"bufferView":1,"componentType":5126,"count":3552,"type":"VEC3"},{"bufferView":2,"componentType":5126,"count":3552,"type":"VEC2"},{"bufferView":3,"componentType":5126,"count":3552,"type":"VEC3"},{"bufferView":4,"componentType":5123,"count":15360,"type":"SCALAR"}],"bufferViews":[{"buffer":0,"byteLength":42624,"byteOffset":0,"target":34962},{"buffer":0,"byteLength":42624,"byteOffset":42624,"target":34962},{"buffer":0,"byteLength":28416,"byteOffset":85248,"target":34962},{"buffer":0,"byteLength":42624,"byteOffset":113664,"target":34962},{"buffer":0,"byteLength":30720,"byteOffset":156288,"target":34963}],"buffers":[{"byteLength":187008,"uri":"reed-24-lod0.bin"}]}