{"asset":{"generator":"Khronos glTF Blender I/O v4.5.51","version":"2.0"},"scene":0,"scenes":[{"name":"Scene","nodes":[0]}],"nodes":[{"mesh":0,"name":"Reed 0 L0"}],"materials":[{"doubleSided":true,"name":"C1 rooted reed and sedge colours","pbrMetallicRoughness":{"metallicFactor":0,"roughnessFactor":0.7599999904632568}}],"meshes":[{"name":"Reed 0 L0","primitives":[{"attributes":{"POSITION":0,"NORMAL":1,"TEXCOORD_0":2,"COLOR_0":3},"indices":4,"material":0}]}],"accessors":[{"bufferView":0,"componentType":5126,"count":320,"max":[0.3151590824127197,0.09399999678134918,0.26999059319496155],"min":[-0.30981212854385376,0,-0.3118876516819],"type":"VEC3"},{"bufferView":1,"componentType":5126,"count":320,"type":"VEC3"},{"bufferView":2,"componentType":5126,"count":320,"type":"VEC2"},{"bufferView":3,"componentType":5126,"count":320,"type":"VEC3"},{"bufferView":4,"componentType":5123,"count":1536,"type":"SCALAR"}],"bufferViews":[{"buffer":0,"byteLength":3840,"byteOffset":0,"target":34962},{"buffer":0,"byteLength":3840,"byteOffset":3840,"target":34962},{"buffer":0,"byteLength":2560,"byteOffset":7680,"target":34962},{"buffer":0,"byteLength":3840,"byteOffset":10240,"target":34962},{"buffer":0,"byteLength":3072,"byteOffset":14080,"target":34963}],"buffers":[{"byteLength":17152,"uri":"reed-0-lod0.bin"}]}