{"asset":{"generator":"Khronos glTF Blender I/O v4.5.51","version":"2.0"},"scene":0,"scenes":[{"name":"Scene","nodes":[0,1,2,3]}],"nodes":[{"mesh":0,"name":"cataclysm_rootvault_frame LOD0 cataclysm_rootvault_frame"},{"mesh":1,"name":"cataclysm_rootvault_frame LOD0 cataclysm_rootvault_frame roots "},{"mesh":2,"name":"cataclysm_rootvault_frame LOD0 cataclysm_rootvault_frame roots"},{"mesh":3,"name":"cataclysm_rootvault_frame LOD0 cataclysm_rootvault_frame root"}],"materials":[{"doubleSided":true,"name":"C6 stone","pbrMetallicRoughness":{"baseColorTexture":{"index":0},"metallicFactor":0,"roughnessFactor":0.9300000071525574}},{"doubleSided":true,"name":"C6 wood","pbrMetallicRoughness":{"baseColorTexture":{"index":1},"metallicFactor":0,"roughnessFactor":0.9300000071525574}},{"doubleSided":true,"name":"C6 metal","pbrMetallicRoughness":{"baseColorTexture":{"index":2},"metallicFactor":0.5,"roughnessFactor":0.6800000071525574}},{"doubleSided":true,"name":"C6 old inert inlay","pbrMetallicRoughness":{"baseColorFactor":[0.23000000417232513,0.27000001072883606,0.24500000476837158,1],"metallicFactor":0,"roughnessFactor":0.5}},{"name":"Altered bark - scar mask authored in UV.001","pbrMetallicRoughness":{"baseColorTexture":{"index":3},"metallicRoughnessTexture":{"index":4}}}],"meshes":[{"name":"cataclysm_rootvault_frame.002","primitives":[{"attributes":{"POSITION":0,"NORMAL":1,"TEXCOORD_0":2},"indices":3,"material":0},{"attributes":{"POSITION":4,"NORMAL":5,"TEXCOORD_0":6},"indices":7,"material":1},{"attributes":{"POSITION":8,"NORMAL":9,"TEXCOORD_0":10},"indices":11,"material":2},{"attributes":{"POSITION":12,"NORMAL":13,"TEXCOORD_0":14},"indices":15,"material":3}]},{"name":"Mesh_0.085","primitives":[{"attributes":{"POSITION":16,"NORMAL":17,"TEXCOORD_0":18},"indices":19,"material":4}]},{"name":"Mesh_0.087","primitives":[{"attributes":{"POSITION":20,"NORMAL":21,"TEXCOORD_0":22},"indices":23,"material":4}]},{"name":"Masonry-fitted branching roots.015","primitives":[{"attributes":{"POSITION":24,"NORMAL":25,"TEXCOORD_0":26},"indices":27,"material":4}]}],"textures":[{"sampler":0,"source":0},{"sampler":0,"source":1},{"sampler":0,"source":2},{"sampler":0,"source":3},{"sampler":0,"source":4}],"images":[{"name":"stone","uri":"../textures/e2eb1d3a40c80901e60325eed8bf71951435da3fba9cc40873ea565520dc754f.png"},{"name":"wood","uri":"../textures/050c7c36827bde63ec57101fc4a609c695ff554d8f3d21edeb423b750e80dbd8.png"},{"name":"metal","uri":"../textures/d31f9d6385c881d0ee43f82728ef74a92d80eac945acb7d7f31633064de68896.png"},{"name":"Image_0","uri":"../../b4/textures/b51994d07b5b3cb00ed6a55de910d77066abfa808c2d16811b5949096fe3abe1.png"},{"name":"Image_1","uri":"../../b4/textures/78ce5273206e9172785dca1f28e014d92fc0b6d0c528843dbd95d99b0df5774e.png"}],"accessors":[{"bufferView":0,"componentType":5126,"count":480,"max":[1.6624999046325684,0.4650000035762787,0.3249075412750244],"min":[-1.6624999046325684,-0.05499999225139618,-0.32649970054626465],"type":"VEC3"},{"bufferView":1,"componentType":5126,"count":480,"type":"VEC3"},{"bufferView":2,"componentType":5126,"count":480,"type":"VEC2"},{"bufferView":3,"componentType":5123,"count":816,"type":"SCALAR"},{"bufferView":4,"componentType":5126,"count":1229,"max":[1.5252610445022583,2.783461809158325,0.3199999928474426],"min":[-1.5252610445022583,0.3353360891342163,-0.20467424392700195],"type":"VEC3"},{"bufferView":5,"componentType":5126,"count":1229,"type":"VEC3"},{"bufferView":6,"componentType":5126,"count":1229,"type":"VEC2"},{"bufferView":7,"componentType":5123,"count":1980,"type":"SCALAR"},{"bufferView":8,"componentType":5126,"count":3003,"max":[-1.3110194206237793,1.6225354671478271,0.25050002336502075],"min":[-1.5343611240386963,0.8865000009536743,0.18060000240802765],"type":"VEC3"},{"bufferView":9,"componentType":5126,"count":3003,"type":"VEC3"},{"bufferView":10,"componentType":5126,"count":3003,"type":"VEC2"},{"bufferView":11,"componentType":5123,"count":4488,"type":"SCALAR"},{"bufferView":12,"componentType":5126,"count":142,"max":[-1.3940500020980835,1.6190500259399414,0.23280000686645508],"min":[-1.4033499956130981,1.5709500312805176,0.2160000056028366],"type":"VEC3"},{"bufferView":13,"componentType":5126,"count":142,"type":"VEC3"},{"bufferView":14,"componentType":5126,"count":142,"type":"VEC2"},{"bufferView":15,"componentType":5123,"count":204,"type":"SCALAR"},{"bufferView":16,"componentType":5126,"count":4183,"max":[-1.1624999046325684,0.002004399662837386,0.3239075541496277],"min":[-1.6174999475479126,-0.05199999362230301,0.13655461370944977],"type":"VEC3"},{"bufferView":17,"componentType":5126,"count":4183,"type":"VEC3"},{"bufferView":18,"componentType":5126,"count":4183,"type":"VEC2"},{"bufferView":19,"componentType":5123,"count":12081,"type":"SCALAR"},{"bufferView":20,"componentType":5126,"count":4183,"max":[1.6174999475479126,0.002004399662837386,0.3239075541496277],"min":[1.1624999046325684,-0.05199999362230301,0.13655461370944977],"type":"VEC3"},{"bufferView":21,"componentType":5126,"count":4183,"type":"VEC3"},{"bufferView":22,"componentType":5126,"count":4183,"type":"VEC2"},{"bufferView":23,"componentType":5123,"count":12081,"type":"SCALAR"},{"bufferView":24,"componentType":5126,"count":1896,"max":[1.463393211364746,0.4035714268684387,0.3248075544834137],"min":[-1.476946473121643,-0.03999999165534973,0.3008626699447632],"type":"VEC3"},{"bufferView":25,"componentType":5126,"count":1896,"type":"VEC3"},{"bufferView":26,"componentType":5126,"count":1896,"type":"VEC2"},{"bufferView":27,"componentType":5123,"count":3696,"type":"SCALAR"}],"bufferViews":[{"buffer":0,"byteLength":5760,"byteOffset":0,"target":34962},{"buffer":0,"byteLength":5760,"byteOffset":5760,"target":34962},{"buffer":0,"byteLength":3840,"byteOffset":11520,"target":34962},{"buffer":0,"byteLength":1632,"byteOffset":15360,"target":34963},{"buffer":0,"byteLength":14748,"byteOffset":16992,"target":34962},{"buffer":0,"byteLength":14748,"byteOffset":31740,"target":34962},{"buffer":0,"byteLength":9832,"byteOffset":46488,"target":34962},{"buffer":0,"byteLength":3960,"byteOffset":56320,"target":34963},{"buffer":0,"byteLength":36036,"byteOffset":60280,"target":34962},{"buffer":0,"byteLength":36036,"byteOffset":96316,"target":34962},{"buffer":0,"byteLength":24024,"byteOffset":132352,"target":34962},{"buffer":0,"byteLength":8976,"byteOffset":156376,"target":34963},{"buffer":0,"byteLength":1704,"byteOffset":165352,"target":34962},{"buffer":0,"byteLength":1704,"byteOffset":167056,"target":34962},{"buffer":0,"byteLength":1136,"byteOffset":168760,"target":34962},{"buffer":0,"byteLength":408,"byteOffset":169896,"target":34963},{"buffer":0,"byteLength":50196,"byteOffset":170304,"target":34962},{"buffer":0,"byteLength":50196,"byteOffset":220500,"target":34962},{"buffer":0,"byteLength":33464,"byteOffset":270696,"target":34962},{"buffer":0,"byteLength":24162,"byteOffset":304160,"target":34963},{"buffer":0,"byteLength":50196,"byteOffset":328324,"target":34962},{"buffer":0,"byteLength":50196,"byteOffset":378520,"target":34962},{"buffer":0,"byteLength":33464,"byteOffset":428716,"target":34962},{"buffer":0,"byteLength":24162,"byteOffset":462180,"target":34963},{"buffer":0,"byteLength":22752,"byteOffset":486344,"target":34962},{"buffer":0,"byteLength":22752,"byteOffset":509096,"target":34962},{"buffer":0,"byteLength":15168,"byteOffset":531848,"target":34962},{"buffer":0,"byteLength":7392,"byteOffset":547016,"target":34963}],"samplers":[{"magFilter":9729,"minFilter":9987}],"buffers":[{"byteLength":554408,"uri":"cataclysm_rootvault_frame-lod0.bin"}]}