{"asset":{"generator":"Khronos glTF Blender I/O v4.5.51","version":"2.0"},"scene":0,"scenes":[{"name":"Scene","nodes":[0,1,2,3]}],"nodes":[{"mesh":0,"name":"cataclysm_forge_threshold LOD2 cataclysm_forge_threshold"},{"mesh":1,"name":"cataclysm_forge_threshold LOD2 cataclysm_forge_threshold roots "},{"mesh":2,"name":"cataclysm_forge_threshold LOD2 cataclysm_forge_threshold roots"},{"mesh":3,"name":"cataclysm_forge_threshold LOD2 cataclysm_forge_threshold root"}],"materials":[{"doubleSided":true,"name":"C6 stone","pbrMetallicRoughness":{"baseColorTexture":{"index":0},"metallicFactor":0,"roughnessFactor":0.9300000071525574}},{"doubleSided":true,"name":"C6 metal","pbrMetallicRoughness":{"baseColorTexture":{"index":1},"metallicFactor":0.5,"roughnessFactor":0.6800000071525574}},{"doubleSided":true,"name":"C6 old inert inlay","pbrMetallicRoughness":{"baseColorFactor":[0.23000000417232513,0.27000001072883606,0.24500000476837158,1],"metallicFactor":0,"roughnessFactor":0.5}},{"name":"Altered bark - scar mask authored in UV.001","pbrMetallicRoughness":{"baseColorTexture":{"index":2},"metallicRoughnessTexture":{"index":3}}}],"meshes":[{"name":"cataclysm_forge_threshold.004","primitives":[{"attributes":{"POSITION":0,"NORMAL":1,"TEXCOORD_0":2},"indices":3,"material":0},{"attributes":{"POSITION":4,"NORMAL":5,"TEXCOORD_0":6},"indices":7,"material":1},{"attributes":{"POSITION":8,"NORMAL":9,"TEXCOORD_0":10},"indices":11,"material":2}]},{"name":"Mesh_0.079","primitives":[{"attributes":{"POSITION":12,"NORMAL":13,"TEXCOORD_0":14},"indices":15,"material":3}]},{"name":"Mesh_0.081","primitives":[{"attributes":{"POSITION":16,"NORMAL":17,"TEXCOORD_0":18},"indices":19,"material":3}]},{"name":"Masonry-fitted branching roots.014","primitives":[{"attributes":{"POSITION":20,"NORMAL":21,"TEXCOORD_0":22},"indices":23,"material":3}]}],"textures":[{"sampler":0,"source":0},{"sampler":0,"source":1},{"sampler":0,"source":2},{"sampler":0,"source":3}],"images":[{"name":"stone","uri":"../textures/e2eb1d3a40c80901e60325eed8bf71951435da3fba9cc40873ea565520dc754f.png"},{"name":"metal","uri":"../textures/d31f9d6385c881d0ee43f82728ef74a92d80eac945acb7d7f31633064de68896.png"},{"name":"Image_0","uri":"../../b4/textures/b51994d07b5b3cb00ed6a55de910d77066abfa808c2d16811b5949096fe3abe1.png"},{"name":"Image_1","uri":"../../b4/textures/78ce5273206e9172785dca1f28e014d92fc0b6d0c528843dbd95d99b0df5774e.png"}],"accessors":[{"bufferView":0,"componentType":5126,"count":1809,"max":[1.7649999856948853,2.805082082748413,0.40997204184532166],"min":[-1.7649999856948853,-0.07000000774860382,-0.36997202038764954],"type":"VEC3"},{"bufferView":1,"componentType":5126,"count":1809,"type":"VEC3"},{"bufferView":2,"componentType":5126,"count":1809,"type":"VEC2"},{"bufferView":3,"componentType":5123,"count":3060,"type":"SCALAR"},{"bufferView":4,"componentType":5126,"count":6526,"max":[1.5911650657653809,2.765000104904175,0.5074999928474426],"min":[-1.6008501052856445,0.6539999842643738,0.35999998450279236],"type":"VEC3"},{"bufferView":5,"componentType":5126,"count":6526,"type":"VEC3"},{"bufferView":6,"componentType":5126,"count":6526,"type":"VEC2"},{"bufferView":7,"componentType":5123,"count":10404,"type":"SCALAR"},{"bufferView":8,"componentType":5126,"count":252,"max":[1.4417099952697754,2.231800079345703,0.4779999852180481],"min":[-1.3650299310684204,2.128200054168701,0.44999998807907104],"type":"VEC3"},{"bufferView":9,"componentType":5126,"count":252,"type":"VEC3"},{"bufferView":10,"componentType":5126,"count":252,"type":"VEC2"},{"bufferView":11,"componentType":5123,"count":408,"type":"SCALAR"},{"bufferView":12,"componentType":5126,"count":2642,"max":[-1.2791805267333984,0.024208569899201393,0.4150213599205017],"min":[-1.7180436849594116,-0.06289217621088028,0.3177598714828491],"type":"VEC3"},{"bufferView":13,"componentType":5126,"count":2642,"type":"VEC3"},{"bufferView":14,"componentType":5126,"count":2642,"type":"VEC2"},{"bufferView":15,"componentType":5123,"count":4950,"type":"SCALAR"},{"bufferView":16,"componentType":5126,"count":2642,"max":[1.7058193683624268,0.024208631366491318,0.4150213599205017],"min":[1.2669563293457031,-0.0628921166062355,0.3177598714828491],"type":"VEC3"},{"bufferView":17,"componentType":5126,"count":2642,"type":"VEC3"},{"bufferView":18,"componentType":5126,"count":2642,"type":"VEC2"},{"bufferView":19,"componentType":5123,"count":4950,"type":"SCALAR"},{"bufferView":20,"componentType":5126,"count":266,"max":[1.565893292427063,0.3885713815689087,0.3760000169277191],"min":[-1.57944655418396,-0.05500000715255737,0.34999990463256836],"type":"VEC3"},{"bufferView":21,"componentType":5126,"count":266,"type":"VEC3"},{"bufferView":22,"componentType":5126,"count":266,"type":"VEC2"},{"bufferView":23,"componentType":5123,"count":360,"type":"SCALAR"}],"bufferViews":[{"buffer":0,"byteLength":21708,"byteOffset":0,"target":34962},{"buffer":0,"byteLength":21708,"byteOffset":21708,"target":34962},{"buffer":0,"byteLength":14472,"byteOffset":43416,"target":34962},{"buffer":0,"byteLength":6120,"byteOffset":57888,"target":34963},{"buffer":0,"byteLength":78312,"byteOffset":64008,"target":34962},{"buffer":0,"byteLength":78312,"byteOffset":142320,"target":34962},{"buffer":0,"byteLength":52208,"byteOffset":220632,"target":34962},{"buffer":0,"byteLength":20808,"byteOffset":272840,"target":34963},{"buffer":0,"byteLength":3024,"byteOffset":293648,"target":34962},{"buffer":0,"byteLength":3024,"byteOffset":296672,"target":34962},{"buffer":0,"byteLength":2016,"byteOffset":299696,"target":34962},{"buffer":0,"byteLength":816,"byteOffset":301712,"target":34963},{"buffer":0,"byteLength":31704,"byteOffset":302528,"target":34962},{"buffer":0,"byteLength":31704,"byteOffset":334232,"target":34962},{"buffer":0,"byteLength":21136,"byteOffset":365936,"target":34962},{"buffer":0,"byteLength":9900,"byteOffset":387072,"target":34963},{"buffer":0,"byteLength":31704,"byteOffset":396972,"target":34962},{"buffer":0,"byteLength":31704,"byteOffset":428676,"target":34962},{"buffer":0,"byteLength":21136,"byteOffset":460380,"target":34962},{"buffer":0,"byteLength":9900,"byteOffset":481516,"target":34963},{"buffer":0,"byteLength":3192,"byteOffset":491416,"target":34962},{"buffer":0,"byteLength":3192,"byteOffset":494608,"target":34962},{"buffer":0,"byteLength":2128,"byteOffset":497800,"target":34962},{"buffer":0,"byteLength":720,"byteOffset":499928,"target":34963}],"samplers":[{"magFilter":9729,"minFilter":9987}],"buffers":[{"byteLength":500648,"uri":"cataclysm_forge_threshold-lod2.bin"}]}