{"asset":{"generator":"Khronos glTF Blender I/O v4.5.51","version":"2.0"},"scene":0,"scenes":[{"name":"Scene","nodes":[0]}],"nodes":[{"mesh":0,"name":"cataclysm_upland_paving LOD1 cataclysm_upland_paving"}],"materials":[{"doubleSided":true,"name":"C6 stone","pbrMetallicRoughness":{"baseColorTexture":{"index":0},"metallicFactor":0,"roughnessFactor":0.9300000071525574}}],"meshes":[{"name":"cataclysm_upland_paving.004","primitives":[{"attributes":{"POSITION":0,"NORMAL":1,"TEXCOORD_0":2},"indices":3,"material":0}]}],"textures":[{"sampler":0,"source":0}],"images":[{"name":"stone","uri":"../textures/e2eb1d3a40c80901e60325eed8bf71951435da3fba9cc40873ea565520dc754f.png"}],"accessors":[{"bufferView":0,"componentType":5126,"count":1198,"max":[1.3264250755310059,0.08100000023841858,0.6450749635696411],"min":[-1.4000000953674316,-0.020000001415610313,-0.8449509739875793],"type":"VEC3"},{"bufferView":1,"componentType":5126,"count":1198,"type":"VEC3"},{"bufferView":2,"componentType":5126,"count":1198,"type":"VEC2"},{"bufferView":3,"componentType":5123,"count":2040,"type":"SCALAR"}],"bufferViews":[{"buffer":0,"byteLength":14376,"byteOffset":0,"target":34962},{"buffer":0,"byteLength":14376,"byteOffset":14376,"target":34962},{"buffer":0,"byteLength":9584,"byteOffset":28752,"target":34962},{"buffer":0,"byteLength":4080,"byteOffset":38336,"target":34963}],"samplers":[{"magFilter":9729,"minFilter":9987}],"buffers":[{"byteLength":42416,"uri":"cataclysm_upland_paving-lod1.bin"}]}