{"asset":{"generator":"Khronos glTF Blender I/O v4.5.51","version":"2.0"},"scene":0,"scenes":[{"name":"Scene","nodes":[0]}],"nodes":[{"mesh":0,"name":"cataclysm_fen_roof LOD0 cataclysm_fen_roof"}],"materials":[{"doubleSided":true,"name":"C6 wood","pbrMetallicRoughness":{"baseColorTexture":{"index":0},"metallicFactor":0,"roughnessFactor":0.9300000071525574}}],"meshes":[{"name":"cataclysm_fen_roof.002","primitives":[{"attributes":{"POSITION":0,"NORMAL":1,"TEXCOORD_0":2},"indices":3,"material":0},{"attributes":{"POSITION":4,"NORMAL":5,"TEXCOORD_0":6},"indices":7,"material":0}]}],"textures":[{"sampler":0,"source":0}],"images":[{"name":"wood","uri":"../textures/050c7c36827bde63ec57101fc4a609c695ff554d8f3d21edeb423b750e80dbd8.png"}],"accessors":[{"bufferView":0,"componentType":5126,"count":361,"max":[1.2734441757202148,0.2948920428752899,0.8399999737739563],"min":[-1.2834441661834717,0.02510794997215271,-0.7599999904632568],"type":"VEC3"},{"bufferView":1,"componentType":5126,"count":361,"type":"VEC3"},{"bufferView":2,"componentType":5126,"count":361,"type":"VEC2"},{"bufferView":3,"componentType":5123,"count":612,"type":"SCALAR"},{"bufferView":4,"componentType":5126,"count":5026,"max":[1.342868685722351,0.4684999883174896,0.8243070244789124],"min":[-1.3118243217468262,0.0850970447063446,-0.9250468611717224],"type":"VEC3"},{"bufferView":5,"componentType":5126,"count":5026,"type":"VEC3"},{"bufferView":6,"componentType":5126,"count":5026,"type":"VEC2"},{"bufferView":7,"componentType":5123,"count":8364,"type":"SCALAR"}],"bufferViews":[{"buffer":0,"byteLength":4332,"byteOffset":0,"target":34962},{"buffer":0,"byteLength":4332,"byteOffset":4332,"target":34962},{"buffer":0,"byteLength":2888,"byteOffset":8664,"target":34962},{"buffer":0,"byteLength":1224,"byteOffset":11552,"target":34963},{"buffer":0,"byteLength":60312,"byteOffset":12776,"target":34962},{"buffer":0,"byteLength":60312,"byteOffset":73088,"target":34962},{"buffer":0,"byteLength":40208,"byteOffset":133400,"target":34962},{"buffer":0,"byteLength":16728,"byteOffset":173608,"target":34963}],"samplers":[{"magFilter":9729,"minFilter":9987}],"buffers":[{"byteLength":190336,"uri":"cataclysm_fen_roof-lod0.bin"}]}