{"asset":{"generator":"Khronos glTF Blender I/O v4.5.51","version":"2.0"},"scene":0,"scenes":[{"name":"Scene","nodes":[0]}],"nodes":[{"mesh":0,"name":"cataclysm_fen_cistern LOD2 cataclysm_fen_cistern"}],"materials":[{"doubleSided":true,"name":"C6 stone","pbrMetallicRoughness":{"baseColorTexture":{"index":0},"metallicFactor":0,"roughnessFactor":0.9300000071525574}},{"doubleSided":true,"name":"C6 metal","pbrMetallicRoughness":{"baseColorTexture":{"index":1},"metallicFactor":0.5,"roughnessFactor":0.6800000071525574}},{"doubleSided":true,"name":"C6 old inert inlay","pbrMetallicRoughness":{"baseColorFactor":[0.23000000417232513,0.27000001072883606,0.24500000476837158,1],"metallicFactor":0,"roughnessFactor":0.5}}],"meshes":[{"name":"cataclysm_fen_cistern.004","primitives":[{"attributes":{"POSITION":0,"NORMAL":1,"TEXCOORD_0":2},"indices":3,"material":0},{"attributes":{"POSITION":4,"NORMAL":5,"TEXCOORD_0":6},"indices":7,"material":1},{"attributes":{"POSITION":8,"NORMAL":9,"TEXCOORD_0":10},"indices":11,"material":2}]}],"textures":[{"sampler":0,"source":0},{"sampler":0,"source":1}],"images":[{"name":"stone","uri":"../textures/e2eb1d3a40c80901e60325eed8bf71951435da3fba9cc40873ea565520dc754f.png"},{"name":"metal","uri":"../textures/d31f9d6385c881d0ee43f82728ef74a92d80eac945acb7d7f31633064de68896.png"}],"accessors":[{"bufferView":0,"componentType":5126,"count":4505,"max":[1.5099999904632568,0.4625000059604645,1.137682318687439],"min":[-1.3152467012405396,-0.05000000074505806,-1.137682318687439],"type":"VEC3"},{"bufferView":1,"componentType":5126,"count":4505,"type":"VEC3"},{"bufferView":2,"componentType":5126,"count":4505,"type":"VEC2"},{"bufferView":3,"componentType":5123,"count":7548,"type":"SCALAR"},{"bufferView":4,"componentType":5126,"count":2955,"max":[-0.07462865114212036,0.5969449281692505,0.8494381308555603],"min":[-0.3826875388622284,0.14399999380111694,0.7658020853996277],"type":"VEC3"},{"bufferView":5,"componentType":5126,"count":2955,"type":"VEC3"},{"bufferView":6,"componentType":5126,"count":2955,"type":"VEC2"},{"bufferView":7,"componentType":5123,"count":4488,"type":"SCALAR"},{"bufferView":8,"componentType":5126,"count":132,"max":[-0.19035425782203674,0.5948000550270081,0.830340564250946],"min":[-0.20589609444141388,0.5651999711990356,0.8140329718589783],"type":"VEC3"},{"bufferView":9,"componentType":5126,"count":132,"type":"VEC3"},{"bufferView":10,"componentType":5126,"count":132,"type":"VEC2"},{"bufferView":11,"componentType":5123,"count":204,"type":"SCALAR"}],"bufferViews":[{"buffer":0,"byteLength":54060,"byteOffset":0,"target":34962},{"buffer":0,"byteLength":54060,"byteOffset":54060,"target":34962},{"buffer":0,"byteLength":36040,"byteOffset":108120,"target":34962},{"buffer":0,"byteLength":15096,"byteOffset":144160,"target":34963},{"buffer":0,"byteLength":35460,"byteOffset":159256,"target":34962},{"buffer":0,"byteLength":35460,"byteOffset":194716,"target":34962},{"buffer":0,"byteLength":23640,"byteOffset":230176,"target":34962},{"buffer":0,"byteLength":8976,"byteOffset":253816,"target":34963},{"buffer":0,"byteLength":1584,"byteOffset":262792,"target":34962},{"buffer":0,"byteLength":1584,"byteOffset":264376,"target":34962},{"buffer":0,"byteLength":1056,"byteOffset":265960,"target":34962},{"buffer":0,"byteLength":408,"byteOffset":267016,"target":34963}],"samplers":[{"magFilter":9729,"minFilter":9987}],"buffers":[{"byteLength":267424,"uri":"cataclysm_fen_cistern-lod2.bin"}]}