{"asset":{"generator":"Khronos glTF Blender I/O v4.5.51","version":"2.0"},"extensionsUsed":["KHR_materials_emissive_strength"],"scene":0,"scenes":[{"name":"Scene","nodes":[0,1,2,3]}],"nodes":[{"mesh":0,"name":"cataclysm_fen_wall_struck LOD2 cataclysm_fen_wall_struck"},{"mesh":1,"name":"cataclysm_fen_wall_struck LOD2 cataclysm_fen_wall roots 0 struc"},{"mesh":2,"name":"cataclysm_fen_wall_struck LOD2 cataclysm_fen_wall roots 1 struc"},{"mesh":3,"name":"cataclysm_fen_wall_struck LOD2 cataclysm_fen_wall roots attache"}],"materials":[{"doubleSided":true,"emissiveFactor":[0.6800000071525574,0.8799999952316284,1],"extensions":{"KHR_materials_emissive_strength":{"emissiveStrength":1.600000023841858}},"name":"C6 recessed scar","pbrMetallicRoughness":{"baseColorTexture":{"index":0},"metallicFactor":0,"roughnessFactor":0.9300000071525574}},{"doubleSided":true,"name":"C6 wood","pbrMetallicRoughness":{"baseColorTexture":{"index":1},"metallicFactor":0,"roughnessFactor":0.9300000071525574}},{"doubleSided":true,"name":"C6 metal","pbrMetallicRoughness":{"baseColorTexture":{"index":2},"metallicFactor":0.5,"roughnessFactor":0.6800000071525574}},{"doubleSided":true,"name":"C6 old inert inlay","pbrMetallicRoughness":{"baseColorFactor":[0.23000000417232513,0.27000001072883606,0.24500000476837158,1],"metallicFactor":0,"roughnessFactor":0.5}},{"name":"Altered bark - scar mask authored in UV.001","pbrMetallicRoughness":{"baseColorTexture":{"index":3},"metallicRoughnessTexture":{"index":4}}}],"meshes":[{"name":"cataclysm_fen_wall.009","primitives":[{"attributes":{"POSITION":0,"NORMAL":1,"TEXCOORD_0":2,"COLOR_0":3},"indices":4,"material":0},{"attributes":{"POSITION":5,"NORMAL":6,"TEXCOORD_0":7,"COLOR_0":8},"indices":9,"material":1},{"attributes":{"POSITION":10,"NORMAL":11,"TEXCOORD_0":12,"COLOR_0":13},"indices":14,"material":1},{"attributes":{"POSITION":15,"NORMAL":16,"TEXCOORD_0":17,"COLOR_0":18},"indices":19,"material":2},{"attributes":{"POSITION":20,"NORMAL":21,"TEXCOORD_0":22,"COLOR_0":23},"indices":24,"material":3}]},{"name":"Mesh_0.065","primitives":[{"attributes":{"POSITION":25,"NORMAL":26,"TEXCOORD_0":27},"indices":28,"material":4}]},{"name":"Mesh_0.067","primitives":[{"attributes":{"POSITION":29,"NORMAL":30,"TEXCOORD_0":31},"indices":32,"material":4}]},{"name":"Masonry-fitted branching roots.011","primitives":[{"attributes":{"POSITION":33,"NORMAL":34,"TEXCOORD_0":35},"indices":36,"material":4}]}],"textures":[{"sampler":0,"source":0},{"sampler":0,"source":1},{"sampler":0,"source":2},{"sampler":0,"source":3},{"sampler":0,"source":4}],"images":[{"name":"stone","uri":"../textures/e2eb1d3a40c80901e60325eed8bf71951435da3fba9cc40873ea565520dc754f.png"},{"name":"wood","uri":"../textures/050c7c36827bde63ec57101fc4a609c695ff554d8f3d21edeb423b750e80dbd8.png"},{"name":"metal","uri":"../textures/d31f9d6385c881d0ee43f82728ef74a92d80eac945acb7d7f31633064de68896.png"},{"name":"Image_0","uri":"../../b4/textures/b51994d07b5b3cb00ed6a55de910d77066abfa808c2d16811b5949096fe3abe1.png"},{"name":"Image_1","uri":"../../b4/textures/78ce5273206e9172785dca1f28e014d92fc0b6d0c528843dbd95d99b0df5774e.png"}],"accessors":[{"bufferView":0,"componentType":5126,"count":3534,"max":[1.3674999475479126,0.625,0.24413077533245087],"min":[-1.3674999475479126,-0.054999999701976776,-0.2350374460220337],"type":"VEC3"},{"bufferView":1,"componentType":5126,"count":3534,"type":"VEC3"},{"bufferView":2,"componentType":5126,"count":3534,"type":"VEC2"},{"bufferView":3,"componentType":5123,"count":3534,"normalized":true,"type":"VEC4"},{"bufferView":4,"componentType":5123,"count":4824,"type":"SCALAR"},{"bufferView":5,"componentType":5126,"count":362,"max":[1.3200048208236694,1.6525561809539795,0.09498976916074753],"min":[-1.3050049543380737,0.43744367361068726,-0.07498977333307266],"type":"VEC3"},{"bufferView":6,"componentType":5126,"count":362,"type":"VEC3"},{"bufferView":7,"componentType":5126,"count":362,"type":"VEC2"},{"bufferView":8,"componentType":5123,"count":362,"normalized":true,"type":"VEC4"},{"bufferView":9,"componentType":5123,"count":612,"type":"SCALAR"},{"bufferView":10,"componentType":5126,"count":5001,"max":[1.2200160026550293,1.4607521295547485,0.08399999141693115],"min":[-1.2300169467926025,0.5590333342552185,0.0015025660395622253],"type":"VEC3"},{"bufferView":11,"componentType":5126,"count":5001,"type":"VEC3"},{"bufferView":12,"componentType":5126,"count":5001,"type":"VEC2"},{"bufferView":13,"componentType":5123,"count":5001,"normalized":true,"type":"VEC4"},{"bufferView":14,"componentType":5123,"count":8169,"type":"SCALAR"},{"bufferView":15,"componentType":5126,"count":4022,"max":[0.15671518445014954,1.412535548210144,0.16637501120567322],"min":[-0.051737114787101746,0.6765000224113464,0.09063940495252609],"type":"VEC3"},{"bufferView":16,"componentType":5126,"count":4022,"type":"VEC3"},{"bufferView":17,"componentType":5126,"count":4022,"type":"VEC2"},{"bufferView":18,"componentType":5123,"count":4022,"normalized":true,"type":"VEC4"},{"bufferView":19,"componentType":5123,"count":5718,"type":"SCALAR"},{"bufferView":20,"componentType":5126,"count":124,"max":[0.0792199969291687,1.4090499877929688,0.14720000326633453],"min":[0.07053999602794647,1.360949993133545,0.1290000081062317],"type":"VEC3"},{"bufferView":21,"componentType":5126,"count":124,"type":"VEC3"},{"bufferView":22,"componentType":5126,"count":124,"type":"VEC2"},{"bufferView":23,"componentType":5123,"count":124,"normalized":true,"type":"VEC4"},{"bufferView":24,"componentType":5123,"count":204,"type":"SCALAR"},{"bufferView":25,"componentType":5126,"count":1075,"max":[-0.3478083312511444,0.11738942563533783,0.24413077533245087],"min":[-1.243630290031433,-0.04873120039701462,-0.12943127751350403],"type":"VEC3"},{"bufferView":26,"componentType":5126,"count":1075,"type":"VEC3"},{"bufferView":27,"componentType":5126,"count":1075,"type":"VEC2"},{"bufferView":28,"componentType":5123,"count":1980,"type":"SCALAR"},{"bufferView":29,"componentType":5126,"count":1024,"max":[1.2471916675567627,0.11738943308591843,0.24413077533245087],"min":[0.35136961936950684,-0.048731204122304916,-0.1266954243183136],"type":"VEC3"},{"bufferView":30,"componentType":5126,"count":1024,"type":"VEC3"},{"bufferView":31,"componentType":5126,"count":1024,"type":"VEC2"},{"bufferView":32,"componentType":5123,"count":1893,"type":"SCALAR"},{"bufferView":33,"componentType":5126,"count":583,"max":[1.1624999046325684,0.4000000059604645,0.24403077363967896],"min":[-1.0855000019073486,-0.04500000178813934,0.19991585612297058],"type":"VEC3"},{"bufferView":34,"componentType":5126,"count":583,"type":"VEC3"},{"bufferView":35,"componentType":5126,"count":583,"type":"VEC2"},{"bufferView":36,"componentType":5123,"count":768,"type":"SCALAR"}],"bufferViews":[{"buffer":0,"byteLength":42408,"byteOffset":0,"target":34962},{"buffer":0,"byteLength":42408,"byteOffset":42408,"target":34962},{"buffer":0,"byteLength":28272,"byteOffset":84816,"target":34962},{"buffer":0,"byteLength":28272,"byteOffset":113088,"target":34962},{"buffer":0,"byteLength":9648,"byteOffset":141360,"target":34963},{"buffer":0,"byteLength":4344,"byteOffset":151008,"target":34962},{"buffer":0,"byteLength":4344,"byteOffset":155352,"target":34962},{"buffer":0,"byteLength":2896,"byteOffset":159696,"target":34962},{"buffer":0,"byteLength":2896,"byteOffset":162592,"target":34962},{"buffer":0,"byteLength":1224,"byteOffset":165488,"target":34963},{"buffer":0,"byteLength":60012,"byteOffset":166712,"target":34962},{"buffer":0,"byteLength":60012,"byteOffset":226724,"target":34962},{"buffer":0,"byteLength":40008,"byteOffset":286736,"target":34962},{"buffer":0,"byteLength":40008,"byteOffset":326744,"target":34962},{"buffer":0,"byteLength":16338,"byteOffset":366752,"target":34963},{"buffer":0,"byteLength":48264,"byteOffset":383092,"target":34962},{"buffer":0,"byteLength":48264,"byteOffset":431356,"target":34962},{"buffer":0,"byteLength":32176,"byteOffset":479620,"target":34962},{"buffer":0,"byteLength":32176,"byteOffset":511796,"target":34962},{"buffer":0,"byteLength":11436,"byteOffset":543972,"target":34963},{"buffer":0,"byteLength":1488,"byteOffset":555408,"target":34962},{"buffer":0,"byteLength":1488,"byteOffset":556896,"target":34962},{"buffer":0,"byteLength":992,"byteOffset":558384,"target":34962},{"buffer":0,"byteLength":992,"byteOffset":559376,"target":34962},{"buffer":0,"byteLength":408,"byteOffset":560368,"target":34963},{"buffer":0,"byteLength":12900,"byteOffset":560776,"target":34962},{"buffer":0,"byteLength":12900,"byteOffset":573676,"target":34962},{"buffer":0,"byteLength":8600,"byteOffset":586576,"target":34962},{"buffer":0,"byteLength":3960,"byteOffset":595176,"target":34963},{"buffer":0,"byteLength":12288,"byteOffset":599136,"target":34962},{"buffer":0,"byteLength":12288,"byteOffset":611424,"target":34962},{"buffer":0,"byteLength":8192,"byteOffset":623712,"target":34962},{"buffer":0,"byteLength":3786,"byteOffset":631904,"target":34963},{"buffer":0,"byteLength":6996,"byteOffset":635692,"target":34962},{"buffer":0,"byteLength":6996,"byteOffset":642688,"target":34962},{"buffer":0,"byteLength":4664,"byteOffset":649684,"target":34962},{"buffer":0,"byteLength":1536,"byteOffset":654348,"target":34963}],"samplers":[{"magFilter":9729,"minFilter":9987}],"buffers":[{"byteLength":655884,"uri":"cataclysm_fen_wall_struck-lod2.bin"}]}