{"asset":{"generator":"Khronos glTF Blender I/O v4.5.51","version":"2.0"},"scene":0,"scenes":[{"name":"Scene","nodes":[0,1,2,3]}],"nodes":[{"mesh":0,"name":"cataclysm_fen_wall LOD2 cataclysm_fen_wall"},{"mesh":1,"name":"cataclysm_fen_wall LOD2 cataclysm_fen_wall roots 0"},{"mesh":2,"name":"cataclysm_fen_wall LOD2 cataclysm_fen_wall roots 1"},{"mesh":3,"name":"cataclysm_fen_wall LOD2 cataclysm_fen_wall roots attached"}],"materials":[{"doubleSided":true,"name":"C6 stone","pbrMetallicRoughness":{"baseColorTexture":{"index":0},"metallicFactor":0,"roughnessFactor":0.9300000071525574}},{"doubleSided":true,"name":"C6 wood","pbrMetallicRoughness":{"baseColorTexture":{"index":1},"metallicFactor":0,"roughnessFactor":0.9300000071525574}},{"doubleSided":true,"name":"C6 metal","pbrMetallicRoughness":{"baseColorTexture":{"index":2},"metallicFactor":0.5,"roughnessFactor":0.6800000071525574}},{"doubleSided":true,"name":"C6 old inert inlay","pbrMetallicRoughness":{"baseColorFactor":[0.23000000417232513,0.27000001072883606,0.24500000476837158,1],"metallicFactor":0,"roughnessFactor":0.5}},{"name":"Altered bark - scar mask authored in UV.001","pbrMetallicRoughness":{"baseColorTexture":{"index":3},"metallicRoughnessTexture":{"index":4}}}],"meshes":[{"name":"cataclysm_fen_wall.006","primitives":[{"attributes":{"POSITION":0,"NORMAL":1,"TEXCOORD_0":2},"indices":3,"material":0},{"attributes":{"POSITION":4,"NORMAL":5,"TEXCOORD_0":6},"indices":7,"material":1},{"attributes":{"POSITION":8,"NORMAL":9,"TEXCOORD_0":10},"indices":11,"material":1},{"attributes":{"POSITION":12,"NORMAL":13,"TEXCOORD_0":14},"indices":15,"material":2},{"attributes":{"POSITION":16,"NORMAL":17,"TEXCOORD_0":18},"indices":19,"material":3}]},{"name":"Mesh_0.046","primitives":[{"attributes":{"POSITION":20,"NORMAL":21,"TEXCOORD_0":22},"indices":23,"material":4}]},{"name":"Mesh_0.048","primitives":[{"attributes":{"POSITION":24,"NORMAL":25,"TEXCOORD_0":26},"indices":27,"material":4}]},{"name":"Masonry-fitted branching roots.008","primitives":[{"attributes":{"POSITION":28,"NORMAL":29,"TEXCOORD_0":30},"indices":31,"material":4}]}],"textures":[{"sampler":0,"source":0},{"sampler":0,"source":1},{"sampler":0,"source":2},{"sampler":0,"source":3},{"sampler":0,"source":4}],"images":[{"name":"stone","uri":"../textures/e2eb1d3a40c80901e60325eed8bf71951435da3fba9cc40873ea565520dc754f.png"},{"name":"wood","uri":"../textures/050c7c36827bde63ec57101fc4a609c695ff554d8f3d21edeb423b750e80dbd8.png"},{"name":"metal","uri":"../textures/d31f9d6385c881d0ee43f82728ef74a92d80eac945acb7d7f31633064de68896.png"},{"name":"Image_0","uri":"../../b4/textures/b51994d07b5b3cb00ed6a55de910d77066abfa808c2d16811b5949096fe3abe1.png"},{"name":"Image_1","uri":"../../b4/textures/78ce5273206e9172785dca1f28e014d92fc0b6d0c528843dbd95d99b0df5774e.png"}],"accessors":[{"bufferView":0,"componentType":5126,"count":1440,"max":[1.3674999475479126,0.625,0.24413077533245087],"min":[-1.3674999475479126,-0.054999999701976776,-0.2350374460220337],"type":"VEC3"},{"bufferView":1,"componentType":5126,"count":1440,"type":"VEC3"},{"bufferView":2,"componentType":5126,"count":1440,"type":"VEC2"},{"bufferView":3,"componentType":5123,"count":2448,"type":"SCALAR"},{"bufferView":4,"componentType":5126,"count":364,"max":[1.3200048208236694,1.6525561809539795,0.09498976916074753],"min":[-1.3050049543380737,0.43744367361068726,-0.07498977333307266],"type":"VEC3"},{"bufferView":5,"componentType":5126,"count":364,"type":"VEC3"},{"bufferView":6,"componentType":5126,"count":364,"type":"VEC2"},{"bufferView":7,"componentType":5123,"count":612,"type":"SCALAR"},{"bufferView":8,"componentType":5126,"count":5003,"max":[1.2200160026550293,1.4607521295547485,0.08399999141693115],"min":[-1.2300169467926025,0.5590333342552185,0.0015025660395622253],"type":"VEC3"},{"bufferView":9,"componentType":5126,"count":5003,"type":"VEC3"},{"bufferView":10,"componentType":5126,"count":5003,"type":"VEC2"},{"bufferView":11,"componentType":5123,"count":8160,"type":"SCALAR"},{"bufferView":12,"componentType":5126,"count":2837,"max":[0.15671518445014954,1.412535548210144,0.16637501120567322],"min":[-0.051737114787101746,0.6765000224113464,0.09065000712871552],"type":"VEC3"},{"bufferView":13,"componentType":5126,"count":2837,"type":"VEC3"},{"bufferView":14,"componentType":5126,"count":2837,"type":"VEC2"},{"bufferView":15,"componentType":5123,"count":4488,"type":"SCALAR"},{"bufferView":16,"componentType":5126,"count":124,"max":[0.0792199969291687,1.4090499877929688,0.14720000326633453],"min":[0.07053999602794647,1.360949993133545,0.1290000081062317],"type":"VEC3"},{"bufferView":17,"componentType":5126,"count":124,"type":"VEC3"},{"bufferView":18,"componentType":5126,"count":124,"type":"VEC2"},{"bufferView":19,"componentType":5123,"count":204,"type":"SCALAR"},{"bufferView":20,"componentType":5126,"count":1075,"max":[-0.3478083312511444,0.11738942563533783,0.24413077533245087],"min":[-1.243630290031433,-0.04873120039701462,-0.12943127751350403],"type":"VEC3"},{"bufferView":21,"componentType":5126,"count":1075,"type":"VEC3"},{"bufferView":22,"componentType":5126,"count":1075,"type":"VEC2"},{"bufferView":23,"componentType":5123,"count":1980,"type":"SCALAR"},{"bufferView":24,"componentType":5126,"count":1024,"max":[1.2471916675567627,0.11738943308591843,0.24413077533245087],"min":[0.35136961936950684,-0.048731204122304916,-0.1266954243183136],"type":"VEC3"},{"bufferView":25,"componentType":5126,"count":1024,"type":"VEC3"},{"bufferView":26,"componentType":5126,"count":1024,"type":"VEC2"},{"bufferView":27,"componentType":5123,"count":1893,"type":"SCALAR"},{"bufferView":28,"componentType":5126,"count":583,"max":[1.1624999046325684,0.4000000059604645,0.24403077363967896],"min":[-1.0855000019073486,-0.04500000178813934,0.19991585612297058],"type":"VEC3"},{"bufferView":29,"componentType":5126,"count":583,"type":"VEC3"},{"bufferView":30,"componentType":5126,"count":583,"type":"VEC2"},{"bufferView":31,"componentType":5123,"count":768,"type":"SCALAR"}],"bufferViews":[{"buffer":0,"byteLength":17280,"byteOffset":0,"target":34962},{"buffer":0,"byteLength":17280,"byteOffset":17280,"target":34962},{"buffer":0,"byteLength":11520,"byteOffset":34560,"target":34962},{"buffer":0,"byteLength":4896,"byteOffset":46080,"target":34963},{"buffer":0,"byteLength":4368,"byteOffset":50976,"target":34962},{"buffer":0,"byteLength":4368,"byteOffset":55344,"target":34962},{"buffer":0,"byteLength":2912,"byteOffset":59712,"target":34962},{"buffer":0,"byteLength":1224,"byteOffset":62624,"target":34963},{"buffer":0,"byteLength":60036,"byteOffset":63848,"target":34962},{"buffer":0,"byteLength":60036,"byteOffset":123884,"target":34962},{"buffer":0,"byteLength":40024,"byteOffset":183920,"target":34962},{"buffer":0,"byteLength":16320,"byteOffset":223944,"target":34963},{"buffer":0,"byteLength":34044,"byteOffset":240264,"target":34962},{"buffer":0,"byteLength":34044,"byteOffset":274308,"target":34962},{"buffer":0,"byteLength":22696,"byteOffset":308352,"target":34962},{"buffer":0,"byteLength":8976,"byteOffset":331048,"target":34963},{"buffer":0,"byteLength":1488,"byteOffset":340024,"target":34962},{"buffer":0,"byteLength":1488,"byteOffset":341512,"target":34962},{"buffer":0,"byteLength":992,"byteOffset":343000,"target":34962},{"buffer":0,"byteLength":408,"byteOffset":343992,"target":34963},{"buffer":0,"byteLength":12900,"byteOffset":344400,"target":34962},{"buffer":0,"byteLength":12900,"byteOffset":357300,"target":34962},{"buffer":0,"byteLength":8600,"byteOffset":370200,"target":34962},{"buffer":0,"byteLength":3960,"byteOffset":378800,"target":34963},{"buffer":0,"byteLength":12288,"byteOffset":382760,"target":34962},{"buffer":0,"byteLength":12288,"byteOffset":395048,"target":34962},{"buffer":0,"byteLength":8192,"byteOffset":407336,"target":34962},{"buffer":0,"byteLength":3786,"byteOffset":415528,"target":34963},{"buffer":0,"byteLength":6996,"byteOffset":419316,"target":34962},{"buffer":0,"byteLength":6996,"byteOffset":426312,"target":34962},{"buffer":0,"byteLength":4664,"byteOffset":433308,"target":34962},{"buffer":0,"byteLength":1536,"byteOffset":437972,"target":34963}],"samplers":[{"magFilter":9729,"minFilter":9987}],"buffers":[{"byteLength":439508,"uri":"cataclysm_fen_wall-lod2.bin"}]}