{"asset":{"generator":"Khronos glTF Blender I/O v4.5.51","version":"2.0"},"scene":0,"scenes":[{"name":"Scene","nodes":[0]}],"nodes":[{"mesh":0,"name":"cataclysm_rootvault_roof LOD0 cataclysm_rootvault_roof"}],"materials":[{"doubleSided":true,"name":"C6 wood","pbrMetallicRoughness":{"baseColorTexture":{"index":0},"metallicFactor":0,"roughnessFactor":0.9300000071525574}}],"meshes":[{"name":"cataclysm_rootvault_roof.002","primitives":[{"attributes":{"POSITION":0,"NORMAL":1,"TEXCOORD_0":2},"indices":3,"material":0}]}],"textures":[{"sampler":0,"source":0}],"images":[{"name":"wood","uri":"../textures/050c7c36827bde63ec57101fc4a609c695ff554d8f3d21edeb423b750e80dbd8.png"}],"accessors":[{"bufferView":0,"componentType":5126,"count":1463,"max":[1.402768850326538,0.5884312987327576,0.9801464676856995],"min":[-1.3789517879486084,-0.028781414031982422,-1.0674999952316284],"type":"VEC3"},{"bufferView":1,"componentType":5126,"count":1463,"type":"VEC3"},{"bufferView":2,"componentType":5126,"count":1463,"type":"VEC2"},{"bufferView":3,"componentType":5123,"count":2448,"type":"SCALAR"}],"bufferViews":[{"buffer":0,"byteLength":17556,"byteOffset":0,"target":34962},{"buffer":0,"byteLength":17556,"byteOffset":17556,"target":34962},{"buffer":0,"byteLength":11704,"byteOffset":35112,"target":34962},{"buffer":0,"byteLength":4896,"byteOffset":46816,"target":34963}],"samplers":[{"magFilter":9729,"minFilter":9987}],"buffers":[{"byteLength":51712,"uri":"cataclysm_rootvault_roof-lod0.bin"}]}