{"asset":{"generator":"Khronos glTF Blender I/O v4.5.51","version":"2.0"},"scene":0,"scenes":[{"name":"Scene","nodes":[0]}],"nodes":[{"mesh":0,"name":"cataclysm_upland_shelter LOD2 cataclysm_upland_shelter"}],"materials":[{"doubleSided":true,"name":"C6 stone","pbrMetallicRoughness":{"baseColorTexture":{"index":0},"metallicFactor":0,"roughnessFactor":0.9300000071525574}},{"doubleSided":true,"name":"C6 metal","pbrMetallicRoughness":{"baseColorTexture":{"index":1},"metallicFactor":0.5,"roughnessFactor":0.6800000071525574}},{"doubleSided":true,"name":"C6 old inert inlay","pbrMetallicRoughness":{"baseColorFactor":[0.23000000417232513,0.27000001072883606,0.24500000476837158,1],"metallicFactor":0,"roughnessFactor":0.5}}],"meshes":[{"name":"cataclysm_upland_shelter.004","primitives":[{"attributes":{"POSITION":0,"NORMAL":1,"TEXCOORD_0":2},"indices":3,"material":0},{"attributes":{"POSITION":4,"NORMAL":5,"TEXCOORD_0":6},"indices":7,"material":1},{"attributes":{"POSITION":8,"NORMAL":9,"TEXCOORD_0":10},"indices":11,"material":2}]}],"textures":[{"sampler":0,"source":0},{"sampler":0,"source":1}],"images":[{"name":"stone","uri":"../textures/e2eb1d3a40c80901e60325eed8bf71951435da3fba9cc40873ea565520dc754f.png"},{"name":"metal","uri":"../textures/d31f9d6385c881d0ee43f82728ef74a92d80eac945acb7d7f31633064de68896.png"}],"accessors":[{"bufferView":0,"componentType":5126,"count":2158,"max":[1.5875000953674316,2.389807939529419,0.42213231325149536],"min":[-1.5774999856948853,-0.054999999701976776,-0.5821322798728943],"type":"VEC3"},{"bufferView":1,"componentType":5126,"count":2158,"type":"VEC3"},{"bufferView":2,"componentType":5126,"count":2158,"type":"VEC2"},{"bufferView":3,"componentType":5123,"count":3672,"type":"SCALAR"},{"bufferView":4,"componentType":5126,"count":2873,"max":[-1.1892234086990356,1.742362380027771,0.49812498688697815],"min":[-1.4572334289550781,0.6100000143051147,0.41075000166893005],"type":"VEC3"},{"bufferView":5,"componentType":5126,"count":2873,"type":"VEC3"},{"bufferView":6,"componentType":5126,"count":2873,"type":"VEC2"},{"bufferView":7,"componentType":5123,"count":4488,"type":"SCALAR"},{"bufferView":8,"componentType":5126,"count":124,"max":[-1.2888600826263428,1.7370001077651978,0.47600001096725464],"min":[-1.3000200986862183,1.6629999876022339,0.45499998331069946],"type":"VEC3"},{"bufferView":9,"componentType":5126,"count":124,"type":"VEC3"},{"bufferView":10,"componentType":5126,"count":124,"type":"VEC2"},{"bufferView":11,"componentType":5123,"count":204,"type":"SCALAR"}],"bufferViews":[{"buffer":0,"byteLength":25896,"byteOffset":0,"target":34962},{"buffer":0,"byteLength":25896,"byteOffset":25896,"target":34962},{"buffer":0,"byteLength":17264,"byteOffset":51792,"target":34962},{"buffer":0,"byteLength":7344,"byteOffset":69056,"target":34963},{"buffer":0,"byteLength":34476,"byteOffset":76400,"target":34962},{"buffer":0,"byteLength":34476,"byteOffset":110876,"target":34962},{"buffer":0,"byteLength":22984,"byteOffset":145352,"target":34962},{"buffer":0,"byteLength":8976,"byteOffset":168336,"target":34963},{"buffer":0,"byteLength":1488,"byteOffset":177312,"target":34962},{"buffer":0,"byteLength":1488,"byteOffset":178800,"target":34962},{"buffer":0,"byteLength":992,"byteOffset":180288,"target":34962},{"buffer":0,"byteLength":408,"byteOffset":181280,"target":34963}],"samplers":[{"magFilter":9729,"minFilter":9987}],"buffers":[{"byteLength":181688,"uri":"cataclysm_upland_shelter-lod2.bin"}]}