{"asset":{"generator":"Khronos glTF Blender I/O v4.5.51","version":"2.0"},"scene":0,"scenes":[{"name":"Scene","nodes":[0]}],"nodes":[{"mesh":0,"name":"cataclysm_fen_roof LOD2 cataclysm_fen_roof"}],"materials":[{"doubleSided":true,"name":"C6 wood","pbrMetallicRoughness":{"baseColorTexture":{"index":0},"metallicFactor":0,"roughnessFactor":0.9300000071525574}}],"meshes":[{"name":"cataclysm_fen_roof.004","primitives":[{"attributes":{"POSITION":0,"NORMAL":1,"TEXCOORD_0":2},"indices":3,"material":0},{"attributes":{"POSITION":4,"NORMAL":5,"TEXCOORD_0":6},"indices":7,"material":0}]}],"textures":[{"sampler":0,"source":0}],"images":[{"name":"wood","uri":"../textures/050c7c36827bde63ec57101fc4a609c695ff554d8f3d21edeb423b750e80dbd8.png"}],"accessors":[{"bufferView":0,"componentType":5126,"count":359,"max":[1.2734441757202148,0.2948920428752899,0.8399999737739563],"min":[-1.2834441661834717,0.02510794997215271,-0.7599999904632568],"type":"VEC3"},{"bufferView":1,"componentType":5126,"count":359,"type":"VEC3"},{"bufferView":2,"componentType":5126,"count":359,"type":"VEC2"},{"bufferView":3,"componentType":5123,"count":612,"type":"SCALAR"},{"bufferView":4,"componentType":5126,"count":5006,"max":[1.342868685722351,0.4684999883174896,0.8243070244789124],"min":[-1.3118243217468262,0.0850970447063446,-0.9250468611717224],"type":"VEC3"},{"bufferView":5,"componentType":5126,"count":5006,"type":"VEC3"},{"bufferView":6,"componentType":5126,"count":5006,"type":"VEC2"},{"bufferView":7,"componentType":5123,"count":8364,"type":"SCALAR"}],"bufferViews":[{"buffer":0,"byteLength":4308,"byteOffset":0,"target":34962},{"buffer":0,"byteLength":4308,"byteOffset":4308,"target":34962},{"buffer":0,"byteLength":2872,"byteOffset":8616,"target":34962},{"buffer":0,"byteLength":1224,"byteOffset":11488,"target":34963},{"buffer":0,"byteLength":60072,"byteOffset":12712,"target":34962},{"buffer":0,"byteLength":60072,"byteOffset":72784,"target":34962},{"buffer":0,"byteLength":40048,"byteOffset":132856,"target":34962},{"buffer":0,"byteLength":16728,"byteOffset":172904,"target":34963}],"samplers":[{"magFilter":9729,"minFilter":9987}],"buffers":[{"byteLength":189632,"uri":"cataclysm_fen_roof-lod2.bin"}]}