{"asset":{"generator":"Khronos glTF Blender I/O v4.5.51","version":"2.0"},"scene":0,"scenes":[{"name":"Scene","nodes":[0,1,2,3]}],"nodes":[{"mesh":0,"name":"cataclysm_rootvault_wall LOD1 cataclysm_rootvault_wall"},{"mesh":1,"name":"cataclysm_rootvault_wall LOD1 cataclysm_rootvault_wall roots 0"},{"mesh":2,"name":"cataclysm_rootvault_wall LOD1 cataclysm_rootvault_wall roots 1"},{"mesh":3,"name":"cataclysm_rootvault_wall LOD1 cataclysm_rootvault_wall roots at"}],"materials":[{"doubleSided":true,"name":"C6 stone","pbrMetallicRoughness":{"baseColorTexture":{"index":0},"metallicFactor":0,"roughnessFactor":0.9300000071525574}},{"doubleSided":true,"name":"C6 wood","pbrMetallicRoughness":{"baseColorTexture":{"index":1},"metallicFactor":0,"roughnessFactor":0.9300000071525574}},{"doubleSided":true,"name":"C6 metal","pbrMetallicRoughness":{"baseColorTexture":{"index":2},"metallicFactor":0.5,"roughnessFactor":0.6800000071525574}},{"doubleSided":true,"name":"C6 old inert inlay","pbrMetallicRoughness":{"baseColorFactor":[0.23000000417232513,0.27000001072883606,0.24500000476837158,1],"metallicFactor":0,"roughnessFactor":0.5}},{"name":"Altered bark - scar mask authored in UV.001","pbrMetallicRoughness":{"baseColorTexture":{"index":3},"metallicRoughnessTexture":{"index":4}}}],"meshes":[{"name":"cataclysm_rootvault_wall.003","primitives":[{"attributes":{"POSITION":0,"NORMAL":1,"TEXCOORD_0":2},"indices":3,"material":0},{"attributes":{"POSITION":4,"NORMAL":5,"TEXCOORD_0":6},"indices":7,"material":1},{"attributes":{"POSITION":8,"NORMAL":9,"TEXCOORD_0":10},"indices":11,"material":2},{"attributes":{"POSITION":12,"NORMAL":13,"TEXCOORD_0":14},"indices":15,"material":3}]},{"name":"Mesh_0.117","primitives":[{"attributes":{"POSITION":16,"NORMAL":17,"TEXCOORD_0":18},"indices":19,"material":4}]},{"name":"Mesh_0.119","primitives":[{"attributes":{"POSITION":20,"NORMAL":21,"TEXCOORD_0":22},"indices":23,"material":4}]},{"name":"Masonry-fitted branching roots.019","primitives":[{"attributes":{"POSITION":24,"NORMAL":25,"TEXCOORD_0":26},"indices":27,"material":4}]}],"textures":[{"sampler":0,"source":0},{"sampler":0,"source":1},{"sampler":0,"source":2},{"sampler":0,"source":3},{"sampler":0,"source":4}],"images":[{"name":"stone","uri":"../textures/e2eb1d3a40c80901e60325eed8bf71951435da3fba9cc40873ea565520dc754f.png"},{"name":"wood","uri":"../textures/050c7c36827bde63ec57101fc4a609c695ff554d8f3d21edeb423b750e80dbd8.png"},{"name":"metal","uri":"../textures/d31f9d6385c881d0ee43f82728ef74a92d80eac945acb7d7f31633064de68896.png"},{"name":"Image_0","uri":"../../b4/textures/b51994d07b5b3cb00ed6a55de910d77066abfa808c2d16811b5949096fe3abe1.png"},{"name":"Image_1","uri":"../../b4/textures/78ce5273206e9172785dca1f28e014d92fc0b6d0c528843dbd95d99b0df5774e.png"}],"accessors":[{"bufferView":0,"componentType":5126,"count":960,"max":[1.462499976158142,0.5649999976158142,0.26204973459243774],"min":[-1.462499976158142,-0.05499999225139618,-0.2669387459754944],"type":"VEC3"},{"bufferView":1,"componentType":5126,"count":960,"type":"VEC3"},{"bufferView":2,"componentType":5126,"count":960,"type":"VEC2"},{"bufferView":3,"componentType":5123,"count":1632,"type":"SCALAR"},{"bufferView":4,"componentType":5126,"count":1545,"max":[1.4050703048706055,2.254512310028076,0.22999998927116394],"min":[-1.395033359527588,0.47345679998397827,-0.14496298134326935],"type":"VEC3"},{"bufferView":5,"componentType":5126,"count":1545,"type":"VEC3"},{"bufferView":6,"componentType":5126,"count":1545,"type":"VEC2"},{"bufferView":7,"componentType":5123,"count":2532,"type":"SCALAR"},{"bufferView":8,"componentType":5126,"count":2828,"max":[-0.7874271869659424,1.5196536779403687,0.22224999964237213],"min":[-1.1001056432724,0.7269999980926514,0.14069999754428864],"type":"VEC3"},{"bufferView":9,"componentType":5126,"count":2828,"type":"VEC3"},{"bufferView":10,"componentType":5126,"count":2828,"type":"VEC2"},{"bufferView":11,"componentType":5123,"count":4488,"type":"SCALAR"},{"bufferView":12,"componentType":5126,"count":122,"max":[-0.9036700129508972,1.5159001350402832,0.20160000026226044],"min":[-0.9166899919509888,1.4641000032424927,0.18199999630451202],"type":"VEC3"},{"bufferView":13,"componentType":5126,"count":122,"type":"VEC3"},{"bufferView":14,"componentType":5126,"count":122,"type":"VEC2"},{"bufferView":15,"componentType":5123,"count":204,"type":"SCALAR"},{"bufferView":16,"componentType":5126,"count":1983,"max":[-0.44258490204811096,0.11741747707128525,0.26101139187812805],"min":[-1.343200922012329,-0.050330162048339844,-0.1095384806394577],"type":"VEC3"},{"bufferView":17,"componentType":5126,"count":1983,"type":"VEC3"},{"bufferView":18,"componentType":5126,"count":1983,"type":"VEC2"},{"bufferView":19,"componentType":5123,"count":4488,"type":"SCALAR"},{"bufferView":20,"componentType":5126,"count":2039,"max":[1.3424149751663208,0.11741747707128525,0.2610114514827728],"min":[0.4417990446090698,-0.05033014714717865,-0.1095384806394577],"type":"VEC3"},{"bufferView":21,"componentType":5126,"count":2039,"type":"VEC3"},{"bufferView":22,"componentType":5126,"count":2039,"type":"VEC2"},{"bufferView":23,"componentType":5123,"count":4599,"type":"SCALAR"},{"bufferView":24,"componentType":5126,"count":799,"max":[1.2574999332427979,0.40000003576278687,0.261949747800827],"min":[-1.1805000305175781,-0.044999994337558746,0.22940239310264587],"type":"VEC3"},{"bufferView":25,"componentType":5126,"count":799,"type":"VEC3"},{"bufferView":26,"componentType":5126,"count":799,"type":"VEC2"},{"bufferView":27,"componentType":5123,"count":1026,"type":"SCALAR"}],"bufferViews":[{"buffer":0,"byteLength":11520,"byteOffset":0,"target":34962},{"buffer":0,"byteLength":11520,"byteOffset":11520,"target":34962},{"buffer":0,"byteLength":7680,"byteOffset":23040,"target":34962},{"buffer":0,"byteLength":3264,"byteOffset":30720,"target":34963},{"buffer":0,"byteLength":18540,"byteOffset":33984,"target":34962},{"buffer":0,"byteLength":18540,"byteOffset":52524,"target":34962},{"buffer":0,"byteLength":12360,"byteOffset":71064,"target":34962},{"buffer":0,"byteLength":5064,"byteOffset":83424,"target":34963},{"buffer":0,"byteLength":33936,"byteOffset":88488,"target":34962},{"buffer":0,"byteLength":33936,"byteOffset":122424,"target":34962},{"buffer":0,"byteLength":22624,"byteOffset":156360,"target":34962},{"buffer":0,"byteLength":8976,"byteOffset":178984,"target":34963},{"buffer":0,"byteLength":1464,"byteOffset":187960,"target":34962},{"buffer":0,"byteLength":1464,"byteOffset":189424,"target":34962},{"buffer":0,"byteLength":976,"byteOffset":190888,"target":34962},{"buffer":0,"byteLength":408,"byteOffset":191864,"target":34963},{"buffer":0,"byteLength":23796,"byteOffset":192272,"target":34962},{"buffer":0,"byteLength":23796,"byteOffset":216068,"target":34962},{"buffer":0,"byteLength":15864,"byteOffset":239864,"target":34962},{"buffer":0,"byteLength":8976,"byteOffset":255728,"target":34963},{"buffer":0,"byteLength":24468,"byteOffset":264704,"target":34962},{"buffer":0,"byteLength":24468,"byteOffset":289172,"target":34962},{"buffer":0,"byteLength":16312,"byteOffset":313640,"target":34962},{"buffer":0,"byteLength":9198,"byteOffset":329952,"target":34963},{"buffer":0,"byteLength":9588,"byteOffset":339152,"target":34962},{"buffer":0,"byteLength":9588,"byteOffset":348740,"target":34962},{"buffer":0,"byteLength":6392,"byteOffset":358328,"target":34962},{"buffer":0,"byteLength":2052,"byteOffset":364720,"target":34963}],"samplers":[{"magFilter":9729,"minFilter":9987}],"buffers":[{"byteLength":366772,"uri":"cataclysm_rootvault_wall-lod1.bin"}]}