{"asset":{"generator":"Khronos glTF Blender I/O v4.5.51","version":"2.0"},"scene":0,"scenes":[{"name":"Scene","nodes":[0,1,2,3]}],"nodes":[{"mesh":0,"name":"cataclysm_upland_wall LOD1 cataclysm_upland_wall"},{"mesh":1,"name":"cataclysm_upland_wall LOD1 cataclysm_upland_wall roots 0"},{"mesh":2,"name":"cataclysm_upland_wall LOD1 cataclysm_upland_wall roots 1"},{"mesh":3,"name":"cataclysm_upland_wall LOD1 cataclysm_upland_wall roots attached"}],"materials":[{"doubleSided":true,"name":"C6 stone","pbrMetallicRoughness":{"baseColorTexture":{"index":0},"metallicFactor":0,"roughnessFactor":0.9300000071525574}},{"doubleSided":true,"name":"C6 metal","pbrMetallicRoughness":{"baseColorTexture":{"index":1},"metallicFactor":0.5,"roughnessFactor":0.6800000071525574}},{"doubleSided":true,"name":"C6 old inert inlay","pbrMetallicRoughness":{"baseColorFactor":[0.23000000417232513,0.27000001072883606,0.24500000476837158,1],"metallicFactor":0,"roughnessFactor":0.5}},{"name":"Altered bark - scar mask authored in UV.001","pbrMetallicRoughness":{"baseColorTexture":{"index":2},"metallicRoughnessTexture":{"index":3}}}],"meshes":[{"name":"cataclysm_upland_wall.003","primitives":[{"attributes":{"POSITION":0,"NORMAL":1,"TEXCOORD_0":2},"indices":3,"material":0},{"attributes":{"POSITION":4,"NORMAL":5,"TEXCOORD_0":6},"indices":7,"material":1},{"attributes":{"POSITION":8,"NORMAL":9,"TEXCOORD_0":10},"indices":11,"material":2}]},{"name":"Mesh_0.129","primitives":[{"attributes":{"POSITION":12,"NORMAL":13,"TEXCOORD_0":14},"indices":15,"material":3}]},{"name":"Mesh_0.131","primitives":[{"attributes":{"POSITION":16,"NORMAL":17,"TEXCOORD_0":18},"indices":19,"material":3}]},{"name":"Masonry-fitted branching roots.022","primitives":[{"attributes":{"POSITION":20,"NORMAL":21,"TEXCOORD_0":22},"indices":23,"material":3}]}],"textures":[{"sampler":0,"source":0},{"sampler":0,"source":1},{"sampler":0,"source":2},{"sampler":0,"source":3}],"images":[{"name":"stone","uri":"../textures/e2eb1d3a40c80901e60325eed8bf71951435da3fba9cc40873ea565520dc754f.png"},{"name":"metal","uri":"../textures/d31f9d6385c881d0ee43f82728ef74a92d80eac945acb7d7f31633064de68896.png"},{"name":"Image_0","uri":"../../b4/textures/b51994d07b5b3cb00ed6a55de910d77066abfa808c2d16811b5949096fe3abe1.png"},{"name":"Image_1","uri":"../../b4/textures/78ce5273206e9172785dca1f28e014d92fc0b6d0c528843dbd95d99b0df5774e.png"}],"accessors":[{"bufferView":0,"componentType":5126,"count":2640,"max":[1.5715327262878418,1.5099999904632568,0.3656426668167114],"min":[-1.4815326929092407,-0.05499999225139618,-0.3256426453590393],"type":"VEC3"},{"bufferView":1,"componentType":5126,"count":2640,"type":"VEC3"},{"bufferView":2,"componentType":5126,"count":2640,"type":"VEC2"},{"bufferView":3,"componentType":5123,"count":4488,"type":"SCALAR"},{"bufferView":4,"componentType":5126,"count":2888,"max":[-0.9683656692504883,1.3010079860687256,0.414124995470047],"min":[-1.340601921081543,0.3384999930858612,0.3267500102519989],"type":"VEC3"},{"bufferView":5,"componentType":5126,"count":2888,"type":"VEC3"},{"bufferView":6,"componentType":5126,"count":2888,"type":"VEC2"},{"bufferView":7,"componentType":5123,"count":4488,"type":"SCALAR"},{"bufferView":8,"componentType":5126,"count":130,"max":[-1.1067500114440918,1.296450138092041,0.3920000195503235],"min":[-1.122249960899353,1.233549952507019,0.3709999918937683],"type":"VEC3"},{"bufferView":9,"componentType":5126,"count":130,"type":"VEC3"},{"bufferView":10,"componentType":5126,"count":130,"type":"VEC2"},{"bufferView":11,"componentType":5123,"count":204,"type":"SCALAR"},{"bufferView":12,"componentType":5126,"count":1883,"max":[-0.4616176187992096,0.11741746962070465,0.3471558690071106],"min":[-1.3622336387634277,-0.05033015459775925,0.04253677651286125],"type":"VEC3"},{"bufferView":13,"componentType":5126,"count":1883,"type":"VEC3"},{"bufferView":14,"componentType":5126,"count":1883,"type":"VEC2"},{"bufferView":15,"componentType":5123,"count":4350,"type":"SCALAR"},{"bufferView":16,"componentType":5126,"count":1712,"max":[1.45144784450531,0.11735928803682327,0.34849226474761963],"min":[0.5508318543434143,-0.05033014714717865,0.04253677651286125],"type":"VEC3"},{"bufferView":17,"componentType":5126,"count":1712,"type":"VEC3"},{"bufferView":18,"componentType":5126,"count":1712,"type":"VEC2"},{"bufferView":19,"componentType":5123,"count":3612,"type":"SCALAR"},{"bufferView":20,"componentType":5126,"count":602,"max":[1.3665326833724976,0.40000003576278687,0.3123795688152313],"min":[-1.1995327472686768,-0.044999994337558746,0.2763795852661133],"type":"VEC3"},{"bufferView":21,"componentType":5126,"count":602,"type":"VEC3"},{"bufferView":22,"componentType":5126,"count":602,"type":"VEC2"},{"bufferView":23,"componentType":5123,"count":828,"type":"SCALAR"}],"bufferViews":[{"buffer":0,"byteLength":31680,"byteOffset":0,"target":34962},{"buffer":0,"byteLength":31680,"byteOffset":31680,"target":34962},{"buffer":0,"byteLength":21120,"byteOffset":63360,"target":34962},{"buffer":0,"byteLength":8976,"byteOffset":84480,"target":34963},{"buffer":0,"byteLength":34656,"byteOffset":93456,"target":34962},{"buffer":0,"byteLength":34656,"byteOffset":128112,"target":34962},{"buffer":0,"byteLength":23104,"byteOffset":162768,"target":34962},{"buffer":0,"byteLength":8976,"byteOffset":185872,"target":34963},{"buffer":0,"byteLength":1560,"byteOffset":194848,"target":34962},{"buffer":0,"byteLength":1560,"byteOffset":196408,"target":34962},{"buffer":0,"byteLength":1040,"byteOffset":197968,"target":34962},{"buffer":0,"byteLength":408,"byteOffset":199008,"target":34963},{"buffer":0,"byteLength":22596,"byteOffset":199416,"target":34962},{"buffer":0,"byteLength":22596,"byteOffset":222012,"target":34962},{"buffer":0,"byteLength":15064,"byteOffset":244608,"target":34962},{"buffer":0,"byteLength":8700,"byteOffset":259672,"target":34963},{"buffer":0,"byteLength":20544,"byteOffset":268372,"target":34962},{"buffer":0,"byteLength":20544,"byteOffset":288916,"target":34962},{"buffer":0,"byteLength":13696,"byteOffset":309460,"target":34962},{"buffer":0,"byteLength":7224,"byteOffset":323156,"target":34963},{"buffer":0,"byteLength":7224,"byteOffset":330380,"target":34962},{"buffer":0,"byteLength":7224,"byteOffset":337604,"target":34962},{"buffer":0,"byteLength":4816,"byteOffset":344828,"target":34962},{"buffer":0,"byteLength":1656,"byteOffset":349644,"target":34963}],"samplers":[{"magFilter":9729,"minFilter":9987}],"buffers":[{"byteLength":351300,"uri":"cataclysm_upland_wall-lod1.bin"}]}