{"asset":{"generator":"Khronos glTF Blender I/O v4.5.51","version":"2.0"},"scene":0,"scenes":[{"name":"Scene","nodes":[0]}],"nodes":[{"mesh":0,"name":"lf_clamp LOD0 lf_clamp"}],"materials":[{"doubleSided":true,"name":"C6 metal","pbrMetallicRoughness":{"baseColorTexture":{"index":0},"metallicFactor":0.5,"roughnessFactor":0.6800000071525574}}],"meshes":[{"name":"Cube.014","primitives":[{"attributes":{"POSITION":0,"NORMAL":1,"TEXCOORD_0":2},"indices":3,"material":0}]}],"textures":[{"sampler":0,"source":0}],"images":[{"name":"metal","uri":"../textures/d31f9d6385c881d0ee43f82728ef74a92d80eac945acb7d7f31633064de68896.png"}],"accessors":[{"bufferView":0,"componentType":5126,"count":264,"max":[0.375,0.05999999865889549,0.17000000178813934],"min":[-0.375,-0.05999999865889549,-0.17000000178813934],"type":"VEC3"},{"bufferView":1,"componentType":5126,"count":264,"type":"VEC3"},{"bufferView":2,"componentType":5126,"count":264,"type":"VEC2"},{"bufferView":3,"componentType":5123,"count":324,"type":"SCALAR"}],"bufferViews":[{"buffer":0,"byteLength":3168,"byteOffset":0,"target":34962},{"buffer":0,"byteLength":3168,"byteOffset":3168,"target":34962},{"buffer":0,"byteLength":2112,"byteOffset":6336,"target":34962},{"buffer":0,"byteLength":648,"byteOffset":8448,"target":34963}],"samplers":[{"magFilter":9729,"minFilter":9987}],"buffers":[{"byteLength":9096,"uri":"lf_clamp-lod0.bin"}]}