{"asset":{"generator":"Khronos glTF Blender I/O v4.5.51","version":"2.0"},"scene":0,"scenes":[{"name":"Scene","nodes":[0]}],"nodes":[{"mesh":0,"name":"lf_stamp LOD2 lf_stamp"}],"materials":[{"doubleSided":true,"name":"C6 stone","pbrMetallicRoughness":{"baseColorTexture":{"index":0},"metallicFactor":0,"roughnessFactor":0.9300000071525574}}],"meshes":[{"name":"Cube.019","primitives":[{"attributes":{"POSITION":0,"NORMAL":1,"TEXCOORD_0":2},"indices":3,"material":0}]}],"textures":[{"sampler":0,"source":0}],"images":[{"name":"stone","uri":"../textures/e2eb1d3a40c80901e60325eed8bf71951435da3fba9cc40873ea565520dc754f.png"}],"accessors":[{"bufferView":0,"componentType":5126,"count":264,"max":[0.03500000014901161,0.15000000596046448,0.125],"min":[-0.03500000014901161,-0.15000000596046448,-0.125],"type":"VEC3"},{"bufferView":1,"componentType":5126,"count":264,"type":"VEC3"},{"bufferView":2,"componentType":5126,"count":264,"type":"VEC2"},{"bufferView":3,"componentType":5123,"count":324,"type":"SCALAR"}],"bufferViews":[{"buffer":0,"byteLength":3168,"byteOffset":0,"target":34962},{"buffer":0,"byteLength":3168,"byteOffset":3168,"target":34962},{"buffer":0,"byteLength":2112,"byteOffset":6336,"target":34962},{"buffer":0,"byteLength":648,"byteOffset":8448,"target":34963}],"samplers":[{"magFilter":9729,"minFilter":9987}],"buffers":[{"byteLength":9096,"uri":"lf_stamp-lod2.bin"}]}