{"asset":{"generator":"Khronos glTF Blender I/O v4.5.51","version":"2.0"},"scene":0,"scenes":[{"name":"Scene","nodes":[0,1]}],"nodes":[{"mesh":0,"name":"trail_transition LOD2 trail_transition"},{"mesh":1,"name":"trail_transition LOD2 trail_transition litter"}],"materials":[{"doubleSided":true,"name":"C6 stone","pbrMetallicRoughness":{"baseColorTexture":{"index":0},"metallicFactor":0,"roughnessFactor":0.9300000071525574}},{"doubleSided":true,"name":"C6 soil","pbrMetallicRoughness":{"baseColorTexture":{"index":1},"metallicFactor":0,"roughnessFactor":0.9300000071525574}},{"doubleSided":true,"name":"C6 old leaf litter","pbrMetallicRoughness":{"baseColorFactor":[0.17000000178813934,0.10499999672174454,0.035999998450279236,1],"metallicFactor":0,"roughnessFactor":0.949999988079071}}],"meshes":[{"name":"cataclysm_upland_paving.008","primitives":[{"attributes":{"POSITION":0,"NORMAL":1,"TEXCOORD_0":2},"indices":3,"material":0},{"attributes":{"POSITION":4,"NORMAL":5,"TEXCOORD_0":6},"indices":7,"material":1}]},{"name":"Attached paper-thin litter.003","primitives":[{"attributes":{"POSITION":8,"NORMAL":9},"indices":10,"material":2}]}],"textures":[{"sampler":0,"source":0},{"sampler":0,"source":1}],"images":[{"name":"stone","uri":"../textures/e2eb1d3a40c80901e60325eed8bf71951435da3fba9cc40873ea565520dc754f.png"},{"name":"soil","uri":"../textures/c40b86e331542c342a78802290ed910bcdf5f7b3afebe298553de32ebd002f0f.png"}],"accessors":[{"bufferView":0,"componentType":5126,"count":1109,"max":[1.3264250755310059,0.08100000023841858,0.6450749635696411],"min":[-1.4000000953674316,-0.020000001415610313,-0.8449509739875793],"type":"VEC3"},{"bufferView":1,"componentType":5126,"count":1109,"type":"VEC3"},{"bufferView":2,"componentType":5126,"count":1109,"type":"VEC2"},{"bufferView":3,"componentType":5123,"count":1845,"type":"SCALAR"},{"bufferView":4,"componentType":5126,"count":139,"max":[1.3254749774932861,0.08100000023841858,0.6447582244873047],"min":[-1.4000000953674316,0.050200000405311584,-0.8394255638122559],"type":"VEC3"},{"bufferView":5,"componentType":5126,"count":139,"type":"VEC3"},{"bufferView":6,"componentType":5126,"count":139,"type":"VEC2"},{"bufferView":7,"componentType":5123,"count":195,"type":"SCALAR"},{"bufferView":8,"componentType":5126,"count":324,"max":[1.2517040967941284,0.0728001743555069,0.5987664461135864],"min":[-1.3127529621124268,0.07079993188381195,-0.7741783857345581],"type":"VEC3"},{"bufferView":9,"componentType":5126,"count":324,"type":"VEC3"},{"bufferView":10,"componentType":5123,"count":324,"type":"SCALAR"}],"bufferViews":[{"buffer":0,"byteLength":13308,"byteOffset":0,"target":34962},{"buffer":0,"byteLength":13308,"byteOffset":13308,"target":34962},{"buffer":0,"byteLength":8872,"byteOffset":26616,"target":34962},{"buffer":0,"byteLength":3690,"byteOffset":35488,"target":34963},{"buffer":0,"byteLength":1668,"byteOffset":39180,"target":34962},{"buffer":0,"byteLength":1668,"byteOffset":40848,"target":34962},{"buffer":0,"byteLength":1112,"byteOffset":42516,"target":34962},{"buffer":0,"byteLength":390,"byteOffset":43628,"target":34963},{"buffer":0,"byteLength":3888,"byteOffset":44020,"target":34962},{"buffer":0,"byteLength":3888,"byteOffset":47908,"target":34962},{"buffer":0,"byteLength":648,"byteOffset":51796,"target":34963}],"samplers":[{"magFilter":9729,"minFilter":9987}],"buffers":[{"byteLength":52444,"uri":"trail_transition-lod2.bin"}]}