{"asset":{"generator":"Khronos glTF Blender I/O v4.5.51","version":"2.0"},"scene":0,"scenes":[{"name":"Scene","nodes":[0]}],"nodes":[{"mesh":0,"name":"workbench LOD2 workbench"}],"materials":[{"doubleSided":true,"name":"C6 wood","pbrMetallicRoughness":{"baseColorTexture":{"index":0},"metallicFactor":0,"roughnessFactor":0.9300000071525574}},{"doubleSided":true,"name":"C6 metal","pbrMetallicRoughness":{"baseColorTexture":{"index":1},"metallicFactor":0.5,"roughnessFactor":0.6800000071525574}}],"meshes":[{"name":"Cube.010","primitives":[{"attributes":{"POSITION":0,"NORMAL":1,"TEXCOORD_0":2},"indices":3,"material":0},{"attributes":{"POSITION":4,"NORMAL":5,"TEXCOORD_0":6},"indices":7,"material":1},{"attributes":{"POSITION":8,"NORMAL":9,"TEXCOORD_0":10},"indices":11,"material":0}]}],"textures":[{"sampler":0,"source":0},{"sampler":0,"source":1}],"images":[{"name":"wood","uri":"../textures/050c7c36827bde63ec57101fc4a609c695ff554d8f3d21edeb423b750e80dbd8.png"},{"name":"metal","uri":"../textures/d31f9d6385c881d0ee43f82728ef74a92d80eac945acb7d7f31633064de68896.png"}],"accessors":[{"bufferView":0,"componentType":5126,"count":1152,"max":[0.4100000262260437,1.0450000762939453,0.3999999761581421],"min":[-0.4099999964237213,0,-0.3999999761581421],"type":"VEC3"},{"bufferView":1,"componentType":5126,"count":1152,"type":"VEC3"},{"bufferView":2,"componentType":5126,"count":1152,"type":"VEC2"},{"bufferView":3,"componentType":5123,"count":1584,"type":"SCALAR"},{"bufferView":4,"componentType":5126,"count":376,"max":[0.3309999704360962,1.0525000095367432,0.4710000157356262],"min":[-0.3310000002384186,0.6490000486373901,-0.24400001764297485],"type":"VEC3"},{"bufferView":5,"componentType":5126,"count":376,"type":"VEC3"},{"bufferView":6,"componentType":5126,"count":376,"type":"VEC2"},{"bufferView":7,"componentType":5123,"count":636,"type":"SCALAR"},{"bufferView":8,"componentType":5126,"count":576,"max":[0.4699999690055847,1.0199999809265137,0.4569999575614929],"min":[-0.4699999988079071,0.7699999809265137,-0.4570000171661377],"type":"VEC3"},{"bufferView":9,"componentType":5126,"count":576,"type":"VEC3"},{"bufferView":10,"componentType":5126,"count":576,"type":"VEC2"},{"bufferView":11,"componentType":5123,"count":792,"type":"SCALAR"}],"bufferViews":[{"buffer":0,"byteLength":13824,"byteOffset":0,"target":34962},{"buffer":0,"byteLength":13824,"byteOffset":13824,"target":34962},{"buffer":0,"byteLength":9216,"byteOffset":27648,"target":34962},{"buffer":0,"byteLength":3168,"byteOffset":36864,"target":34963},{"buffer":0,"byteLength":4512,"byteOffset":40032,"target":34962},{"buffer":0,"byteLength":4512,"byteOffset":44544,"target":34962},{"buffer":0,"byteLength":3008,"byteOffset":49056,"target":34962},{"buffer":0,"byteLength":1272,"byteOffset":52064,"target":34963},{"buffer":0,"byteLength":6912,"byteOffset":53336,"target":34962},{"buffer":0,"byteLength":6912,"byteOffset":60248,"target":34962},{"buffer":0,"byteLength":4608,"byteOffset":67160,"target":34962},{"buffer":0,"byteLength":1584,"byteOffset":71768,"target":34963}],"samplers":[{"magFilter":9729,"minFilter":9987}],"buffers":[{"byteLength":73352,"uri":"workbench-lod2.bin"}]}