{"asset":{"generator":"Khronos glTF Blender I/O v4.5.51","version":"2.0"},"scene":0,"scenes":[{"name":"Scene","nodes":[0]}],"nodes":[{"mesh":0,"name":"ash-a-lod2"}],"materials":[{"name":"Material_0","pbrMetallicRoughness":{"baseColorTexture":{"index":0},"metallicRoughnessTexture":{"index":1}}}],"meshes":[{"name":"Mesh_0.018","primitives":[{"attributes":{"POSITION":0,"NORMAL":1,"TEXCOORD_0":2},"indices":3,"material":0}]}],"textures":[{"sampler":0,"source":0},{"sampler":0,"source":1}],"images":[{"name":"Image_0","uri":"../textures/f968be85946942bf1b839b8e5f19421ef85256e0d8cd19d5fc2241a7cac2206c.png"},{"name":"Image_1","uri":"../textures/a2ac211bea614b210a985f776eea92651f573ec5039065cfd0abab1fd4567cc2.png"}],"accessors":[{"bufferView":0,"componentType":5126,"count":5527,"max":[0.485569030046463,4.195047855377197,0.32353582978248596],"min":[-0.791835606098175,0,-1.072633147239685],"type":"VEC3"},{"bufferView":1,"componentType":5126,"count":5527,"type":"VEC3"},{"bufferView":2,"componentType":5126,"count":5527,"type":"VEC2"},{"bufferView":3,"componentType":5123,"count":10014,"type":"SCALAR"}],"bufferViews":[{"buffer":0,"byteLength":66324,"byteOffset":0,"target":34962},{"buffer":0,"byteLength":66324,"byteOffset":66324,"target":34962},{"buffer":0,"byteLength":44216,"byteOffset":132648,"target":34962},{"buffer":0,"byteLength":20028,"byteOffset":176864,"target":34963}],"samplers":[{"magFilter":9729,"minFilter":9987}],"buffers":[{"byteLength":196892,"uri":"ash-a-lod2.bin"}]}