{"asset":{"generator":"Khronos glTF Blender I/O v4.5.51","version":"2.0"},"scene":0,"scenes":[{"name":"Scene","nodes":[0]}],"nodes":[{"mesh":0,"name":"ash-stump-lod2"}],"materials":[{"name":"Material_0","pbrMetallicRoughness":{"baseColorTexture":{"index":0},"metallicRoughnessTexture":{"index":1}}},{"doubleSided":true,"name":"Pale broken end grain","pbrMetallicRoughness":{"baseColorFactor":[0.36000001430511475,0.28999999165534973,0.20000000298023224,1],"metallicFactor":0,"roughnessFactor":0.8999999761581421}}],"meshes":[{"name":"Mesh_0.022","primitives":[{"attributes":{"POSITION":0,"NORMAL":1,"TEXCOORD_0":2},"indices":3,"material":0},{"attributes":{"POSITION":4,"NORMAL":5,"TEXCOORD_0":6},"indices":7,"material":1}]}],"textures":[{"sampler":0,"source":0},{"sampler":0,"source":1}],"images":[{"name":"Image_0","uri":"../textures/f968be85946942bf1b839b8e5f19421ef85256e0d8cd19d5fc2241a7cac2206c.png"},{"name":"Image_1","uri":"../textures/a2ac211bea614b210a985f776eea92651f573ec5039065cfd0abab1fd4567cc2.png"}],"accessors":[{"bufferView":0,"componentType":5126,"count":672,"max":[0.19340504705905914,0.42000001668930054,0.2175179421901703],"min":[-0.1981905996799469,0,-0.23052877187728882],"type":"VEC3"},{"bufferView":1,"componentType":5126,"count":672,"type":"VEC3"},{"bufferView":2,"componentType":5126,"count":672,"type":"VEC2"},{"bufferView":3,"componentType":5123,"count":1149,"type":"SCALAR"},{"bufferView":4,"componentType":5126,"count":88,"max":[0.18278853595256805,0.42000001668930054,0.11086990684270859],"min":[-0.1546483337879181,0.41999995708465576,-0.22267714142799377],"type":"VEC3"},{"bufferView":5,"componentType":5126,"count":88,"type":"VEC3"},{"bufferView":6,"componentType":5126,"count":88,"type":"VEC2"},{"bufferView":7,"componentType":5123,"count":252,"type":"SCALAR"}],"bufferViews":[{"buffer":0,"byteLength":8064,"byteOffset":0,"target":34962},{"buffer":0,"byteLength":8064,"byteOffset":8064,"target":34962},{"buffer":0,"byteLength":5376,"byteOffset":16128,"target":34962},{"buffer":0,"byteLength":2298,"byteOffset":21504,"target":34963},{"buffer":0,"byteLength":1056,"byteOffset":23804,"target":34962},{"buffer":0,"byteLength":1056,"byteOffset":24860,"target":34962},{"buffer":0,"byteLength":704,"byteOffset":25916,"target":34962},{"buffer":0,"byteLength":504,"byteOffset":26620,"target":34963}],"samplers":[{"magFilter":9729,"minFilter":9987}],"buffers":[{"byteLength":27124,"uri":"ash-stump-lod2.bin"}]}