{"asset":{"generator":"Khronos glTF Blender I/O v4.5.51","version":"2.0"},"scene":0,"scenes":[{"name":"Scene","nodes":[0]}],"nodes":[{"mesh":0,"name":"copper_vein-u4-cracked-lod0"}],"materials":[{"name":"copper_vein mineral host","pbrMetallicRoughness":{"baseColorFactor":[1,1,1,1],"metallicFactor":0,"roughnessFactor":1}},{"name":"copper_vein cut interior","pbrMetallicRoughness":{"baseColorFactor":[1,1,1,1],"metallicFactor":0,"roughnessFactor":1}}],"meshes":[{"name":"Mesh_0.201","primitives":[{"attributes":{"POSITION":0,"NORMAL":1,"TEXCOORD_0":2,"COLOR_0":3},"indices":4,"material":0},{"attributes":{"POSITION":5,"NORMAL":6,"TEXCOORD_0":7,"COLOR_0":8},"indices":9,"material":1}]}],"accessors":[{"bufferView":0,"componentType":5126,"count":2986,"max":[0.00020127635798417032,0.4371379017829895,0.35855403542518616],"min":[-1.2401853799819946,0,-0.384361207485199],"type":"VEC3"},{"bufferView":1,"componentType":5126,"count":2986,"type":"VEC3"},{"bufferView":2,"componentType":5126,"count":2986,"type":"VEC2"},{"bufferView":3,"componentType":5123,"count":2986,"normalized":true,"type":"VEC4"},{"bufferView":4,"componentType":5123,"count":17514,"type":"SCALAR"},{"bufferView":5,"componentType":5126,"count":142,"max":[0.00020127635798417032,0.4371379017829895,0.33783021569252014],"min":[-1.106323003768921,0,-0.3606542944908142],"type":"VEC3"},{"bufferView":6,"componentType":5126,"count":142,"type":"VEC3"},{"bufferView":7,"componentType":5126,"count":142,"type":"VEC2"},{"bufferView":8,"componentType":5123,"count":142,"normalized":true,"type":"VEC4"},{"bufferView":9,"componentType":5123,"count":408,"type":"SCALAR"}],"bufferViews":[{"buffer":0,"byteLength":35832,"byteOffset":0,"target":34962},{"buffer":0,"byteLength":35832,"byteOffset":35832,"target":34962},{"buffer":0,"byteLength":23888,"byteOffset":71664,"target":34962},{"buffer":0,"byteLength":23888,"byteOffset":95552,"target":34962},{"buffer":0,"byteLength":35028,"byteOffset":119440,"target":34963},{"buffer":0,"byteLength":1704,"byteOffset":154468,"target":34962},{"buffer":0,"byteLength":1704,"byteOffset":156172,"target":34962},{"buffer":0,"byteLength":1136,"byteOffset":157876,"target":34962},{"buffer":0,"byteLength":1136,"byteOffset":159012,"target":34962},{"buffer":0,"byteLength":816,"byteOffset":160148,"target":34963}],"buffers":[{"byteLength":160964,"uri":"copper_vein-u4-cracked-lod0.bin"}]}