{"asset":{"generator":"Khronos glTF Blender I/O v4.5.51","version":"2.0"},"scene":0,"scenes":[{"name":"Scene","nodes":[0]}],"nodes":[{"mesh":0,"name":"copper_vein-u8-cold-lod0"}],"materials":[{"name":"copper_vein mineral host","pbrMetallicRoughness":{"baseColorFactor":[1,1,1,1],"metallicFactor":0,"roughnessFactor":1}},{"name":"copper_vein cut interior","pbrMetallicRoughness":{"baseColorFactor":[1,1,1,1],"metallicFactor":0,"roughnessFactor":1}}],"meshes":[{"name":"Mesh_0.153","primitives":[{"attributes":{"POSITION":0,"NORMAL":1,"TEXCOORD_0":2,"COLOR_0":3},"indices":4,"material":0},{"attributes":{"POSITION":5,"NORMAL":6,"TEXCOORD_0":7,"COLOR_0":8},"indices":9,"material":1}]}],"accessors":[{"bufferView":0,"componentType":5126,"count":2980,"max":[1.2478480339050293,0.48843082785606384,0.3885178864002228],"min":[-1.2376817464828491,0,-0.3893433213233948],"type":"VEC3"},{"bufferView":1,"componentType":5126,"count":2980,"type":"VEC3"},{"bufferView":2,"componentType":5126,"count":2980,"type":"VEC2"},{"bufferView":3,"componentType":5123,"count":2980,"normalized":true,"type":"VEC4"},{"bufferView":4,"componentType":5123,"count":17673,"type":"SCALAR"},{"bufferView":5,"componentType":5126,"count":88,"max":[0.9767675995826721,0.012289317324757576,0.35606953501701355],"min":[-1.1094508171081543,0,0.09958907216787338],"type":"VEC3"},{"bufferView":6,"componentType":5126,"count":88,"type":"VEC3"},{"bufferView":7,"componentType":5126,"count":88,"type":"VEC2"},{"bufferView":8,"componentType":5123,"count":88,"normalized":true,"type":"VEC4"},{"bufferView":9,"componentType":5123,"count":249,"type":"SCALAR"}],"bufferViews":[{"buffer":0,"byteLength":35760,"byteOffset":0,"target":34962},{"buffer":0,"byteLength":35760,"byteOffset":35760,"target":34962},{"buffer":0,"byteLength":23840,"byteOffset":71520,"target":34962},{"buffer":0,"byteLength":23840,"byteOffset":95360,"target":34962},{"buffer":0,"byteLength":35346,"byteOffset":119200,"target":34963},{"buffer":0,"byteLength":1056,"byteOffset":154548,"target":34962},{"buffer":0,"byteLength":1056,"byteOffset":155604,"target":34962},{"buffer":0,"byteLength":704,"byteOffset":156660,"target":34962},{"buffer":0,"byteLength":704,"byteOffset":157364,"target":34962},{"buffer":0,"byteLength":498,"byteOffset":158068,"target":34963}],"buffers":[{"byteLength":158566,"uri":"copper_vein-u8-cold-lod0.bin"}]}