{"asset":{"generator":"Khronos glTF Blender I/O v4.5.51","version":"2.0"},"scene":0,"scenes":[{"name":"Scene","nodes":[0]}],"nodes":[{"mesh":0,"name":"copper_vein-u2-cracked-lod0"}],"materials":[{"name":"copper_vein mineral host","pbrMetallicRoughness":{"baseColorFactor":[1,1,1,1],"metallicFactor":0,"roughnessFactor":1}},{"name":"copper_vein cut interior","pbrMetallicRoughness":{"baseColorFactor":[1,1,1,1],"metallicFactor":0,"roughnessFactor":1}}],"meshes":[{"name":"Mesh_0.204","primitives":[{"attributes":{"POSITION":0,"NORMAL":1,"TEXCOORD_0":2,"COLOR_0":3},"indices":4,"material":0},{"attributes":{"POSITION":5,"NORMAL":6,"TEXCOORD_0":7,"COLOR_0":8},"indices":9,"material":1}]}],"accessors":[{"bufferView":0,"componentType":5126,"count":2991,"max":[-0.6098599433898926,0.2653716206550598,0.2856801152229309],"min":[-1.2401853799819946,0,-0.3077632784843445],"type":"VEC3"},{"bufferView":1,"componentType":5126,"count":2991,"type":"VEC3"},{"bufferView":2,"componentType":5126,"count":2991,"type":"VEC2"},{"bufferView":3,"componentType":5123,"count":2991,"normalized":true,"type":"VEC4"},{"bufferView":4,"componentType":5123,"count":17478,"type":"SCALAR"},{"bufferView":5,"componentType":5126,"count":157,"max":[-0.6098599433898926,0.2653716206550598,0.2856801152229309],"min":[-1.1015855073928833,0,-0.3077632784843445],"type":"VEC3"},{"bufferView":6,"componentType":5126,"count":157,"type":"VEC3"},{"bufferView":7,"componentType":5126,"count":157,"type":"VEC2"},{"bufferView":8,"componentType":5123,"count":157,"normalized":true,"type":"VEC4"},{"bufferView":9,"componentType":5123,"count":450,"type":"SCALAR"}],"bufferViews":[{"buffer":0,"byteLength":35892,"byteOffset":0,"target":34962},{"buffer":0,"byteLength":35892,"byteOffset":35892,"target":34962},{"buffer":0,"byteLength":23928,"byteOffset":71784,"target":34962},{"buffer":0,"byteLength":23928,"byteOffset":95712,"target":34962},{"buffer":0,"byteLength":34956,"byteOffset":119640,"target":34963},{"buffer":0,"byteLength":1884,"byteOffset":154596,"target":34962},{"buffer":0,"byteLength":1884,"byteOffset":156480,"target":34962},{"buffer":0,"byteLength":1256,"byteOffset":158364,"target":34962},{"buffer":0,"byteLength":1256,"byteOffset":159620,"target":34962},{"buffer":0,"byteLength":900,"byteOffset":160876,"target":34963}],"buffers":[{"byteLength":161776,"uri":"copper_vein-u2-cracked-lod0.bin"}]}