{"asset":{"generator":"Khronos glTF Blender I/O v4.5.51","version":"2.0"},"scene":0,"scenes":[{"name":"Scene","nodes":[0]}],"nodes":[{"mesh":0,"name":"copper_vein-u6-cracked-lod0"}],"materials":[{"name":"copper_vein mineral host","pbrMetallicRoughness":{"baseColorFactor":[1,1,1,1],"metallicFactor":0,"roughnessFactor":1}},{"name":"copper_vein cut interior","pbrMetallicRoughness":{"baseColorFactor":[1,1,1,1],"metallicFactor":0,"roughnessFactor":1}}],"meshes":[{"name":"Mesh_0.198","primitives":[{"attributes":{"POSITION":0,"NORMAL":1,"TEXCOORD_0":2,"COLOR_0":3},"indices":4,"material":0},{"attributes":{"POSITION":5,"NORMAL":6,"TEXCOORD_0":7,"COLOR_0":8},"indices":9,"material":1}]}],"accessors":[{"bufferView":0,"componentType":5126,"count":2986,"max":[0.6102056503295898,0.48843082785606384,0.39062902331352234],"min":[-1.2376817464828491,0,-0.3893433213233948],"type":"VEC3"},{"bufferView":1,"componentType":5126,"count":2986,"type":"VEC3"},{"bufferView":2,"componentType":5126,"count":2986,"type":"VEC2"},{"bufferView":3,"componentType":5123,"count":2986,"normalized":true,"type":"VEC4"},{"bufferView":4,"componentType":5123,"count":17433,"type":"SCALAR"},{"bufferView":5,"componentType":5126,"count":170,"max":[0.6102056503295898,0.45752984285354614,0.35606953501701355],"min":[-1.1094508171081543,0,-0.3564472496509552],"type":"VEC3"},{"bufferView":6,"componentType":5126,"count":170,"type":"VEC3"},{"bufferView":7,"componentType":5126,"count":170,"type":"VEC2"},{"bufferView":8,"componentType":5123,"count":170,"normalized":true,"type":"VEC4"},{"bufferView":9,"componentType":5123,"count":489,"type":"SCALAR"}],"bufferViews":[{"buffer":0,"byteLength":35832,"byteOffset":0,"target":34962},{"buffer":0,"byteLength":35832,"byteOffset":35832,"target":34962},{"buffer":0,"byteLength":23888,"byteOffset":71664,"target":34962},{"buffer":0,"byteLength":23888,"byteOffset":95552,"target":34962},{"buffer":0,"byteLength":34866,"byteOffset":119440,"target":34963},{"buffer":0,"byteLength":2040,"byteOffset":154308,"target":34962},{"buffer":0,"byteLength":2040,"byteOffset":156348,"target":34962},{"buffer":0,"byteLength":1360,"byteOffset":158388,"target":34962},{"buffer":0,"byteLength":1360,"byteOffset":159748,"target":34962},{"buffer":0,"byteLength":978,"byteOffset":161108,"target":34963}],"buffers":[{"byteLength":162086,"uri":"copper_vein-u6-cracked-lod0.bin"}]}