{"asset":{"generator":"Khronos glTF Blender I/O v4.5.51","version":"2.0"},"scene":0,"scenes":[{"name":"Scene","nodes":[0]}],"nodes":[{"mesh":0,"name":"copper_vein-u6-cold-lod0"}],"materials":[{"name":"copper_vein mineral host","pbrMetallicRoughness":{"baseColorFactor":[1,1,1,1],"metallicFactor":0,"roughnessFactor":1}},{"name":"copper_vein cut interior","pbrMetallicRoughness":{"baseColorFactor":[1,1,1,1],"metallicFactor":0,"roughnessFactor":1}}],"meshes":[{"name":"Mesh_0.159","primitives":[{"attributes":{"POSITION":0,"NORMAL":1,"TEXCOORD_0":2,"COLOR_0":3},"indices":4,"material":0},{"attributes":{"POSITION":5,"NORMAL":6,"TEXCOORD_0":7,"COLOR_0":8},"indices":9,"material":1}]}],"accessors":[{"bufferView":0,"componentType":5126,"count":2983,"max":[0.6101566553115845,0.48843082785606384,0.39062902331352234],"min":[-1.2401853799819946,0,-0.3893433213233948],"type":"VEC3"},{"bufferView":1,"componentType":5126,"count":2983,"type":"VEC3"},{"bufferView":2,"componentType":5126,"count":2983,"type":"VEC2"},{"bufferView":3,"componentType":5123,"count":2983,"normalized":true,"type":"VEC4"},{"bufferView":4,"componentType":5123,"count":17421,"type":"SCALAR"},{"bufferView":5,"componentType":5126,"count":176,"max":[0.6101566553115845,0.45752984285354614,0.35606953501701355],"min":[-1.1094508171081543,0,-0.3564472496509552],"type":"VEC3"},{"bufferView":6,"componentType":5126,"count":176,"type":"VEC3"},{"bufferView":7,"componentType":5126,"count":176,"type":"VEC2"},{"bufferView":8,"componentType":5123,"count":176,"normalized":true,"type":"VEC4"},{"bufferView":9,"componentType":5123,"count":501,"type":"SCALAR"}],"bufferViews":[{"buffer":0,"byteLength":35796,"byteOffset":0,"target":34962},{"buffer":0,"byteLength":35796,"byteOffset":35796,"target":34962},{"buffer":0,"byteLength":23864,"byteOffset":71592,"target":34962},{"buffer":0,"byteLength":23864,"byteOffset":95456,"target":34962},{"buffer":0,"byteLength":34842,"byteOffset":119320,"target":34963},{"buffer":0,"byteLength":2112,"byteOffset":154164,"target":34962},{"buffer":0,"byteLength":2112,"byteOffset":156276,"target":34962},{"buffer":0,"byteLength":1408,"byteOffset":158388,"target":34962},{"buffer":0,"byteLength":1408,"byteOffset":159796,"target":34962},{"buffer":0,"byteLength":1002,"byteOffset":161204,"target":34963}],"buffers":[{"byteLength":162206,"uri":"copper_vein-u6-cold-lod0.bin"}]}