{"asset":{"generator":"Khronos glTF Blender I/O v4.5.51","version":"2.0"},"scene":0,"scenes":[{"name":"Scene","nodes":[0]}],"nodes":[{"mesh":0,"name":"copper_vein-u2-cold-lod0"}],"materials":[{"name":"copper_vein mineral host","pbrMetallicRoughness":{"baseColorFactor":[1,1,1,1],"metallicFactor":0,"roughnessFactor":1}},{"name":"copper_vein cut interior","pbrMetallicRoughness":{"baseColorFactor":[1,1,1,1],"metallicFactor":0,"roughnessFactor":1}}],"meshes":[{"name":"Mesh_0.192","primitives":[{"attributes":{"POSITION":0,"NORMAL":1,"TEXCOORD_0":2,"COLOR_0":3},"indices":4,"material":0},{"attributes":{"POSITION":5,"NORMAL":6,"TEXCOORD_0":7,"COLOR_0":8},"indices":9,"material":1}]}],"accessors":[{"bufferView":0,"componentType":5126,"count":2989,"max":[-0.6098599433898926,0.28430625796318054,0.2856801152229309],"min":[-1.2401853799819946,0,-0.3077632784843445],"type":"VEC3"},{"bufferView":1,"componentType":5126,"count":2989,"type":"VEC3"},{"bufferView":2,"componentType":5126,"count":2989,"type":"VEC2"},{"bufferView":3,"componentType":5123,"count":2989,"normalized":true,"type":"VEC4"},{"bufferView":4,"componentType":5123,"count":17454,"type":"SCALAR"},{"bufferView":5,"componentType":5126,"count":164,"max":[-0.6098599433898926,0.28430625796318054,0.2856801152229309],"min":[-1.1015855073928833,0,-0.3077632784843445],"type":"VEC3"},{"bufferView":6,"componentType":5126,"count":164,"type":"VEC3"},{"bufferView":7,"componentType":5126,"count":164,"type":"VEC2"},{"bufferView":8,"componentType":5123,"count":164,"normalized":true,"type":"VEC4"},{"bufferView":9,"componentType":5123,"count":474,"type":"SCALAR"}],"bufferViews":[{"buffer":0,"byteLength":35868,"byteOffset":0,"target":34962},{"buffer":0,"byteLength":35868,"byteOffset":35868,"target":34962},{"buffer":0,"byteLength":23912,"byteOffset":71736,"target":34962},{"buffer":0,"byteLength":23912,"byteOffset":95648,"target":34962},{"buffer":0,"byteLength":34908,"byteOffset":119560,"target":34963},{"buffer":0,"byteLength":1968,"byteOffset":154468,"target":34962},{"buffer":0,"byteLength":1968,"byteOffset":156436,"target":34962},{"buffer":0,"byteLength":1312,"byteOffset":158404,"target":34962},{"buffer":0,"byteLength":1312,"byteOffset":159716,"target":34962},{"buffer":0,"byteLength":948,"byteOffset":161028,"target":34963}],"buffers":[{"byteLength":161976,"uri":"copper_vein-u2-cold-lod0.bin"}]}