{"asset":{"generator":"Khronos glTF Blender I/O v4.5.51","version":"2.0"},"scene":0,"scenes":[{"name":"Scene","nodes":[0]}],"nodes":[{"mesh":0,"name":"ember_iron_vein-u6-cold-lod0"}],"materials":[{"name":"ember_iron_vein mineral host","pbrMetallicRoughness":{"baseColorFactor":[1,1,1,1],"metallicFactor":0,"roughnessFactor":1}},{"name":"ember_iron_vein cut interior","pbrMetallicRoughness":{"baseColorFactor":[1,1,1,1],"metallicFactor":0,"roughnessFactor":1}}],"meshes":[{"name":"Mesh_0.225","primitives":[{"attributes":{"POSITION":0,"NORMAL":1,"TEXCOORD_0":2,"COLOR_0":3},"indices":4,"material":0},{"attributes":{"POSITION":5,"NORMAL":6,"TEXCOORD_0":7,"COLOR_0":8},"indices":9,"material":1}]}],"accessors":[{"bufferView":0,"componentType":5126,"count":2978,"max":[1.242116093635559,0.4884284734725952,0.3885178864002228],"min":[-1.2376914024353027,0,-0.38933807611465454],"type":"VEC3"},{"bufferView":1,"componentType":5126,"count":2978,"type":"VEC3"},{"bufferView":2,"componentType":5126,"count":2978,"type":"VEC2"},{"bufferView":3,"componentType":5123,"count":2978,"normalized":true,"type":"VEC4"},{"bufferView":4,"componentType":5123,"count":17676,"type":"SCALAR"},{"bufferView":5,"componentType":5126,"count":89,"max":[0.983354389667511,0.012289317324757576,0.3637867569923401],"min":[-1.1228070259094238,0,0.09808722883462906],"type":"VEC3"},{"bufferView":6,"componentType":5126,"count":89,"type":"VEC3"},{"bufferView":7,"componentType":5126,"count":89,"type":"VEC2"},{"bufferView":8,"componentType":5123,"count":89,"normalized":true,"type":"VEC4"},{"bufferView":9,"componentType":5123,"count":246,"type":"SCALAR"}],"bufferViews":[{"buffer":0,"byteLength":35736,"byteOffset":0,"target":34962},{"buffer":0,"byteLength":35736,"byteOffset":35736,"target":34962},{"buffer":0,"byteLength":23824,"byteOffset":71472,"target":34962},{"buffer":0,"byteLength":23824,"byteOffset":95296,"target":34962},{"buffer":0,"byteLength":35352,"byteOffset":119120,"target":34963},{"buffer":0,"byteLength":1068,"byteOffset":154472,"target":34962},{"buffer":0,"byteLength":1068,"byteOffset":155540,"target":34962},{"buffer":0,"byteLength":712,"byteOffset":156608,"target":34962},{"buffer":0,"byteLength":712,"byteOffset":157320,"target":34962},{"buffer":0,"byteLength":492,"byteOffset":158032,"target":34963}],"buffers":[{"byteLength":158524,"uri":"ember_iron_vein-u6-cold-lod0.bin"}]}