{"asset":{"generator":"Khronos glTF Blender I/O v4.5.51","version":"2.0"},"scene":0,"scenes":[{"name":"Scene","nodes":[0]}],"nodes":[{"mesh":0,"name":"ember_iron_vein-u4-cold-lod0"}],"materials":[{"name":"ember_iron_vein mineral host","pbrMetallicRoughness":{"baseColorFactor":[1,1,1,1],"metallicFactor":0,"roughnessFactor":1}},{"name":"ember_iron_vein cut interior","pbrMetallicRoughness":{"baseColorFactor":[1,1,1,1],"metallicFactor":0,"roughnessFactor":1}}],"meshes":[{"name":"Mesh_0.228","primitives":[{"attributes":{"POSITION":0,"NORMAL":1,"TEXCOORD_0":2,"COLOR_0":3},"indices":4,"material":0},{"attributes":{"POSITION":5,"NORMAL":6,"TEXCOORD_0":7,"COLOR_0":8},"indices":9,"material":1}]}],"accessors":[{"bufferView":0,"componentType":5126,"count":2986,"max":[0.40693140029907227,0.48898187279701233,0.39062902331352234],"min":[-1.2402019500732422,0,-0.3888228237628937],"type":"VEC3"},{"bufferView":1,"componentType":5126,"count":2986,"type":"VEC3"},{"bufferView":2,"componentType":5126,"count":2986,"type":"VEC2"},{"bufferView":3,"componentType":5123,"count":2986,"normalized":true,"type":"VEC4"},{"bufferView":4,"componentType":5123,"count":17424,"type":"SCALAR"},{"bufferView":5,"componentType":5126,"count":172,"max":[0.40693140029907227,0.4873850345611572,0.35606953501701355],"min":[-1.1094508171081543,0,-0.3888228237628937],"type":"VEC3"},{"bufferView":6,"componentType":5126,"count":172,"type":"VEC3"},{"bufferView":7,"componentType":5126,"count":172,"type":"VEC2"},{"bufferView":8,"componentType":5123,"count":172,"normalized":true,"type":"VEC4"},{"bufferView":9,"componentType":5123,"count":498,"type":"SCALAR"}],"bufferViews":[{"buffer":0,"byteLength":35832,"byteOffset":0,"target":34962},{"buffer":0,"byteLength":35832,"byteOffset":35832,"target":34962},{"buffer":0,"byteLength":23888,"byteOffset":71664,"target":34962},{"buffer":0,"byteLength":23888,"byteOffset":95552,"target":34962},{"buffer":0,"byteLength":34848,"byteOffset":119440,"target":34963},{"buffer":0,"byteLength":2064,"byteOffset":154288,"target":34962},{"buffer":0,"byteLength":2064,"byteOffset":156352,"target":34962},{"buffer":0,"byteLength":1376,"byteOffset":158416,"target":34962},{"buffer":0,"byteLength":1376,"byteOffset":159792,"target":34962},{"buffer":0,"byteLength":996,"byteOffset":161168,"target":34963}],"buffers":[{"byteLength":162164,"uri":"ember_iron_vein-u4-cold-lod0.bin"}]}