{"asset":{"generator":"Khronos glTF Blender I/O v4.5.51","version":"2.0"},"scene":0,"scenes":[{"name":"Scene","nodes":[0]}],"nodes":[{"mesh":0,"name":"iron_vein-u6-cold-lod0"}],"materials":[{"name":"iron_vein mineral host","pbrMetallicRoughness":{"baseColorFactor":[1,1,1,1],"metallicFactor":0,"roughnessFactor":1}},{"name":"iron_vein cut interior","pbrMetallicRoughness":{"baseColorFactor":[1,1,1,1],"metallicFactor":0,"roughnessFactor":1}}],"meshes":[{"name":"Mesh_0.135","primitives":[{"attributes":{"POSITION":0,"NORMAL":1,"TEXCOORD_0":2,"COLOR_0":3},"indices":4,"material":0},{"attributes":{"POSITION":5,"NORMAL":6,"TEXCOORD_0":7,"COLOR_0":8},"indices":9,"material":1}]}],"accessors":[{"bufferView":0,"componentType":5126,"count":2988,"max":[0.6101850271224976,0.48843082785606384,0.39064931869506836],"min":[-1.2401890754699707,0,-0.38933950662612915],"type":"VEC3"},{"bufferView":1,"componentType":5126,"count":2988,"type":"VEC3"},{"bufferView":2,"componentType":5126,"count":2988,"type":"VEC2"},{"bufferView":3,"componentType":5123,"count":2988,"normalized":true,"type":"VEC4"},{"bufferView":4,"componentType":5123,"count":17418,"type":"SCALAR"},{"bufferView":5,"componentType":5126,"count":178,"max":[0.6101850271224976,0.45752978324890137,0.35610851645469666],"min":[-1.1094567775726318,0,-0.356010377407074],"type":"VEC3"},{"bufferView":6,"componentType":5126,"count":178,"type":"VEC3"},{"bufferView":7,"componentType":5126,"count":178,"type":"VEC2"},{"bufferView":8,"componentType":5123,"count":178,"normalized":true,"type":"VEC4"},{"bufferView":9,"componentType":5123,"count":507,"type":"SCALAR"}],"bufferViews":[{"buffer":0,"byteLength":35856,"byteOffset":0,"target":34962},{"buffer":0,"byteLength":35856,"byteOffset":35856,"target":34962},{"buffer":0,"byteLength":23904,"byteOffset":71712,"target":34962},{"buffer":0,"byteLength":23904,"byteOffset":95616,"target":34962},{"buffer":0,"byteLength":34836,"byteOffset":119520,"target":34963},{"buffer":0,"byteLength":2136,"byteOffset":154356,"target":34962},{"buffer":0,"byteLength":2136,"byteOffset":156492,"target":34962},{"buffer":0,"byteLength":1424,"byteOffset":158628,"target":34962},{"buffer":0,"byteLength":1424,"byteOffset":160052,"target":34962},{"buffer":0,"byteLength":1014,"byteOffset":161476,"target":34963}],"buffers":[{"byteLength":162490,"uri":"iron_vein-u6-cold-lod0.bin"}]}