{"asset":{"generator":"Khronos glTF Blender I/O v4.5.51","version":"2.0"},"scene":0,"scenes":[{"name":"Scene","nodes":[0]}],"nodes":[{"mesh":0,"name":"iron_vein-u2-cold-lod0"}],"materials":[{"name":"iron_vein mineral host","pbrMetallicRoughness":{"baseColorFactor":[1,1,1,1],"metallicFactor":0,"roughnessFactor":1}},{"name":"iron_vein cut interior","pbrMetallicRoughness":{"baseColorFactor":[1,1,1,1],"metallicFactor":0,"roughnessFactor":1}}],"meshes":[{"name":"Mesh_0.147","primitives":[{"attributes":{"POSITION":0,"NORMAL":1,"TEXCOORD_0":2,"COLOR_0":3},"indices":4,"material":0},{"attributes":{"POSITION":5,"NORMAL":6,"TEXCOORD_0":7,"COLOR_0":8},"indices":9,"material":1}]}],"accessors":[{"bufferView":0,"componentType":5126,"count":2989,"max":[-0.6099632978439331,0.2842894494533539,0.2870923578739166],"min":[-1.2401890754699707,0,-0.30776241421699524],"type":"VEC3"},{"bufferView":1,"componentType":5126,"count":2989,"type":"VEC3"},{"bufferView":2,"componentType":5126,"count":2989,"type":"VEC2"},{"bufferView":3,"componentType":5123,"count":2989,"normalized":true,"type":"VEC4"},{"bufferView":4,"componentType":5123,"count":17451,"type":"SCALAR"},{"bufferView":5,"componentType":5126,"count":165,"max":[-0.6099632978439331,0.2842894494533539,0.2870923578739166],"min":[-1.1015831232070923,0,-0.30776241421699524],"type":"VEC3"},{"bufferView":6,"componentType":5126,"count":165,"type":"VEC3"},{"bufferView":7,"componentType":5126,"count":165,"type":"VEC2"},{"bufferView":8,"componentType":5123,"count":165,"normalized":true,"type":"VEC4"},{"bufferView":9,"componentType":5123,"count":477,"type":"SCALAR"}],"bufferViews":[{"buffer":0,"byteLength":35868,"byteOffset":0,"target":34962},{"buffer":0,"byteLength":35868,"byteOffset":35868,"target":34962},{"buffer":0,"byteLength":23912,"byteOffset":71736,"target":34962},{"buffer":0,"byteLength":23912,"byteOffset":95648,"target":34962},{"buffer":0,"byteLength":34902,"byteOffset":119560,"target":34963},{"buffer":0,"byteLength":1980,"byteOffset":154464,"target":34962},{"buffer":0,"byteLength":1980,"byteOffset":156444,"target":34962},{"buffer":0,"byteLength":1320,"byteOffset":158424,"target":34962},{"buffer":0,"byteLength":1320,"byteOffset":159744,"target":34962},{"buffer":0,"byteLength":954,"byteOffset":161064,"target":34963}],"buffers":[{"byteLength":162018,"uri":"iron_vein-u2-cold-lod0.bin"}]}