{"asset":{"generator":"Khronos glTF Blender I/O v4.5.51","version":"2.0"},"scene":0,"scenes":[{"name":"Scene","nodes":[0]}],"nodes":[{"mesh":0,"name":"iron_vein-u4-cold-lod0"}],"materials":[{"name":"iron_vein mineral host","pbrMetallicRoughness":{"baseColorFactor":[1,1,1,1],"metallicFactor":0,"roughnessFactor":1}},{"name":"iron_vein cut interior","pbrMetallicRoughness":{"baseColorFactor":[1,1,1,1],"metallicFactor":0,"roughnessFactor":1}}],"meshes":[{"name":"Mesh_0.141","primitives":[{"attributes":{"POSITION":0,"NORMAL":1,"TEXCOORD_0":2,"COLOR_0":3},"indices":4,"material":0},{"attributes":{"POSITION":5,"NORMAL":6,"TEXCOORD_0":7,"COLOR_0":8},"indices":9,"material":1}]}],"accessors":[{"bufferView":0,"componentType":5126,"count":2989,"max":[4.5937053073430434e-05,0.43714001774787903,0.36506620049476624],"min":[-1.2401890754699707,0,-0.37768232822418213],"type":"VEC3"},{"bufferView":1,"componentType":5126,"count":2989,"type":"VEC3"},{"bufferView":2,"componentType":5126,"count":2989,"type":"VEC2"},{"bufferView":3,"componentType":5123,"count":2989,"normalized":true,"type":"VEC4"},{"bufferView":4,"componentType":5123,"count":17487,"type":"SCALAR"},{"bufferView":5,"componentType":5126,"count":155,"max":[4.5937053073430434e-05,0.43714001774787903,0.33952033519744873],"min":[-1.1063239574432373,0,-0.35963326692581177],"type":"VEC3"},{"bufferView":6,"componentType":5126,"count":155,"type":"VEC3"},{"bufferView":7,"componentType":5126,"count":155,"type":"VEC2"},{"bufferView":8,"componentType":5123,"count":155,"normalized":true,"type":"VEC4"},{"bufferView":9,"componentType":5123,"count":441,"type":"SCALAR"}],"bufferViews":[{"buffer":0,"byteLength":35868,"byteOffset":0,"target":34962},{"buffer":0,"byteLength":35868,"byteOffset":35868,"target":34962},{"buffer":0,"byteLength":23912,"byteOffset":71736,"target":34962},{"buffer":0,"byteLength":23912,"byteOffset":95648,"target":34962},{"buffer":0,"byteLength":34974,"byteOffset":119560,"target":34963},{"buffer":0,"byteLength":1860,"byteOffset":154536,"target":34962},{"buffer":0,"byteLength":1860,"byteOffset":156396,"target":34962},{"buffer":0,"byteLength":1240,"byteOffset":158256,"target":34962},{"buffer":0,"byteLength":1240,"byteOffset":159496,"target":34962},{"buffer":0,"byteLength":882,"byteOffset":160736,"target":34963}],"buffers":[{"byteLength":161618,"uri":"iron_vein-u4-cold-lod0.bin"}]}