{"asset":{"generator":"Khronos glTF Blender I/O v4.5.51","version":"2.0"},"scene":0,"scenes":[{"name":"Scene","nodes":[0]}],"nodes":[{"mesh":0,"name":"iron_vein-u8-cold-lod0"}],"materials":[{"name":"iron_vein mineral host","pbrMetallicRoughness":{"baseColorFactor":[1,1,1,1],"metallicFactor":0,"roughnessFactor":1}},{"name":"iron_vein cut interior","pbrMetallicRoughness":{"baseColorFactor":[1,1,1,1],"metallicFactor":0,"roughnessFactor":1}}],"meshes":[{"name":"Mesh_0.129","primitives":[{"attributes":{"POSITION":0,"NORMAL":1,"TEXCOORD_0":2,"COLOR_0":3},"indices":4,"material":0},{"attributes":{"POSITION":5,"NORMAL":6,"TEXCOORD_0":7,"COLOR_0":8},"indices":9,"material":1}]}],"accessors":[{"bufferView":0,"componentType":5126,"count":2978,"max":[1.2430163621902466,0.48843082785606384,0.3885405361652374],"min":[-1.2376855611801147,0,-0.38933950662612915],"type":"VEC3"},{"bufferView":1,"componentType":5126,"count":2978,"type":"VEC3"},{"bufferView":2,"componentType":5126,"count":2978,"type":"VEC2"},{"bufferView":3,"componentType":5123,"count":2978,"normalized":true,"type":"VEC4"},{"bufferView":4,"componentType":5123,"count":17670,"type":"SCALAR"},{"bufferView":5,"componentType":5126,"count":91,"max":[0.9797191619873047,0.006338339764624834,0.35610851645469666],"min":[-1.1094567775726318,0,0.09951867908239365],"type":"VEC3"},{"bufferView":6,"componentType":5126,"count":91,"type":"VEC3"},{"bufferView":7,"componentType":5126,"count":91,"type":"VEC2"},{"bufferView":8,"componentType":5123,"count":91,"normalized":true,"type":"VEC4"},{"bufferView":9,"componentType":5123,"count":252,"type":"SCALAR"}],"bufferViews":[{"buffer":0,"byteLength":35736,"byteOffset":0,"target":34962},{"buffer":0,"byteLength":35736,"byteOffset":35736,"target":34962},{"buffer":0,"byteLength":23824,"byteOffset":71472,"target":34962},{"buffer":0,"byteLength":23824,"byteOffset":95296,"target":34962},{"buffer":0,"byteLength":35340,"byteOffset":119120,"target":34963},{"buffer":0,"byteLength":1092,"byteOffset":154460,"target":34962},{"buffer":0,"byteLength":1092,"byteOffset":155552,"target":34962},{"buffer":0,"byteLength":728,"byteOffset":156644,"target":34962},{"buffer":0,"byteLength":728,"byteOffset":157372,"target":34962},{"buffer":0,"byteLength":504,"byteOffset":158100,"target":34963}],"buffers":[{"byteLength":158604,"uri":"iron_vein-u8-cold-lod0.bin"}]}