{"asset":{"generator":"Khronos glTF Blender I/O v4.5.51","version":"2.0"},"scene":0,"scenes":[{"name":"Scene","nodes":[0]}],"nodes":[{"mesh":0,"name":"silver_vein-u2-cold-lod0"}],"materials":[{"name":"silver_vein mineral host","pbrMetallicRoughness":{"baseColorFactor":[1,1,1,1],"metallicFactor":0,"roughnessFactor":1}},{"name":"silver_vein cut interior","pbrMetallicRoughness":{"baseColorFactor":[1,1,1,1],"metallicFactor":0,"roughnessFactor":1}}],"meshes":[{"name":"Mesh_0.249","primitives":[{"attributes":{"POSITION":0,"NORMAL":1,"TEXCOORD_0":2,"COLOR_0":3},"indices":4,"material":0},{"attributes":{"POSITION":5,"NORMAL":6,"TEXCOORD_0":7,"COLOR_0":8},"indices":9,"material":1}]}],"accessors":[{"bufferView":0,"componentType":5126,"count":2990,"max":[-0.4065999984741211,0.339220255613327,0.35971319675445557],"min":[-1.2401853799819946,0,-0.3142341077327728],"type":"VEC3"},{"bufferView":1,"componentType":5126,"count":2990,"type":"VEC3"},{"bufferView":2,"componentType":5126,"count":2990,"type":"VEC2"},{"bufferView":3,"componentType":5123,"count":2990,"normalized":true,"type":"VEC4"},{"bufferView":4,"componentType":5123,"count":17451,"type":"SCALAR"},{"bufferView":5,"componentType":5126,"count":165,"max":[-0.4065999984741211,0.339220255613327,0.3592597544193268],"min":[-1.106323003768921,0,-0.3142341077327728],"type":"VEC3"},{"bufferView":6,"componentType":5126,"count":165,"type":"VEC3"},{"bufferView":7,"componentType":5126,"count":165,"type":"VEC2"},{"bufferView":8,"componentType":5123,"count":165,"normalized":true,"type":"VEC4"},{"bufferView":9,"componentType":5123,"count":471,"type":"SCALAR"}],"bufferViews":[{"buffer":0,"byteLength":35880,"byteOffset":0,"target":34962},{"buffer":0,"byteLength":35880,"byteOffset":35880,"target":34962},{"buffer":0,"byteLength":23920,"byteOffset":71760,"target":34962},{"buffer":0,"byteLength":23920,"byteOffset":95680,"target":34962},{"buffer":0,"byteLength":34902,"byteOffset":119600,"target":34963},{"buffer":0,"byteLength":1980,"byteOffset":154504,"target":34962},{"buffer":0,"byteLength":1980,"byteOffset":156484,"target":34962},{"buffer":0,"byteLength":1320,"byteOffset":158464,"target":34962},{"buffer":0,"byteLength":1320,"byteOffset":159784,"target":34962},{"buffer":0,"byteLength":942,"byteOffset":161104,"target":34963}],"buffers":[{"byteLength":162046,"uri":"silver_vein-u2-cold-lod0.bin"}]}