{"asset":{"generator":"Khronos glTF Blender I/O v4.5.51","version":"2.0"},"scene":0,"scenes":[{"name":"Scene","nodes":[0]}],"nodes":[{"mesh":0,"name":"silver_vein-u6-cold-lod0"}],"materials":[{"name":"silver_vein mineral host","pbrMetallicRoughness":{"baseColorFactor":[1,1,1,1],"metallicFactor":0,"roughnessFactor":1}},{"name":"silver_vein cut interior","pbrMetallicRoughness":{"baseColorFactor":[1,1,1,1],"metallicFactor":0,"roughnessFactor":1}}],"meshes":[{"name":"Mesh_0.243","primitives":[{"attributes":{"POSITION":0,"NORMAL":1,"TEXCOORD_0":2,"COLOR_0":3},"indices":4,"material":0},{"attributes":{"POSITION":5,"NORMAL":6,"TEXCOORD_0":7,"COLOR_0":8},"indices":9,"material":1}]}],"accessors":[{"bufferView":0,"componentType":5126,"count":2977,"max":[1.2432947158813477,0.48843082785606384,0.3885178864002228],"min":[-1.2376817464828491,0,-0.38933807611465454],"type":"VEC3"},{"bufferView":1,"componentType":5126,"count":2977,"type":"VEC3"},{"bufferView":2,"componentType":5126,"count":2977,"type":"VEC2"},{"bufferView":3,"componentType":5123,"count":2977,"normalized":true,"type":"VEC4"},{"bufferView":4,"componentType":5123,"count":17676,"type":"SCALAR"},{"bufferView":5,"componentType":5126,"count":89,"max":[0.9767675995826721,0.012289317324757576,0.35606953501701355],"min":[-1.1094508171081543,0,0.09958907216787338],"type":"VEC3"},{"bufferView":6,"componentType":5126,"count":89,"type":"VEC3"},{"bufferView":7,"componentType":5126,"count":89,"type":"VEC2"},{"bufferView":8,"componentType":5123,"count":89,"normalized":true,"type":"VEC4"},{"bufferView":9,"componentType":5123,"count":246,"type":"SCALAR"}],"bufferViews":[{"buffer":0,"byteLength":35724,"byteOffset":0,"target":34962},{"buffer":0,"byteLength":35724,"byteOffset":35724,"target":34962},{"buffer":0,"byteLength":23816,"byteOffset":71448,"target":34962},{"buffer":0,"byteLength":23816,"byteOffset":95264,"target":34962},{"buffer":0,"byteLength":35352,"byteOffset":119080,"target":34963},{"buffer":0,"byteLength":1068,"byteOffset":154432,"target":34962},{"buffer":0,"byteLength":1068,"byteOffset":155500,"target":34962},{"buffer":0,"byteLength":712,"byteOffset":156568,"target":34962},{"buffer":0,"byteLength":712,"byteOffset":157280,"target":34962},{"buffer":0,"byteLength":492,"byteOffset":157992,"target":34963}],"buffers":[{"byteLength":158484,"uri":"silver_vein-u6-cold-lod0.bin"}]}