{"asset":{"generator":"Khronos glTF Blender I/O v4.5.51","version":"2.0"},"scene":0,"scenes":[{"name":"Scene","nodes":[0]}],"nodes":[{"mesh":0,"name":"silver_vein-u4-cracked-lod0"}],"materials":[{"name":"silver_vein mineral host","pbrMetallicRoughness":{"baseColorFactor":[1,1,1,1],"metallicFactor":0,"roughnessFactor":1}},{"name":"silver_vein cut interior","pbrMetallicRoughness":{"baseColorFactor":[1,1,1,1],"metallicFactor":0,"roughnessFactor":1}}],"meshes":[{"name":"Mesh_0.255","primitives":[{"attributes":{"POSITION":0,"NORMAL":1,"TEXCOORD_0":2,"COLOR_0":3},"indices":4,"material":0},{"attributes":{"POSITION":5,"NORMAL":6,"TEXCOORD_0":7,"COLOR_0":8},"indices":9,"material":1}]}],"accessors":[{"bufferView":0,"componentType":5126,"count":2986,"max":[0.4069158434867859,0.4889793395996094,0.39062902331352234],"min":[-1.2401853799819946,0,-0.38882315158843994],"type":"VEC3"},{"bufferView":1,"componentType":5126,"count":2986,"type":"VEC3"},{"bufferView":2,"componentType":5126,"count":2986,"type":"VEC2"},{"bufferView":3,"componentType":5123,"count":2986,"normalized":true,"type":"VEC4"},{"bufferView":4,"componentType":5123,"count":17430,"type":"SCALAR"},{"bufferView":5,"componentType":5126,"count":170,"max":[0.4069158434867859,0.4860067367553711,0.35606953501701355],"min":[-1.1094508171081543,0,-0.38882315158843994],"type":"VEC3"},{"bufferView":6,"componentType":5126,"count":170,"type":"VEC3"},{"bufferView":7,"componentType":5126,"count":170,"type":"VEC2"},{"bufferView":8,"componentType":5123,"count":170,"normalized":true,"type":"VEC4"},{"bufferView":9,"componentType":5123,"count":492,"type":"SCALAR"}],"bufferViews":[{"buffer":0,"byteLength":35832,"byteOffset":0,"target":34962},{"buffer":0,"byteLength":35832,"byteOffset":35832,"target":34962},{"buffer":0,"byteLength":23888,"byteOffset":71664,"target":34962},{"buffer":0,"byteLength":23888,"byteOffset":95552,"target":34962},{"buffer":0,"byteLength":34860,"byteOffset":119440,"target":34963},{"buffer":0,"byteLength":2040,"byteOffset":154300,"target":34962},{"buffer":0,"byteLength":2040,"byteOffset":156340,"target":34962},{"buffer":0,"byteLength":1360,"byteOffset":158380,"target":34962},{"buffer":0,"byteLength":1360,"byteOffset":159740,"target":34962},{"buffer":0,"byteLength":984,"byteOffset":161100,"target":34963}],"buffers":[{"byteLength":162084,"uri":"silver_vein-u4-cracked-lod0.bin"}]}