{"asset":{"generator":"Khronos glTF Blender I/O v4.5.51","version":"2.0"},"scene":0,"scenes":[{"name":"Scene","nodes":[0]}],"nodes":[{"mesh":0,"name":"silver_vein-u4-cold-lod0"}],"materials":[{"name":"silver_vein mineral host","pbrMetallicRoughness":{"baseColorFactor":[1,1,1,1],"metallicFactor":0,"roughnessFactor":1}},{"name":"silver_vein cut interior","pbrMetallicRoughness":{"baseColorFactor":[1,1,1,1],"metallicFactor":0,"roughnessFactor":1}}],"meshes":[{"name":"Mesh_0.246","primitives":[{"attributes":{"POSITION":0,"NORMAL":1,"TEXCOORD_0":2,"COLOR_0":3},"indices":4,"material":0},{"attributes":{"POSITION":5,"NORMAL":6,"TEXCOORD_0":7,"COLOR_0":8},"indices":9,"material":1}]}],"accessors":[{"bufferView":0,"componentType":5126,"count":2983,"max":[0.4069214165210724,0.4889793395996094,0.39062902331352234],"min":[-1.2401853799819946,0,-0.3888228237628937],"type":"VEC3"},{"bufferView":1,"componentType":5126,"count":2983,"type":"VEC3"},{"bufferView":2,"componentType":5126,"count":2983,"type":"VEC2"},{"bufferView":3,"componentType":5123,"count":2983,"normalized":true,"type":"VEC4"},{"bufferView":4,"componentType":5123,"count":17427,"type":"SCALAR"},{"bufferView":5,"componentType":5126,"count":173,"max":[0.4069214165210724,0.48510801792144775,0.35606953501701355],"min":[-1.106323003768921,0,-0.3888228237628937],"type":"VEC3"},{"bufferView":6,"componentType":5126,"count":173,"type":"VEC3"},{"bufferView":7,"componentType":5126,"count":173,"type":"VEC2"},{"bufferView":8,"componentType":5123,"count":173,"normalized":true,"type":"VEC4"},{"bufferView":9,"componentType":5123,"count":495,"type":"SCALAR"}],"bufferViews":[{"buffer":0,"byteLength":35796,"byteOffset":0,"target":34962},{"buffer":0,"byteLength":35796,"byteOffset":35796,"target":34962},{"buffer":0,"byteLength":23864,"byteOffset":71592,"target":34962},{"buffer":0,"byteLength":23864,"byteOffset":95456,"target":34962},{"buffer":0,"byteLength":34854,"byteOffset":119320,"target":34963},{"buffer":0,"byteLength":2076,"byteOffset":154176,"target":34962},{"buffer":0,"byteLength":2076,"byteOffset":156252,"target":34962},{"buffer":0,"byteLength":1384,"byteOffset":158328,"target":34962},{"buffer":0,"byteLength":1384,"byteOffset":159712,"target":34962},{"buffer":0,"byteLength":990,"byteOffset":161096,"target":34963}],"buffers":[{"byteLength":162086,"uri":"silver_vein-u4-cold-lod0.bin"}]}