{"asset":{"generator":"Khronos glTF Blender I/O v4.5.51","version":"2.0"},"scene":0,"scenes":[{"name":"Scene","nodes":[0]}],"nodes":[{"mesh":0,"name":"tin_vein-u6-cracked-lod0"}],"materials":[{"name":"tin_vein mineral host","pbrMetallicRoughness":{"baseColorFactor":[1,1,1,1],"metallicFactor":0,"roughnessFactor":1}},{"name":"tin_vein cut interior","pbrMetallicRoughness":{"baseColorFactor":[1,1,1,1],"metallicFactor":0,"roughnessFactor":1}}],"meshes":[{"name":"Mesh_0.216","primitives":[{"attributes":{"POSITION":0,"NORMAL":1,"TEXCOORD_0":2,"COLOR_0":3},"indices":4,"material":0},{"attributes":{"POSITION":5,"NORMAL":6,"TEXCOORD_0":7,"COLOR_0":8},"indices":9,"material":1}]}],"accessors":[{"bufferView":0,"componentType":5126,"count":2977,"max":[1.2434324026107788,0.4884306490421295,0.3885178864002228],"min":[-1.2376848459243774,0,-0.38911157846450806],"type":"VEC3"},{"bufferView":1,"componentType":5126,"count":2977,"type":"VEC3"},{"bufferView":2,"componentType":5126,"count":2977,"type":"VEC2"},{"bufferView":3,"componentType":5123,"count":2977,"normalized":true,"type":"VEC4"},{"bufferView":4,"componentType":5123,"count":17697,"type":"SCALAR"},{"bufferView":5,"componentType":5126,"count":82,"max":[0.9794928431510925,0.0122893201187253,0.3637867569923401],"min":[-1.1228076219558716,0,0.09954169392585754],"type":"VEC3"},{"bufferView":6,"componentType":5126,"count":82,"type":"VEC3"},{"bufferView":7,"componentType":5126,"count":82,"type":"VEC2"},{"bufferView":8,"componentType":5123,"count":82,"normalized":true,"type":"VEC4"},{"bufferView":9,"componentType":5123,"count":225,"type":"SCALAR"}],"bufferViews":[{"buffer":0,"byteLength":35724,"byteOffset":0,"target":34962},{"buffer":0,"byteLength":35724,"byteOffset":35724,"target":34962},{"buffer":0,"byteLength":23816,"byteOffset":71448,"target":34962},{"buffer":0,"byteLength":23816,"byteOffset":95264,"target":34962},{"buffer":0,"byteLength":35394,"byteOffset":119080,"target":34963},{"buffer":0,"byteLength":984,"byteOffset":154476,"target":34962},{"buffer":0,"byteLength":984,"byteOffset":155460,"target":34962},{"buffer":0,"byteLength":656,"byteOffset":156444,"target":34962},{"buffer":0,"byteLength":656,"byteOffset":157100,"target":34962},{"buffer":0,"byteLength":450,"byteOffset":157756,"target":34963}],"buffers":[{"byteLength":158206,"uri":"tin_vein-u6-cracked-lod0.bin"}]}