{"asset":{"generator":"Khronos glTF Blender I/O v4.5.51","version":"2.0"},"scene":0,"scenes":[{"name":"Scene","nodes":[0]}],"nodes":[{"mesh":0,"name":"tin_vein-u2-cold-lod0"}],"materials":[{"name":"tin_vein mineral host","pbrMetallicRoughness":{"baseColorFactor":[1,1,1,1],"metallicFactor":0,"roughnessFactor":1}},{"name":"tin_vein cut interior","pbrMetallicRoughness":{"baseColorFactor":[1,1,1,1],"metallicFactor":0,"roughnessFactor":1}}],"meshes":[{"name":"Mesh_0.213","primitives":[{"attributes":{"POSITION":0,"NORMAL":1,"TEXCOORD_0":2,"COLOR_0":3},"indices":4,"material":0},{"attributes":{"POSITION":5,"NORMAL":6,"TEXCOORD_0":7,"COLOR_0":8},"indices":9,"material":1}]}],"accessors":[{"bufferView":0,"componentType":5126,"count":2994,"max":[-0.40659743547439575,0.3392447233200073,0.3588779866695404],"min":[-1.2401868104934692,0,-0.31736406683921814],"type":"VEC3"},{"bufferView":1,"componentType":5126,"count":2994,"type":"VEC3"},{"bufferView":2,"componentType":5126,"count":2994,"type":"VEC2"},{"bufferView":3,"componentType":5123,"count":2994,"normalized":true,"type":"VEC4"},{"bufferView":4,"componentType":5123,"count":17463,"type":"SCALAR"},{"bufferView":5,"componentType":5126,"count":165,"max":[-0.40659743547439575,0.3392447233200073,0.3588779866695404],"min":[-1.1063231229782104,0,-0.3143773376941681],"type":"VEC3"},{"bufferView":6,"componentType":5126,"count":165,"type":"VEC3"},{"bufferView":7,"componentType":5126,"count":165,"type":"VEC2"},{"bufferView":8,"componentType":5123,"count":165,"normalized":true,"type":"VEC4"},{"bufferView":9,"componentType":5123,"count":465,"type":"SCALAR"}],"bufferViews":[{"buffer":0,"byteLength":35928,"byteOffset":0,"target":34962},{"buffer":0,"byteLength":35928,"byteOffset":35928,"target":34962},{"buffer":0,"byteLength":23952,"byteOffset":71856,"target":34962},{"buffer":0,"byteLength":23952,"byteOffset":95808,"target":34962},{"buffer":0,"byteLength":34926,"byteOffset":119760,"target":34963},{"buffer":0,"byteLength":1980,"byteOffset":154688,"target":34962},{"buffer":0,"byteLength":1980,"byteOffset":156668,"target":34962},{"buffer":0,"byteLength":1320,"byteOffset":158648,"target":34962},{"buffer":0,"byteLength":1320,"byteOffset":159968,"target":34962},{"buffer":0,"byteLength":930,"byteOffset":161288,"target":34963}],"buffers":[{"byteLength":162218,"uri":"tin_vein-u2-cold-lod0.bin"}]}