{"asset":{"generator":"Khronos glTF Blender I/O v4.5.51","version":"2.0"},"scene":0,"scenes":[{"name":"Scene","nodes":[0]}],"nodes":[{"mesh":0,"name":"tin_vein-u4-cold-lod0"}],"materials":[{"name":"tin_vein mineral host","pbrMetallicRoughness":{"baseColorFactor":[1,1,1,1],"metallicFactor":0,"roughnessFactor":1}},{"name":"tin_vein cut interior","pbrMetallicRoughness":{"baseColorFactor":[1,1,1,1],"metallicFactor":0,"roughnessFactor":1}}],"meshes":[{"name":"Mesh_0.210","primitives":[{"attributes":{"POSITION":0,"NORMAL":1,"TEXCOORD_0":2,"COLOR_0":3},"indices":4,"material":0},{"attributes":{"POSITION":5,"NORMAL":6,"TEXCOORD_0":7,"COLOR_0":8},"indices":9,"material":1}]}],"accessors":[{"bufferView":0,"componentType":5126,"count":2984,"max":[0.406927227973938,0.4889792203903198,0.39062902331352234],"min":[-1.2401868104934692,0,-0.38883134722709656],"type":"VEC3"},{"bufferView":1,"componentType":5126,"count":2984,"type":"VEC3"},{"bufferView":2,"componentType":5126,"count":2984,"type":"VEC2"},{"bufferView":3,"componentType":5123,"count":2984,"normalized":true,"type":"VEC4"},{"bufferView":4,"componentType":5123,"count":17448,"type":"SCALAR"},{"bufferView":5,"componentType":5126,"count":168,"max":[0.406927227973938,0.4851105213165283,0.35606953501701355],"min":[-1.1094509363174438,0,-0.38883134722709656],"type":"VEC3"},{"bufferView":6,"componentType":5126,"count":168,"type":"VEC3"},{"bufferView":7,"componentType":5126,"count":168,"type":"VEC2"},{"bufferView":8,"componentType":5123,"count":168,"normalized":true,"type":"VEC4"},{"bufferView":9,"componentType":5123,"count":477,"type":"SCALAR"}],"bufferViews":[{"buffer":0,"byteLength":35808,"byteOffset":0,"target":34962},{"buffer":0,"byteLength":35808,"byteOffset":35808,"target":34962},{"buffer":0,"byteLength":23872,"byteOffset":71616,"target":34962},{"buffer":0,"byteLength":23872,"byteOffset":95488,"target":34962},{"buffer":0,"byteLength":34896,"byteOffset":119360,"target":34963},{"buffer":0,"byteLength":2016,"byteOffset":154256,"target":34962},{"buffer":0,"byteLength":2016,"byteOffset":156272,"target":34962},{"buffer":0,"byteLength":1344,"byteOffset":158288,"target":34962},{"buffer":0,"byteLength":1344,"byteOffset":159632,"target":34962},{"buffer":0,"byteLength":954,"byteOffset":160976,"target":34963}],"buffers":[{"byteLength":161930,"uri":"tin_vein-u4-cold-lod0.bin"}]}