{"asset":{"generator":"Khronos glTF Blender I/O v4.5.51","version":"2.0"},"scene":0,"scenes":[{"name":"Scene","nodes":[0]}],"nodes":[{"mesh":0,"name":"tin_vein-u2-cracked-lod0"}],"materials":[{"name":"tin_vein mineral host","pbrMetallicRoughness":{"baseColorFactor":[1,1,1,1],"metallicFactor":0,"roughnessFactor":1}},{"name":"tin_vein cut interior","pbrMetallicRoughness":{"baseColorFactor":[1,1,1,1],"metallicFactor":0,"roughnessFactor":1}}],"meshes":[{"name":"Mesh_0.222","primitives":[{"attributes":{"POSITION":0,"NORMAL":1,"TEXCOORD_0":2,"COLOR_0":3},"indices":4,"material":0},{"attributes":{"POSITION":5,"NORMAL":6,"TEXCOORD_0":7,"COLOR_0":8},"indices":9,"material":1}]}],"accessors":[{"bufferView":0,"componentType":5126,"count":2994,"max":[-0.40659743547439575,0.3392447233200073,0.3588779866695404],"min":[-1.2401868104934692,0,-0.31736406683921814],"type":"VEC3"},{"bufferView":1,"componentType":5126,"count":2994,"type":"VEC3"},{"bufferView":2,"componentType":5126,"count":2994,"type":"VEC2"},{"bufferView":3,"componentType":5123,"count":2994,"normalized":true,"type":"VEC4"},{"bufferView":4,"componentType":5123,"count":17460,"type":"SCALAR"},{"bufferView":5,"componentType":5126,"count":166,"max":[-0.40659743547439575,0.3392447233200073,0.3588779866695404],"min":[-1.1063231229782104,0,-0.3143773376941681],"type":"VEC3"},{"bufferView":6,"componentType":5126,"count":166,"type":"VEC3"},{"bufferView":7,"componentType":5126,"count":166,"type":"VEC2"},{"bufferView":8,"componentType":5123,"count":166,"normalized":true,"type":"VEC4"},{"bufferView":9,"componentType":5123,"count":468,"type":"SCALAR"}],"bufferViews":[{"buffer":0,"byteLength":35928,"byteOffset":0,"target":34962},{"buffer":0,"byteLength":35928,"byteOffset":35928,"target":34962},{"buffer":0,"byteLength":23952,"byteOffset":71856,"target":34962},{"buffer":0,"byteLength":23952,"byteOffset":95808,"target":34962},{"buffer":0,"byteLength":34920,"byteOffset":119760,"target":34963},{"buffer":0,"byteLength":1992,"byteOffset":154680,"target":34962},{"buffer":0,"byteLength":1992,"byteOffset":156672,"target":34962},{"buffer":0,"byteLength":1328,"byteOffset":158664,"target":34962},{"buffer":0,"byteLength":1328,"byteOffset":159992,"target":34962},{"buffer":0,"byteLength":936,"byteOffset":161320,"target":34963}],"buffers":[{"byteLength":162256,"uri":"tin_vein-u2-cracked-lod0.bin"}]}